G04 #@! TF.FileFunction,Copper,L1,Top,Signal*
%FSLAX46Y46*%
G04 Gerber Fmt 4.6, Leading zero omitted, Abs format (unit mm)*
G04 Created by KiCad (PCBNEW 4.0.4-stable) date 08/26/17 16:23:53*
%MOMM*%
%LPD*%
G01*
G04 APERTURE LIST*
%ADD10C,0.100000*%
%ADD11O,1.420000X2.420000*%
%ADD12C,1.630000*%
%ADD13R,0.700000X0.600000*%
%ADD14R,0.600000X0.700000*%
%ADD15R,0.600000X1.550000*%
%ADD16R,1.200000X1.800000*%
%ADD17C,0.600000*%
%ADD18C,0.890000*%
%ADD19C,0.400000*%
%ADD20C,0.600000*%
%ADD21C,0.200000*%
%ADD22C,0.254000*%
G04 APERTURE END LIST*
D10*
D11*
X111110000Y-66970000D03*
D12*
X114510000Y-67020000D03*
D11*
X117910000Y-66970000D03*
D13*
X111300000Y-69100000D03*
X112500000Y-69100000D03*
D14*
X114000000Y-69720000D03*
X114000000Y-68520000D03*
D13*
X115750000Y-69275000D03*
X116950000Y-69275000D03*
X118950000Y-69275000D03*
X117750000Y-69275000D03*
D10*
G36*
X111272808Y-62461172D02*
X112092583Y-63035184D01*
X111748758Y-63526216D01*
X110928983Y-62952204D01*
X111272808Y-62461172D01*
X111272808Y-62461172D01*
G37*
G36*
X112457574Y-64453542D02*
X113277349Y-65027554D01*
X112933524Y-65518586D01*
X112113749Y-64944574D01*
X112457574Y-64453542D01*
X112457574Y-64453542D01*
G37*
G36*
X110180145Y-64021657D02*
X110999920Y-64595669D01*
X110656095Y-65086701D01*
X109836320Y-64512689D01*
X110180145Y-64021657D01*
X110180145Y-64021657D01*
G37*
G36*
X119153680Y-64482689D02*
X118333905Y-65056701D01*
X117990080Y-64565669D01*
X118809855Y-63991657D01*
X119153680Y-64482689D01*
X119153680Y-64482689D01*
G37*
G36*
X116876251Y-64914574D02*
X116056476Y-65488586D01*
X115712651Y-64997554D01*
X116532426Y-64423542D01*
X116876251Y-64914574D01*
X116876251Y-64914574D01*
G37*
G36*
X118061017Y-62922204D02*
X117241242Y-63496216D01*
X116897417Y-63005184D01*
X117717192Y-62431172D01*
X118061017Y-62922204D01*
X118061017Y-62922204D01*
G37*
D15*
X112010000Y-70962500D03*
X113010000Y-70962500D03*
X114010000Y-70962500D03*
X115010000Y-70962500D03*
X116010000Y-70962500D03*
X117010000Y-70962500D03*
D16*
X110710000Y-74837500D03*
X118310000Y-74837500D03*
D17*
X115675000Y-64275000D03*
X113225000Y-64400000D03*
X117000000Y-73525000D03*
X114850000Y-68475000D03*
D18*
X111100000Y-71500000D03*
X111100000Y-70500000D03*
D17*
X118930000Y-65260000D03*
X113725000Y-65400000D03*
X112675000Y-62700000D03*
X116500000Y-67275000D03*
D18*
X113000000Y-72500000D03*
X114000000Y-72500000D03*
D19*
X116294451Y-64956064D02*
X116294451Y-64894451D01*
X116294451Y-64894451D02*
X115675000Y-64275000D01*
X112695549Y-64986064D02*
X112695549Y-64929451D01*
X112695549Y-64929451D02*
X113225000Y-64400000D01*
X117010000Y-70962500D02*
X117010000Y-73515000D01*
X117010000Y-73515000D02*
X117000000Y-73525000D01*
X114000000Y-68520000D02*
X114805000Y-68520000D01*
X114805000Y-68520000D02*
X114850000Y-68475000D01*
X118930000Y-65260000D02*
X118930000Y-64882299D01*
X118930000Y-64882299D02*
X118571880Y-64524179D01*
X114000000Y-69720000D02*
X113225000Y-68945000D01*
X113225000Y-68945000D02*
X113225000Y-65900000D01*
X113225000Y-65900000D02*
X113725000Y-65400000D01*
X112675000Y-62700000D02*
X111804477Y-62700000D01*
X111804477Y-62700000D02*
X111510783Y-62993694D01*
X116950000Y-69275000D02*
X116500000Y-68825000D01*
X116500000Y-68825000D02*
X116500000Y-67275000D01*
X117750000Y-69275000D02*
X116950000Y-69275000D01*
D20*
X114010000Y-70962500D02*
X114010000Y-69730000D01*
X114010000Y-69730000D02*
X114000000Y-69720000D01*
D21*
X115750000Y-69275000D02*
X115750000Y-67210998D01*
X115750000Y-67210998D02*
X116350000Y-66610998D01*
X116350000Y-66610998D02*
X116350000Y-66135679D01*
X116350000Y-66135679D02*
X114064320Y-63849999D01*
X110704033Y-64268266D02*
X110418120Y-64554179D01*
X114064320Y-63849999D02*
X112839003Y-63849999D01*
X112839003Y-63849999D02*
X112485470Y-64203532D01*
X112485470Y-64203532D02*
X110768767Y-64203532D01*
X110768767Y-64203532D02*
X110704033Y-64268266D01*
X115010000Y-70962500D02*
X115010000Y-70015000D01*
X115010000Y-70015000D02*
X115750000Y-69275000D01*
X116010000Y-70962500D02*
X116010000Y-70437498D01*
X116010000Y-70437498D02*
X116622497Y-69825001D01*
X116622497Y-69825001D02*
X118349999Y-69825001D01*
X118349999Y-69825001D02*
X118900000Y-69275000D01*
X118900000Y-69275000D02*
X118950000Y-69275000D01*
X118950000Y-69275000D02*
X118950000Y-66152341D01*
X118950000Y-66152341D02*
X117479217Y-64681558D01*
X117479217Y-64681558D02*
X117479217Y-63429584D01*
X117479217Y-63429584D02*
X117479217Y-62963694D01*
D22*
G36*
X111521140Y-64683819D02*
X111466463Y-64930450D01*
X111510330Y-65179231D01*
X111646061Y-65392287D01*
X111852995Y-65537183D01*
X111925343Y-65587842D01*
X112146439Y-65548857D01*
X112518672Y-65017252D01*
X112502289Y-65005781D01*
X112647978Y-64797715D01*
X112664361Y-64809187D01*
X112675832Y-64792804D01*
X112883898Y-64938493D01*
X112872426Y-64954876D01*
X112888809Y-64966347D01*
X112743120Y-65174413D01*
X112726737Y-65162941D01*
X112354503Y-65694546D01*
X112393488Y-65915641D01*
X112465837Y-65966300D01*
X112672770Y-66111196D01*
X112748000Y-66127874D01*
X112748000Y-68517574D01*
X112150000Y-68517574D01*
X112047350Y-68536889D01*
X111953073Y-68597555D01*
X111899421Y-68676076D01*
X111852445Y-68603073D01*
X111759880Y-68539825D01*
X111650000Y-68517574D01*
X110950000Y-68517574D01*
X110847350Y-68536889D01*
X110753073Y-68597555D01*
X110689825Y-68690120D01*
X110667574Y-68800000D01*
X110667574Y-68843647D01*
X110661385Y-68851556D01*
X110589200Y-68979741D01*
X110571487Y-69017631D01*
X110396166Y-69480981D01*
X110383126Y-69527209D01*
X110325624Y-69829276D01*
X110320767Y-69877062D01*
X110298960Y-71381715D01*
X110299391Y-71401679D01*
X110306774Y-71529688D01*
X110308641Y-71549565D01*
X110337827Y-71773327D01*
X110347073Y-71816731D01*
X110372700Y-71902582D01*
X110411220Y-71982228D01*
X110462608Y-72055620D01*
X110524273Y-72119058D01*
X110596179Y-72172504D01*
X110674701Y-72213264D01*
X110759791Y-72241313D01*
X110847160Y-72255237D01*
X110936754Y-72255027D01*
X110980982Y-72251369D01*
X111159546Y-72222052D01*
X111242985Y-72222125D01*
X111298290Y-72199274D01*
X112326673Y-72030434D01*
X112261035Y-72249228D01*
X112254463Y-72275865D01*
X112220799Y-72448697D01*
X112215694Y-72503260D01*
X112216714Y-72679337D01*
X112218231Y-72706728D01*
X112224522Y-72766496D01*
X112234291Y-72815779D01*
X112261727Y-72908908D01*
X112306875Y-72998205D01*
X112365609Y-73075510D01*
X112439539Y-73142941D01*
X112521907Y-73194334D01*
X112614973Y-73231099D01*
X112710227Y-73249873D01*
X112760195Y-73255078D01*
X113946289Y-73270482D01*
X113999984Y-73265937D01*
X114192770Y-73230485D01*
X114292514Y-73191026D01*
X114457376Y-73084991D01*
X114534649Y-73010598D01*
X114590286Y-72930916D01*
X114611725Y-72909514D01*
X114621256Y-72886561D01*
X114646868Y-72849880D01*
X114690086Y-72751707D01*
X114705039Y-72684791D01*
X114721875Y-72644245D01*
X114721905Y-72609310D01*
X114732833Y-72560407D01*
X114739413Y-72506923D01*
X114740979Y-72444286D01*
X114738561Y-72400195D01*
X114720365Y-72265814D01*
X114694841Y-72181564D01*
X114635400Y-72059679D01*
X114584730Y-71987692D01*
X114583173Y-71986095D01*
X114600120Y-71997675D01*
X114710000Y-72019926D01*
X115310000Y-72019926D01*
X115412650Y-72000611D01*
X115506927Y-71939945D01*
X115509697Y-71935891D01*
X115600120Y-71997675D01*
X115710000Y-72019926D01*
X116139665Y-72019926D01*
X116171673Y-72097199D01*
X116350302Y-72275827D01*
X116583691Y-72372500D01*
X116724250Y-72372500D01*
X116883000Y-72213750D01*
X116883000Y-71089500D01*
X117137000Y-71089500D01*
X117137000Y-72213750D01*
X117295750Y-72372500D01*
X117436309Y-72372500D01*
X117669698Y-72275827D01*
X117848327Y-72097199D01*
X117945000Y-71863810D01*
X117945000Y-71248250D01*
X117786250Y-71089500D01*
X117137000Y-71089500D01*
X116883000Y-71089500D01*
X116863000Y-71089500D01*
X116863000Y-70835500D01*
X116883000Y-70835500D01*
X116883000Y-70815500D01*
X117137000Y-70815500D01*
X117137000Y-70835500D01*
X117786250Y-70835500D01*
X117945000Y-70676750D01*
X117945000Y-70202001D01*
X118349999Y-70202001D01*
X118494271Y-70173304D01*
X118616578Y-70091580D01*
X118850732Y-69857426D01*
X119300000Y-69857426D01*
X119402650Y-69838111D01*
X119496927Y-69777445D01*
X119560175Y-69684880D01*
X119582426Y-69575000D01*
X119582426Y-68975000D01*
X119563111Y-68872350D01*
X119502445Y-68778073D01*
X119409880Y-68714825D01*
X119327000Y-68698042D01*
X119327000Y-66152341D01*
X119298303Y-66008069D01*
X119216579Y-65885762D01*
X119131765Y-65800948D01*
X119256417Y-65749442D01*
X119418871Y-65587271D01*
X119506900Y-65375276D01*
X119507100Y-65145731D01*
X119419442Y-64933583D01*
X119407000Y-64921119D01*
X119407000Y-64882299D01*
X119374474Y-64718776D01*
X119861073Y-65862369D01*
X119973000Y-66945496D01*
X119973000Y-75673000D01*
X119192426Y-75673000D01*
X119192426Y-73937500D01*
X119173111Y-73834850D01*
X119112445Y-73740573D01*
X119019880Y-73677325D01*
X118910000Y-73655074D01*
X117710000Y-73655074D01*
X117607350Y-73674389D01*
X117513073Y-73735055D01*
X117449825Y-73827620D01*
X117427574Y-73937500D01*
X117427574Y-75673000D01*
X111592426Y-75673000D01*
X111592426Y-73937500D01*
X111573111Y-73834850D01*
X111512445Y-73740573D01*
X111419880Y-73677325D01*
X111310000Y-73655074D01*
X110110000Y-73655074D01*
X110007350Y-73674389D01*
X109913073Y-73735055D01*
X109849825Y-73827620D01*
X109827574Y-73937500D01*
X109827574Y-75673000D01*
X109027000Y-75673000D01*
X109027000Y-66960793D01*
X109130421Y-66440868D01*
X110123000Y-66440868D01*
X110123000Y-67499132D01*
X110198131Y-67876841D01*
X110412086Y-68197046D01*
X110732291Y-68411001D01*
X111110000Y-68486132D01*
X111487709Y-68411001D01*
X111807914Y-68197046D01*
X112021869Y-67876841D01*
X112097000Y-67499132D01*
X112097000Y-66440868D01*
X112021869Y-66063159D01*
X111807914Y-65742954D01*
X111487709Y-65528999D01*
X111110000Y-65453868D01*
X110732291Y-65528999D01*
X110412086Y-65742954D01*
X110198131Y-66063159D01*
X110123000Y-66440868D01*
X109130421Y-66440868D01*
X109435702Y-64906143D01*
X109597802Y-64663545D01*
X109674327Y-64744039D01*
X110494102Y-65318051D01*
X110589266Y-65361106D01*
X110701290Y-65365487D01*
X110806193Y-65325939D01*
X110887445Y-65248694D01*
X111231270Y-64757662D01*
X111274326Y-64662497D01*
X111277531Y-64580532D01*
X111593462Y-64580532D01*
X111521140Y-64683819D01*
X111521140Y-64683819D01*
G37*
X111521140Y-64683819D02*
X111466463Y-64930450D01*
X111510330Y-65179231D01*
X111646061Y-65392287D01*
X111852995Y-65537183D01*
X111925343Y-65587842D01*
X112146439Y-65548857D01*
X112518672Y-65017252D01*
X112502289Y-65005781D01*
X112647978Y-64797715D01*
X112664361Y-64809187D01*
X112675832Y-64792804D01*
X112883898Y-64938493D01*
X112872426Y-64954876D01*
X112888809Y-64966347D01*
X112743120Y-65174413D01*
X112726737Y-65162941D01*
X112354503Y-65694546D01*
X112393488Y-65915641D01*
X112465837Y-65966300D01*
X112672770Y-66111196D01*
X112748000Y-66127874D01*
X112748000Y-68517574D01*
X112150000Y-68517574D01*
X112047350Y-68536889D01*
X111953073Y-68597555D01*
X111899421Y-68676076D01*
X111852445Y-68603073D01*
X111759880Y-68539825D01*
X111650000Y-68517574D01*
X110950000Y-68517574D01*
X110847350Y-68536889D01*
X110753073Y-68597555D01*
X110689825Y-68690120D01*
X110667574Y-68800000D01*
X110667574Y-68843647D01*
X110661385Y-68851556D01*
X110589200Y-68979741D01*
X110571487Y-69017631D01*
X110396166Y-69480981D01*
X110383126Y-69527209D01*
X110325624Y-69829276D01*
X110320767Y-69877062D01*
X110298960Y-71381715D01*
X110299391Y-71401679D01*
X110306774Y-71529688D01*
X110308641Y-71549565D01*
X110337827Y-71773327D01*
X110347073Y-71816731D01*
X110372700Y-71902582D01*
X110411220Y-71982228D01*
X110462608Y-72055620D01*
X110524273Y-72119058D01*
X110596179Y-72172504D01*
X110674701Y-72213264D01*
X110759791Y-72241313D01*
X110847160Y-72255237D01*
X110936754Y-72255027D01*
X110980982Y-72251369D01*
X111159546Y-72222052D01*
X111242985Y-72222125D01*
X111298290Y-72199274D01*
X112326673Y-72030434D01*
X112261035Y-72249228D01*
X112254463Y-72275865D01*
X112220799Y-72448697D01*
X112215694Y-72503260D01*
X112216714Y-72679337D01*
X112218231Y-72706728D01*
X112224522Y-72766496D01*
X112234291Y-72815779D01*
X112261727Y-72908908D01*
X112306875Y-72998205D01*
X112365609Y-73075510D01*
X112439539Y-73142941D01*
X112521907Y-73194334D01*
X112614973Y-73231099D01*
X112710227Y-73249873D01*
X112760195Y-73255078D01*
X113946289Y-73270482D01*
X113999984Y-73265937D01*
X114192770Y-73230485D01*
X114292514Y-73191026D01*
X114457376Y-73084991D01*
X114534649Y-73010598D01*
X114590286Y-72930916D01*
X114611725Y-72909514D01*
X114621256Y-72886561D01*
X114646868Y-72849880D01*
X114690086Y-72751707D01*
X114705039Y-72684791D01*
X114721875Y-72644245D01*
X114721905Y-72609310D01*
X114732833Y-72560407D01*
X114739413Y-72506923D01*
X114740979Y-72444286D01*
X114738561Y-72400195D01*
X114720365Y-72265814D01*
X114694841Y-72181564D01*
X114635400Y-72059679D01*
X114584730Y-71987692D01*
X114583173Y-71986095D01*
X114600120Y-71997675D01*
X114710000Y-72019926D01*
X115310000Y-72019926D01*
X115412650Y-72000611D01*
X115506927Y-71939945D01*
X115509697Y-71935891D01*
X115600120Y-71997675D01*
X115710000Y-72019926D01*
X116139665Y-72019926D01*
X116171673Y-72097199D01*
X116350302Y-72275827D01*
X116583691Y-72372500D01*
X116724250Y-72372500D01*
X116883000Y-72213750D01*
X116883000Y-71089500D01*
X117137000Y-71089500D01*
X117137000Y-72213750D01*
X117295750Y-72372500D01*
X117436309Y-72372500D01*
X117669698Y-72275827D01*
X117848327Y-72097199D01*
X117945000Y-71863810D01*
X117945000Y-71248250D01*
X117786250Y-71089500D01*
X117137000Y-71089500D01*
X116883000Y-71089500D01*
X116863000Y-71089500D01*
X116863000Y-70835500D01*
X116883000Y-70835500D01*
X116883000Y-70815500D01*
X117137000Y-70815500D01*
X117137000Y-70835500D01*
X117786250Y-70835500D01*
X117945000Y-70676750D01*
X117945000Y-70202001D01*
X118349999Y-70202001D01*
X118494271Y-70173304D01*
X118616578Y-70091580D01*
X118850732Y-69857426D01*
X119300000Y-69857426D01*
X119402650Y-69838111D01*
X119496927Y-69777445D01*
X119560175Y-69684880D01*
X119582426Y-69575000D01*
X119582426Y-68975000D01*
X119563111Y-68872350D01*
X119502445Y-68778073D01*
X119409880Y-68714825D01*
X119327000Y-68698042D01*
X119327000Y-66152341D01*
X119298303Y-66008069D01*
X119216579Y-65885762D01*
X119131765Y-65800948D01*
X119256417Y-65749442D01*
X119418871Y-65587271D01*
X119506900Y-65375276D01*
X119507100Y-65145731D01*
X119419442Y-64933583D01*
X119407000Y-64921119D01*
X119407000Y-64882299D01*
X119374474Y-64718776D01*
X119861073Y-65862369D01*
X119973000Y-66945496D01*
X119973000Y-75673000D01*
X119192426Y-75673000D01*
X119192426Y-73937500D01*
X119173111Y-73834850D01*
X119112445Y-73740573D01*
X119019880Y-73677325D01*
X118910000Y-73655074D01*
X117710000Y-73655074D01*
X117607350Y-73674389D01*
X117513073Y-73735055D01*
X117449825Y-73827620D01*
X117427574Y-73937500D01*
X117427574Y-75673000D01*
X111592426Y-75673000D01*
X111592426Y-73937500D01*
X111573111Y-73834850D01*
X111512445Y-73740573D01*
X111419880Y-73677325D01*
X111310000Y-73655074D01*
X110110000Y-73655074D01*
X110007350Y-73674389D01*
X109913073Y-73735055D01*
X109849825Y-73827620D01*
X109827574Y-73937500D01*
X109827574Y-75673000D01*
X109027000Y-75673000D01*
X109027000Y-66960793D01*
X109130421Y-66440868D01*
X110123000Y-66440868D01*
X110123000Y-67499132D01*
X110198131Y-67876841D01*
X110412086Y-68197046D01*
X110732291Y-68411001D01*
X111110000Y-68486132D01*
X111487709Y-68411001D01*
X111807914Y-68197046D01*
X112021869Y-67876841D01*
X112097000Y-67499132D01*
X112097000Y-66440868D01*
X112021869Y-66063159D01*
X111807914Y-65742954D01*
X111487709Y-65528999D01*
X111110000Y-65453868D01*
X110732291Y-65528999D01*
X110412086Y-65742954D01*
X110198131Y-66063159D01*
X110123000Y-66440868D01*
X109130421Y-66440868D01*
X109435702Y-64906143D01*
X109597802Y-64663545D01*
X109674327Y-64744039D01*
X110494102Y-65318051D01*
X110589266Y-65361106D01*
X110701290Y-65365487D01*
X110806193Y-65325939D01*
X110887445Y-65248694D01*
X111231270Y-64757662D01*
X111274326Y-64662497D01*
X111277531Y-64580532D01*
X111593462Y-64580532D01*
X111521140Y-64683819D01*
G36*
X115373000Y-68697654D02*
X115297350Y-68711889D01*
X115203073Y-68772555D01*
X115139825Y-68865120D01*
X115117574Y-68975000D01*
X115117574Y-69374268D01*
X114743421Y-69748421D01*
X114661697Y-69870728D01*
X114652721Y-69915852D01*
X114607350Y-69924389D01*
X114587000Y-69937484D01*
X114587000Y-69730000D01*
X114582426Y-69707005D01*
X114582426Y-69440335D01*
X114659699Y-69408327D01*
X114838327Y-69229698D01*
X114935000Y-68996309D01*
X114935000Y-68805750D01*
X114776250Y-68647000D01*
X114127000Y-68647000D01*
X114127000Y-68667000D01*
X113873000Y-68667000D01*
X113873000Y-68647000D01*
X113853000Y-68647000D01*
X113853000Y-68393000D01*
X113873000Y-68393000D01*
X113873000Y-68373000D01*
X114127000Y-68373000D01*
X114127000Y-68393000D01*
X114776250Y-68393000D01*
X114935000Y-68234250D01*
X114935000Y-68043691D01*
X114928722Y-68028534D01*
X115127760Y-67946293D01*
X115373000Y-67701481D01*
X115373000Y-68697654D01*
X115373000Y-68697654D01*
G37*
X115373000Y-68697654D02*
X115297350Y-68711889D01*
X115203073Y-68772555D01*
X115139825Y-68865120D01*
X115117574Y-68975000D01*
X115117574Y-69374268D01*
X114743421Y-69748421D01*
X114661697Y-69870728D01*
X114652721Y-69915852D01*
X114607350Y-69924389D01*
X114587000Y-69937484D01*
X114587000Y-69730000D01*
X114582426Y-69707005D01*
X114582426Y-69440335D01*
X114659699Y-69408327D01*
X114838327Y-69229698D01*
X114935000Y-68996309D01*
X114935000Y-68805750D01*
X114776250Y-68647000D01*
X114127000Y-68647000D01*
X114127000Y-68667000D01*
X113873000Y-68667000D01*
X113873000Y-68647000D01*
X113853000Y-68647000D01*
X113853000Y-68393000D01*
X113873000Y-68393000D01*
X113873000Y-68373000D01*
X114127000Y-68373000D01*
X114127000Y-68393000D01*
X114776250Y-68393000D01*
X114935000Y-68234250D01*
X114935000Y-68043691D01*
X114928722Y-68028534D01*
X115127760Y-67946293D01*
X115373000Y-67701481D01*
X115373000Y-68697654D01*
G36*
X116735424Y-62773834D02*
X116662417Y-62848534D01*
X116619986Y-62952304D01*
X116621270Y-63064406D01*
X116666067Y-63167177D01*
X117009892Y-63658209D01*
X117084591Y-63731216D01*
X117102217Y-63738423D01*
X117102217Y-64235419D01*
X117021616Y-64291857D01*
X117060600Y-64070764D01*
X116980140Y-63955854D01*
X116767083Y-63820123D01*
X116518302Y-63776255D01*
X116271672Y-63830932D01*
X116064739Y-63975828D01*
X115992390Y-64026487D01*
X115953405Y-64247582D01*
X116325639Y-64779187D01*
X116342022Y-64767715D01*
X116487711Y-64975781D01*
X116471328Y-64987252D01*
X116843561Y-65518857D01*
X117064657Y-65557842D01*
X117137005Y-65507183D01*
X117343939Y-65362287D01*
X117454010Y-65189509D01*
X117750163Y-65485662D01*
X117532291Y-65528999D01*
X117212086Y-65742954D01*
X116998131Y-66063159D01*
X116923000Y-66440868D01*
X116923000Y-66882025D01*
X116827271Y-66786129D01*
X116702473Y-66734308D01*
X116727000Y-66610998D01*
X116727000Y-66135679D01*
X116698303Y-65991407D01*
X116647677Y-65915641D01*
X116616580Y-65869100D01*
X116602000Y-65854520D01*
X116635497Y-65664546D01*
X116263263Y-65132941D01*
X116246880Y-65144412D01*
X116101191Y-64936347D01*
X116117574Y-64924876D01*
X115745341Y-64393271D01*
X115524245Y-64354286D01*
X115451897Y-64404945D01*
X115275758Y-64528278D01*
X114330899Y-63583420D01*
X114208592Y-63501696D01*
X114064320Y-63472999D01*
X112839003Y-63472999D01*
X112694731Y-63501696D01*
X112572424Y-63583420D01*
X112329312Y-63826532D01*
X110768767Y-63826532D01*
X110624495Y-63855229D01*
X110571645Y-63890543D01*
X110527457Y-63920069D01*
X110342138Y-63790307D01*
X110246974Y-63747252D01*
X110210995Y-63745845D01*
X110590080Y-63178509D01*
X110688363Y-63098637D01*
X110689745Y-63102303D01*
X110766990Y-63183554D01*
X111586765Y-63757566D01*
X111681929Y-63800621D01*
X111793953Y-63805002D01*
X111898856Y-63765454D01*
X111980108Y-63688209D01*
X112323933Y-63197177D01*
X112333062Y-63177000D01*
X112335879Y-63177000D01*
X112347729Y-63188871D01*
X112559724Y-63276900D01*
X112789269Y-63277100D01*
X113001417Y-63189442D01*
X113163871Y-63027271D01*
X113251900Y-62815276D01*
X113252100Y-62585731D01*
X113238623Y-62553114D01*
X117050645Y-62553114D01*
X116735424Y-62773834D01*
X116735424Y-62773834D01*
G37*
X116735424Y-62773834D02*
X116662417Y-62848534D01*
X116619986Y-62952304D01*
X116621270Y-63064406D01*
X116666067Y-63167177D01*
X117009892Y-63658209D01*
X117084591Y-63731216D01*
X117102217Y-63738423D01*
X117102217Y-64235419D01*
X117021616Y-64291857D01*
X117060600Y-64070764D01*
X116980140Y-63955854D01*
X116767083Y-63820123D01*
X116518302Y-63776255D01*
X116271672Y-63830932D01*
X116064739Y-63975828D01*
X115992390Y-64026487D01*
X115953405Y-64247582D01*
X116325639Y-64779187D01*
X116342022Y-64767715D01*
X116487711Y-64975781D01*
X116471328Y-64987252D01*
X116843561Y-65518857D01*
X117064657Y-65557842D01*
X117137005Y-65507183D01*
X117343939Y-65362287D01*
X117454010Y-65189509D01*
X117750163Y-65485662D01*
X117532291Y-65528999D01*
X117212086Y-65742954D01*
X116998131Y-66063159D01*
X116923000Y-66440868D01*
X116923000Y-66882025D01*
X116827271Y-66786129D01*
X116702473Y-66734308D01*
X116727000Y-66610998D01*
X116727000Y-66135679D01*
X116698303Y-65991407D01*
X116647677Y-65915641D01*
X116616580Y-65869100D01*
X116602000Y-65854520D01*
X116635497Y-65664546D01*
X116263263Y-65132941D01*
X116246880Y-65144412D01*
X116101191Y-64936347D01*
X116117574Y-64924876D01*
X115745341Y-64393271D01*
X115524245Y-64354286D01*
X115451897Y-64404945D01*
X115275758Y-64528278D01*
X114330899Y-63583420D01*
X114208592Y-63501696D01*
X114064320Y-63472999D01*
X112839003Y-63472999D01*
X112694731Y-63501696D01*
X112572424Y-63583420D01*
X112329312Y-63826532D01*
X110768767Y-63826532D01*
X110624495Y-63855229D01*
X110571645Y-63890543D01*
X110527457Y-63920069D01*
X110342138Y-63790307D01*
X110246974Y-63747252D01*
X110210995Y-63745845D01*
X110590080Y-63178509D01*
X110688363Y-63098637D01*
X110689745Y-63102303D01*
X110766990Y-63183554D01*
X111586765Y-63757566D01*
X111681929Y-63800621D01*
X111793953Y-63805002D01*
X111898856Y-63765454D01*
X111980108Y-63688209D01*
X112323933Y-63197177D01*
X112333062Y-63177000D01*
X112335879Y-63177000D01*
X112347729Y-63188871D01*
X112559724Y-63276900D01*
X112789269Y-63277100D01*
X113001417Y-63189442D01*
X113163871Y-63027271D01*
X113251900Y-62815276D01*
X113252100Y-62585731D01*
X113238623Y-62553114D01*
X117050645Y-62553114D01*
X116735424Y-62773834D01*
G36*
X111405686Y-68940565D02*
X111452892Y-68972108D01*
X111484435Y-69019314D01*
X111500084Y-69097987D01*
X111543764Y-69355870D01*
X111557733Y-69395922D01*
X111684770Y-69626616D01*
X111696563Y-69644334D01*
X112000872Y-70027538D01*
X112128733Y-70259730D01*
X112173000Y-70521081D01*
X112173000Y-71646255D01*
X110925605Y-71851052D01*
X110866758Y-71851190D01*
X110820693Y-71836005D01*
X110781764Y-71807070D01*
X110753944Y-71767339D01*
X110737113Y-71710952D01*
X110709839Y-71501853D01*
X110702984Y-71382998D01*
X110724565Y-69893968D01*
X110777934Y-69613612D01*
X110945939Y-69169597D01*
X111003915Y-69066644D01*
X111082834Y-68992283D01*
X111180307Y-68944789D01*
X111297113Y-68927000D01*
X111337491Y-68927000D01*
X111405686Y-68940565D01*
X111405686Y-68940565D01*
G37*
X111405686Y-68940565D02*
X111452892Y-68972108D01*
X111484435Y-69019314D01*
X111500084Y-69097987D01*
X111543764Y-69355870D01*
X111557733Y-69395922D01*
X111684770Y-69626616D01*
X111696563Y-69644334D01*
X112000872Y-70027538D01*
X112128733Y-70259730D01*
X112173000Y-70521081D01*
X112173000Y-71646255D01*
X110925605Y-71851052D01*
X110866758Y-71851190D01*
X110820693Y-71836005D01*
X110781764Y-71807070D01*
X110753944Y-71767339D01*
X110737113Y-71710952D01*
X110709839Y-71501853D01*
X110702984Y-71382998D01*
X110724565Y-69893968D01*
X110777934Y-69613612D01*
X110945939Y-69169597D01*
X111003915Y-69066644D01*
X111082834Y-68992283D01*
X111180307Y-68944789D01*
X111297113Y-68927000D01*
X111337491Y-68927000D01*
X111405686Y-68940565D01*
G36*
X112609287Y-68945857D02*
X112707909Y-68996009D01*
X112770579Y-69058513D01*
X112784309Y-69127540D01*
X112861254Y-69242696D01*
X113132022Y-70070044D01*
X113173000Y-70326995D01*
X113173000Y-71554744D01*
X113174351Y-71573222D01*
X113192000Y-71693236D01*
X113202639Y-71728625D01*
X113254091Y-71838478D01*
X113274468Y-71869308D01*
X113355367Y-71959697D01*
X113386780Y-71985146D01*
X113548442Y-72077934D01*
X113589715Y-72092877D01*
X113773309Y-72125089D01*
X113795256Y-72127000D01*
X114027348Y-72127000D01*
X114131022Y-72143686D01*
X114215100Y-72187323D01*
X114281240Y-72255138D01*
X114322760Y-72340276D01*
X114336852Y-72444346D01*
X114335850Y-72484417D01*
X114301276Y-72639143D01*
X114217753Y-72758763D01*
X114095054Y-72837680D01*
X113939121Y-72866355D01*
X112777006Y-72851262D01*
X112715979Y-72839234D01*
X112673185Y-72812533D01*
X112642668Y-72772366D01*
X112625092Y-72712706D01*
X112620671Y-72670704D01*
X112619760Y-72513542D01*
X112649806Y-72359287D01*
X112784109Y-71911608D01*
X112788119Y-71893557D01*
X112825654Y-71637818D01*
X112827000Y-71619376D01*
X112827000Y-70458714D01*
X112825491Y-70439196D01*
X112783448Y-70168884D01*
X112771592Y-70131691D01*
X112649436Y-69886918D01*
X112639370Y-69870128D01*
X112423452Y-69565879D01*
X112314498Y-69347560D01*
X112277527Y-69109859D01*
X112292467Y-69034749D01*
X112329430Y-68979430D01*
X112384749Y-68942467D01*
X112462509Y-68927000D01*
X112490020Y-68927000D01*
X112609287Y-68945857D01*
X112609287Y-68945857D01*
G37*
X112609287Y-68945857D02*
X112707909Y-68996009D01*
X112770579Y-69058513D01*
X112784309Y-69127540D01*
X112861254Y-69242696D01*
X113132022Y-70070044D01*
X113173000Y-70326995D01*
X113173000Y-71554744D01*
X113174351Y-71573222D01*
X113192000Y-71693236D01*
X113202639Y-71728625D01*
X113254091Y-71838478D01*
X113274468Y-71869308D01*
X113355367Y-71959697D01*
X113386780Y-71985146D01*
X113548442Y-72077934D01*
X113589715Y-72092877D01*
X113773309Y-72125089D01*
X113795256Y-72127000D01*
X114027348Y-72127000D01*
X114131022Y-72143686D01*
X114215100Y-72187323D01*
X114281240Y-72255138D01*
X114322760Y-72340276D01*
X114336852Y-72444346D01*
X114335850Y-72484417D01*
X114301276Y-72639143D01*
X114217753Y-72758763D01*
X114095054Y-72837680D01*
X113939121Y-72866355D01*
X112777006Y-72851262D01*
X112715979Y-72839234D01*
X112673185Y-72812533D01*
X112642668Y-72772366D01*
X112625092Y-72712706D01*
X112620671Y-72670704D01*
X112619760Y-72513542D01*
X112649806Y-72359287D01*
X112784109Y-71911608D01*
X112788119Y-71893557D01*
X112825654Y-71637818D01*
X112827000Y-71619376D01*
X112827000Y-70458714D01*
X112825491Y-70439196D01*
X112783448Y-70168884D01*
X112771592Y-70131691D01*
X112649436Y-69886918D01*
X112639370Y-69870128D01*
X112423452Y-69565879D01*
X112314498Y-69347560D01*
X112277527Y-69109859D01*
X112292467Y-69034749D01*
X112329430Y-68979430D01*
X112384749Y-68942467D01*
X112462509Y-68927000D01*
X112490020Y-68927000D01*
X112609287Y-68945857D01*
M02*
