G04 #@! TF.FileFunction,Soldermask,Top*
%FSLAX46Y46*%
G04 Gerber Fmt 4.6, Leading zero omitted, Abs format (unit mm)*
G04 Created by KiCad (PCBNEW 4.0.4-stable) date 08/26/17 16:23:53*
%MOMM*%
%LPD*%
G01*
G04 APERTURE LIST*
%ADD10C,0.100000*%
%ADD11O,1.420000X2.420000*%
%ADD12C,1.630000*%
%ADD13R,0.700000X0.600000*%
%ADD14R,0.600000X0.700000*%
%ADD15R,0.600000X1.550000*%
%ADD16R,1.200000X1.800000*%
G04 APERTURE END LIST*
D10*
D11*
X111110000Y-66970000D03*
D12*
X114510000Y-67020000D03*
D11*
X117910000Y-66970000D03*
D13*
X111300000Y-69100000D03*
X112500000Y-69100000D03*
D14*
X114000000Y-69720000D03*
X114000000Y-68520000D03*
D13*
X115750000Y-69275000D03*
X116950000Y-69275000D03*
X118950000Y-69275000D03*
X117750000Y-69275000D03*
D10*
G36*
X111272808Y-62461172D02*
X112092583Y-63035184D01*
X111748758Y-63526216D01*
X110928983Y-62952204D01*
X111272808Y-62461172D01*
X111272808Y-62461172D01*
G37*
G36*
X112457574Y-64453542D02*
X113277349Y-65027554D01*
X112933524Y-65518586D01*
X112113749Y-64944574D01*
X112457574Y-64453542D01*
X112457574Y-64453542D01*
G37*
G36*
X110180145Y-64021657D02*
X110999920Y-64595669D01*
X110656095Y-65086701D01*
X109836320Y-64512689D01*
X110180145Y-64021657D01*
X110180145Y-64021657D01*
G37*
G36*
X119153680Y-64482689D02*
X118333905Y-65056701D01*
X117990080Y-64565669D01*
X118809855Y-63991657D01*
X119153680Y-64482689D01*
X119153680Y-64482689D01*
G37*
G36*
X116876251Y-64914574D02*
X116056476Y-65488586D01*
X115712651Y-64997554D01*
X116532426Y-64423542D01*
X116876251Y-64914574D01*
X116876251Y-64914574D01*
G37*
G36*
X118061017Y-62922204D02*
X117241242Y-63496216D01*
X116897417Y-63005184D01*
X117717192Y-62431172D01*
X118061017Y-62922204D01*
X118061017Y-62922204D01*
G37*
D15*
X112010000Y-70962500D03*
X113010000Y-70962500D03*
X114010000Y-70962500D03*
X115010000Y-70962500D03*
X116010000Y-70962500D03*
X117010000Y-70962500D03*
D16*
X110710000Y-74837500D03*
X118310000Y-74837500D03*
M02*
