G75*
%MOIN*%
%OFA0B0*%
%FSLAX25Y25*%
%IPPOS*%
%LPD*%
%AMOC8*
5,1,8,0,0,1.08239X$1,22.5*
%
%ADD10C,0.07400*%
%ADD11C,0.05700*%
%ADD12R,0.07400X0.07400*%
%ADD13OC8,0.11811*%
%ADD14C,0.07400*%
%ADD15R,0.06102X0.02362*%
%ADD16R,0.07087X0.04724*%
%ADD17OC8,0.07400*%
%ADD18C,0.02581*%
%ADD19R,0.06299X0.02756*%
%ADD20C,0.01181*%
%ADD21C,0.03100*%
%ADD22C,0.01200*%
%ADD23C,0.01575*%
%ADD24C,0.01000*%
%ADD25C,0.02362*%
%ADD26C,0.05600*%
%ADD27C,0.05000*%
%ADD28C,0.01600*%
%ADD29OC8,0.03100*%
%ADD30C,0.00787*%
D10*
X0013402Y0179780D03*
X0013402Y0189780D03*
X0013402Y0199780D03*
X0181118Y0132299D03*
X0181118Y0122299D03*
X0182791Y0285252D03*
D11*
X0027181Y0271276D03*
X0027181Y0263402D03*
D12*
X0025213Y0288992D03*
X0035055Y0288992D03*
X0044898Y0288992D03*
X0086236Y0269307D03*
X0096079Y0269307D03*
X0105921Y0269307D03*
X0145291Y0288992D03*
X0155134Y0288992D03*
X0164976Y0288992D03*
X0025882Y0097102D03*
D13*
X0078756Y0296866D03*
X0052378Y0316551D03*
X0017732Y0316551D03*
X0113402Y0296866D03*
X0137811Y0316551D03*
X0172457Y0316551D03*
D14*
X0115764Y0064346D02*
X0115764Y0056946D01*
X0105764Y0056946D02*
X0105764Y0064346D01*
X0080488Y0064346D02*
X0080488Y0056946D01*
X0070488Y0056946D02*
X0070488Y0064346D01*
D15*
X0041866Y0078520D03*
X0041866Y0082457D03*
X0041866Y0086394D03*
X0041866Y0090331D03*
X0041866Y0094268D03*
X0041866Y0098205D03*
X0142260Y0098205D03*
X0142260Y0094268D03*
X0142260Y0090331D03*
X0142260Y0086394D03*
X0142260Y0082457D03*
X0142260Y0078520D03*
D16*
X0151020Y0073402D03*
X0151020Y0103323D03*
X0050626Y0103323D03*
X0050626Y0073402D03*
D17*
X0025882Y0107102D03*
X0025882Y0117102D03*
X0015882Y0117102D03*
X0015882Y0107102D03*
X0015882Y0097102D03*
D18*
X0094504Y0110252D03*
X0097260Y0110252D03*
X0100016Y0110252D03*
D19*
X0097260Y0110252D03*
D20*
X0003681Y0003681D02*
X0003681Y0338083D01*
X0188476Y0338083D01*
X0188476Y0003681D01*
X0147441Y0003681D01*
X0160289Y0016529D01*
X0161455Y0017695D01*
X0161455Y0049709D01*
X0161651Y0049235D01*
X0163408Y0047478D01*
X0165703Y0046528D01*
X0168187Y0046528D01*
X0170482Y0047478D01*
X0172238Y0049235D01*
X0173189Y0051530D01*
X0173189Y0054014D01*
X0172238Y0056309D01*
X0170482Y0058065D01*
X0168187Y0059016D01*
X0165703Y0059016D01*
X0163408Y0058065D01*
X0161651Y0056309D01*
X0161455Y0055835D01*
X0161455Y0070919D01*
X0161443Y0070932D01*
X0161443Y0079575D01*
X0161246Y0079772D01*
X0161246Y0087958D01*
X0181943Y0108655D01*
X0183109Y0109821D01*
X0183109Y0117830D01*
X0183888Y0118153D01*
X0185264Y0119529D01*
X0186009Y0121326D01*
X0186009Y0123272D01*
X0185264Y0125069D01*
X0183888Y0126445D01*
X0182091Y0127190D01*
X0180145Y0127190D01*
X0178348Y0126445D01*
X0176972Y0125069D01*
X0176228Y0123272D01*
X0176228Y0121326D01*
X0176972Y0119529D01*
X0178348Y0118153D01*
X0179128Y0117830D01*
X0179128Y0111470D01*
X0157277Y0089620D01*
X0157277Y0087971D01*
X0157290Y0087958D01*
X0157290Y0083728D01*
X0152646Y0088372D01*
X0146217Y0088372D01*
X0146502Y0088656D01*
X0146502Y0092005D01*
X0146207Y0092299D01*
X0146502Y0092593D01*
X0146502Y0095942D01*
X0146490Y0095953D01*
X0146584Y0096047D01*
X0146793Y0096410D01*
X0146902Y0096814D01*
X0146902Y0098205D01*
X0146902Y0099595D01*
X0146808Y0099946D01*
X0146983Y0099770D01*
X0155056Y0099770D01*
X0155754Y0100467D01*
X0155754Y0106178D01*
X0155056Y0106876D01*
X0146983Y0106876D01*
X0146286Y0106178D01*
X0146286Y0100660D01*
X0145925Y0100868D01*
X0145520Y0100976D01*
X0142260Y0100976D01*
X0142260Y0098205D01*
X0142260Y0098205D01*
X0146902Y0098205D01*
X0142260Y0098205D01*
X0142260Y0098205D01*
X0142260Y0100976D01*
X0138999Y0100976D01*
X0138595Y0100868D01*
X0138232Y0100659D01*
X0137936Y0100362D01*
X0137727Y0100000D01*
X0137618Y0099595D01*
X0137618Y0098205D01*
X0142260Y0098205D01*
X0142260Y0098205D01*
X0137618Y0098205D01*
X0137618Y0096814D01*
X0137727Y0096410D01*
X0137936Y0096047D01*
X0138030Y0095953D01*
X0138018Y0095942D01*
X0138018Y0095891D01*
X0123194Y0095891D01*
X0117545Y0101541D01*
X0116502Y0102584D01*
X0091305Y0102584D01*
X0081718Y0112171D01*
X0081718Y0131923D01*
X0081558Y0132084D01*
X0081487Y0132253D01*
X0081487Y0132480D01*
X0081327Y0132641D01*
X0081015Y0132953D01*
X0080918Y0133050D01*
X0080444Y0133524D01*
X0077166Y0136802D01*
X0077166Y0137569D01*
X0076749Y0138576D01*
X0075978Y0139347D01*
X0074970Y0139764D01*
X0073880Y0139764D01*
X0072873Y0139347D01*
X0072102Y0138576D01*
X0071685Y0137569D01*
X0071685Y0136478D01*
X0072102Y0135471D01*
X0072365Y0135208D01*
X0071821Y0135433D01*
X0070730Y0135433D01*
X0069723Y0135016D01*
X0068952Y0134245D01*
X0068535Y0133238D01*
X0068535Y0132148D01*
X0068952Y0131141D01*
X0069723Y0130370D01*
X0070730Y0129952D01*
X0071497Y0129952D01*
X0075991Y0125459D01*
X0075991Y0108727D01*
X0077034Y0107683D01*
X0087177Y0097540D01*
X0087660Y0097058D01*
X0087722Y0096995D01*
X0088060Y0096657D01*
X0088060Y0096657D01*
X0088060Y0096657D01*
X0088221Y0096497D01*
X0088447Y0096497D01*
X0088617Y0096427D01*
X0088777Y0096266D01*
X0113451Y0096266D01*
X0120124Y0089593D01*
X0121168Y0088550D01*
X0138125Y0088550D01*
X0138312Y0088362D01*
X0138018Y0088068D01*
X0138018Y0084828D01*
X0133049Y0084828D01*
X0125018Y0076797D01*
X0123628Y0075408D01*
X0123628Y0071864D01*
X0119395Y0067631D01*
X0118534Y0068492D01*
X0116737Y0069236D01*
X0114791Y0069236D01*
X0112994Y0068492D01*
X0111618Y0067116D01*
X0110873Y0065318D01*
X0110873Y0055973D01*
X0111618Y0054175D01*
X0112994Y0052800D01*
X0114791Y0052055D01*
X0116737Y0052055D01*
X0118534Y0052800D01*
X0119910Y0054175D01*
X0120654Y0055973D01*
X0120654Y0062182D01*
X0128372Y0069900D01*
X0128372Y0073443D01*
X0129140Y0074211D01*
X0129140Y0062022D01*
X0119112Y0051994D01*
X0113203Y0051994D01*
X0110235Y0054961D01*
X0110654Y0055973D01*
X0110654Y0065318D01*
X0109910Y0067116D01*
X0108534Y0068492D01*
X0106737Y0069236D01*
X0104791Y0069236D01*
X0102994Y0068492D01*
X0101618Y0067116D01*
X0100873Y0065318D01*
X0100873Y0055973D01*
X0101618Y0054175D01*
X0102994Y0052800D01*
X0104791Y0052055D01*
X0106433Y0052055D01*
X0111238Y0047250D01*
X0121077Y0047250D01*
X0122466Y0048640D01*
X0133883Y0060057D01*
X0133883Y0072655D01*
X0137376Y0076148D01*
X0145804Y0076148D01*
X0146502Y0076845D01*
X0146502Y0080194D01*
X0146207Y0080488D01*
X0146502Y0080782D01*
X0146502Y0084131D01*
X0146217Y0084416D01*
X0151007Y0084416D01*
X0157290Y0078133D01*
X0157487Y0077937D01*
X0157487Y0070932D01*
X0157474Y0070919D01*
X0157474Y0019344D01*
X0144073Y0005943D01*
X0048084Y0005943D01*
X0039802Y0014226D01*
X0039802Y0066195D01*
X0038636Y0067361D01*
X0032702Y0073294D01*
X0032702Y0083945D01*
X0033048Y0084290D01*
X0033100Y0084416D01*
X0037909Y0084416D01*
X0037624Y0084131D01*
X0037624Y0080782D01*
X0037919Y0080488D01*
X0037624Y0080194D01*
X0037624Y0076845D01*
X0038322Y0076148D01*
X0045892Y0076148D01*
X0045892Y0070546D01*
X0046590Y0069849D01*
X0054662Y0069849D01*
X0055360Y0070546D01*
X0055360Y0076148D01*
X0055962Y0076148D01*
X0059849Y0072262D01*
X0059849Y0053364D01*
X0061238Y0051975D01*
X0067144Y0046069D01*
X0073439Y0046069D01*
X0074828Y0047459D01*
X0079451Y0052082D01*
X0079515Y0052055D01*
X0081461Y0052055D01*
X0083258Y0052800D01*
X0084634Y0054175D01*
X0085379Y0055973D01*
X0085379Y0065318D01*
X0084634Y0067116D01*
X0083258Y0068492D01*
X0081461Y0069236D01*
X0079515Y0069236D01*
X0077718Y0068492D01*
X0076342Y0067116D01*
X0075598Y0065318D01*
X0075598Y0055973D01*
X0075901Y0055240D01*
X0071474Y0050813D01*
X0069108Y0050813D01*
X0064592Y0055329D01*
X0064592Y0073424D01*
X0068473Y0069543D01*
X0068473Y0068804D01*
X0067718Y0068492D01*
X0066342Y0067116D01*
X0065598Y0065318D01*
X0065598Y0055973D01*
X0066342Y0054175D01*
X0067718Y0052800D01*
X0069515Y0052055D01*
X0071461Y0052055D01*
X0073258Y0052800D01*
X0074634Y0054175D01*
X0075379Y0055973D01*
X0075379Y0065318D01*
X0074634Y0067116D01*
X0073258Y0068492D01*
X0073216Y0068509D01*
X0073216Y0071508D01*
X0071827Y0072897D01*
X0059896Y0084828D01*
X0046108Y0084828D01*
X0046108Y0088068D01*
X0045814Y0088362D01*
X0045844Y0088392D01*
X0051541Y0088392D01*
X0052584Y0089435D01*
X0070429Y0107280D01*
X0070442Y0107280D01*
X0072672Y0109510D01*
X0072672Y0123915D01*
X0073205Y0124448D01*
X0073622Y0125455D01*
X0073622Y0126545D01*
X0073205Y0127552D01*
X0072434Y0128323D01*
X0071427Y0128741D01*
X0070337Y0128741D01*
X0069329Y0128323D01*
X0068559Y0127552D01*
X0068141Y0126545D01*
X0068141Y0125455D01*
X0068559Y0124448D01*
X0069091Y0123915D01*
X0069091Y0110994D01*
X0067910Y0109813D01*
X0067910Y0109799D01*
X0050065Y0091954D01*
X0046108Y0091954D01*
X0046108Y0092005D01*
X0045814Y0092299D01*
X0046108Y0092593D01*
X0046108Y0095942D01*
X0046096Y0095953D01*
X0046190Y0096047D01*
X0046399Y0096410D01*
X0046508Y0096814D01*
X0046508Y0098205D01*
X0046508Y0099595D01*
X0046414Y0099946D01*
X0046590Y0099770D01*
X0054662Y0099770D01*
X0055360Y0100467D01*
X0055360Y0106178D01*
X0054662Y0106876D01*
X0046590Y0106876D01*
X0045892Y0106178D01*
X0045892Y0100660D01*
X0045531Y0100868D01*
X0045127Y0100976D01*
X0041866Y0100976D01*
X0038606Y0100976D01*
X0038201Y0100868D01*
X0037838Y0100659D01*
X0037542Y0100362D01*
X0037333Y0100000D01*
X0037224Y0099595D01*
X0037224Y0098205D01*
X0041866Y0098205D01*
X0041866Y0100976D01*
X0041866Y0098205D01*
X0041866Y0098205D01*
X0041866Y0098205D01*
X0037224Y0098205D01*
X0037224Y0096814D01*
X0037333Y0096410D01*
X0037536Y0096058D01*
X0030772Y0096058D01*
X0030772Y0101295D01*
X0030075Y0101993D01*
X0021689Y0101993D01*
X0020991Y0101295D01*
X0020991Y0092909D01*
X0021689Y0092212D01*
X0030075Y0092212D01*
X0030340Y0092477D01*
X0037741Y0092477D01*
X0037919Y0092299D01*
X0037624Y0092005D01*
X0037624Y0088656D01*
X0037909Y0088372D01*
X0031780Y0088372D01*
X0031270Y0088583D01*
X0030179Y0088583D01*
X0029172Y0088166D01*
X0028401Y0087395D01*
X0027984Y0086388D01*
X0027984Y0085297D01*
X0028401Y0084290D01*
X0028746Y0083945D01*
X0028746Y0073294D01*
X0028734Y0073281D01*
X0028734Y0071632D01*
X0035820Y0064546D01*
X0035820Y0012577D01*
X0044716Y0003681D01*
X0003681Y0003681D01*
X0003681Y0004393D02*
X0044005Y0004393D01*
X0042825Y0005572D02*
X0003681Y0005572D01*
X0003681Y0006752D02*
X0041646Y0006752D01*
X0040466Y0007931D02*
X0003681Y0007931D01*
X0003681Y0009111D02*
X0039286Y0009111D01*
X0038107Y0010291D02*
X0003681Y0010291D01*
X0003681Y0011470D02*
X0036927Y0011470D01*
X0035820Y0012650D02*
X0003681Y0012650D01*
X0003681Y0013830D02*
X0035820Y0013830D01*
X0035820Y0015009D02*
X0003681Y0015009D01*
X0003681Y0016189D02*
X0035820Y0016189D01*
X0035820Y0017368D02*
X0003681Y0017368D01*
X0003681Y0018548D02*
X0035820Y0018548D01*
X0035820Y0019728D02*
X0003681Y0019728D01*
X0003681Y0020907D02*
X0035820Y0020907D01*
X0035820Y0022087D02*
X0003681Y0022087D01*
X0003681Y0023266D02*
X0035820Y0023266D01*
X0035820Y0024446D02*
X0003681Y0024446D01*
X0003681Y0025626D02*
X0035820Y0025626D01*
X0035820Y0026805D02*
X0003681Y0026805D01*
X0003681Y0027985D02*
X0035820Y0027985D01*
X0035820Y0029164D02*
X0003681Y0029164D01*
X0003681Y0030344D02*
X0035820Y0030344D01*
X0035820Y0031524D02*
X0003681Y0031524D01*
X0003681Y0032703D02*
X0035820Y0032703D01*
X0035820Y0033883D02*
X0003681Y0033883D01*
X0003681Y0035063D02*
X0035820Y0035063D01*
X0035820Y0036242D02*
X0003681Y0036242D01*
X0003681Y0037422D02*
X0035820Y0037422D01*
X0035820Y0038601D02*
X0003681Y0038601D01*
X0003681Y0039781D02*
X0035820Y0039781D01*
X0035820Y0040961D02*
X0003681Y0040961D01*
X0003681Y0042140D02*
X0035820Y0042140D01*
X0035820Y0043320D02*
X0003681Y0043320D01*
X0003681Y0044499D02*
X0035820Y0044499D01*
X0035820Y0045679D02*
X0003681Y0045679D01*
X0003681Y0046859D02*
X0023171Y0046859D01*
X0023971Y0046528D02*
X0026455Y0046528D01*
X0028750Y0047478D01*
X0030506Y0049235D01*
X0031457Y0051530D01*
X0031457Y0054014D01*
X0030506Y0056309D01*
X0028750Y0058065D01*
X0026455Y0059016D01*
X0023971Y0059016D01*
X0021676Y0058065D01*
X0019919Y0056309D01*
X0018969Y0054014D01*
X0018969Y0051530D01*
X0019919Y0049235D01*
X0021676Y0047478D01*
X0023971Y0046528D01*
X0021115Y0048038D02*
X0003681Y0048038D01*
X0003681Y0049218D02*
X0019936Y0049218D01*
X0019437Y0050398D02*
X0003681Y0050398D01*
X0003681Y0051577D02*
X0018969Y0051577D01*
X0018969Y0052757D02*
X0003681Y0052757D01*
X0003681Y0053936D02*
X0018969Y0053936D01*
X0019425Y0055116D02*
X0003681Y0055116D01*
X0003681Y0056296D02*
X0019914Y0056296D01*
X0021086Y0057475D02*
X0003681Y0057475D01*
X0003681Y0058655D02*
X0023099Y0058655D01*
X0027326Y0058655D02*
X0035820Y0058655D01*
X0035820Y0059834D02*
X0003681Y0059834D01*
X0003681Y0061014D02*
X0035820Y0061014D01*
X0035820Y0062194D02*
X0003681Y0062194D01*
X0003681Y0063373D02*
X0035820Y0063373D01*
X0035813Y0064553D02*
X0003681Y0064553D01*
X0003681Y0065733D02*
X0034634Y0065733D01*
X0033454Y0066912D02*
X0003681Y0066912D01*
X0003681Y0068092D02*
X0032274Y0068092D01*
X0031095Y0069271D02*
X0003681Y0069271D01*
X0003681Y0070451D02*
X0029915Y0070451D01*
X0028735Y0071631D02*
X0003681Y0071631D01*
X0003681Y0072810D02*
X0028734Y0072810D01*
X0028746Y0073990D02*
X0003681Y0073990D01*
X0003681Y0075169D02*
X0028746Y0075169D01*
X0028746Y0076349D02*
X0003681Y0076349D01*
X0003681Y0077529D02*
X0028746Y0077529D01*
X0028746Y0078708D02*
X0003681Y0078708D01*
X0003681Y0079888D02*
X0028746Y0079888D01*
X0028746Y0081067D02*
X0003681Y0081067D01*
X0003681Y0082247D02*
X0028746Y0082247D01*
X0028746Y0083427D02*
X0003681Y0083427D01*
X0003681Y0084606D02*
X0028270Y0084606D01*
X0027984Y0085786D02*
X0003681Y0085786D01*
X0003681Y0086966D02*
X0028223Y0086966D01*
X0029151Y0088145D02*
X0003681Y0088145D01*
X0003681Y0089325D02*
X0037624Y0089325D01*
X0037624Y0090504D02*
X0003681Y0090504D01*
X0003681Y0091684D02*
X0037624Y0091684D01*
X0037337Y0096402D02*
X0030772Y0096402D01*
X0030772Y0097582D02*
X0037224Y0097582D01*
X0037224Y0098762D02*
X0030772Y0098762D01*
X0030772Y0099941D02*
X0037317Y0099941D01*
X0041866Y0099941D02*
X0041866Y0099941D01*
X0041866Y0098762D02*
X0041866Y0098762D01*
X0041866Y0098205D02*
X0046508Y0098205D01*
X0041866Y0098205D01*
X0041866Y0098205D01*
X0045892Y0101121D02*
X0030772Y0101121D01*
X0029176Y0103480D02*
X0045892Y0103480D01*
X0045892Y0102301D02*
X0027996Y0102301D01*
X0027908Y0102212D02*
X0030772Y0105077D01*
X0030772Y0105312D01*
X0035009Y0105312D01*
X0036058Y0106361D01*
X0036058Y0106374D01*
X0055340Y0125656D01*
X0055340Y0165813D01*
X0057683Y0168157D01*
X0057683Y0156441D01*
X0057141Y0155899D01*
X0056724Y0154892D01*
X0056724Y0153801D01*
X0057141Y0152794D01*
X0057912Y0152023D01*
X0058919Y0151606D01*
X0060010Y0151606D01*
X0061017Y0152023D01*
X0061788Y0152794D01*
X0062205Y0153801D01*
X0062205Y0154892D01*
X0061788Y0155899D01*
X0061246Y0156441D01*
X0061246Y0167120D01*
X0061472Y0166574D01*
X0062243Y0165803D01*
X0062951Y0165509D01*
X0062630Y0164734D01*
X0062630Y0163644D01*
X0063047Y0162637D01*
X0063818Y0161866D01*
X0064825Y0161448D01*
X0065915Y0161448D01*
X0066922Y0161866D01*
X0067465Y0162408D01*
X0068768Y0162408D01*
X0068559Y0162198D01*
X0068141Y0161191D01*
X0068141Y0160101D01*
X0068559Y0159093D01*
X0069269Y0158383D01*
X0068936Y0158245D01*
X0068165Y0157474D01*
X0067748Y0156466D01*
X0067748Y0155376D01*
X0068165Y0154369D01*
X0068936Y0153598D01*
X0069943Y0153181D01*
X0071033Y0153181D01*
X0072041Y0153598D01*
X0072386Y0153943D01*
X0074851Y0153943D01*
X0077213Y0156306D01*
X0137449Y0156306D01*
X0142986Y0161842D01*
X0143474Y0161842D01*
X0144482Y0162259D01*
X0145252Y0163030D01*
X0145670Y0164038D01*
X0145670Y0165128D01*
X0145252Y0166135D01*
X0144639Y0166748D01*
X0145252Y0167361D01*
X0145670Y0168368D01*
X0145670Y0169459D01*
X0145252Y0170466D01*
X0144482Y0171237D01*
X0143474Y0171654D01*
X0142384Y0171654D01*
X0141377Y0171237D01*
X0140606Y0170466D01*
X0140189Y0169459D01*
X0140189Y0168692D01*
X0133924Y0162427D01*
X0075969Y0162427D01*
X0108062Y0194519D01*
X0108829Y0194519D01*
X0109836Y0194937D01*
X0110607Y0195707D01*
X0111024Y0196715D01*
X0111024Y0197805D01*
X0110607Y0198812D01*
X0109836Y0199583D01*
X0108829Y0200000D01*
X0107738Y0200000D01*
X0106731Y0199583D01*
X0106136Y0198988D01*
X0105882Y0199600D01*
X0105111Y0200371D01*
X0104104Y0200788D01*
X0103014Y0200788D01*
X0102007Y0200371D01*
X0101236Y0199600D01*
X0100819Y0198592D01*
X0100819Y0197826D01*
X0083000Y0180007D01*
X0083071Y0180179D01*
X0083071Y0181270D01*
X0082654Y0182277D01*
X0082309Y0182622D01*
X0082309Y0202740D01*
X0128394Y0248825D01*
X0129553Y0249984D01*
X0129553Y0271307D01*
X0111090Y0289770D01*
X0116341Y0289770D01*
X0120498Y0293927D01*
X0120498Y0299805D01*
X0116341Y0303962D01*
X0110462Y0303962D01*
X0106306Y0299805D01*
X0106306Y0294555D01*
X0104772Y0296088D01*
X0102307Y0296088D01*
X0101962Y0296434D01*
X0100955Y0296851D01*
X0099864Y0296851D01*
X0098857Y0296434D01*
X0098086Y0295663D01*
X0097669Y0294655D01*
X0097669Y0293565D01*
X0098086Y0292558D01*
X0098857Y0291787D01*
X0099864Y0291370D01*
X0100955Y0291370D01*
X0101962Y0291787D01*
X0102307Y0292132D01*
X0103133Y0292132D01*
X0125597Y0269669D01*
X0125597Y0268964D01*
X0104378Y0290183D01*
X0093748Y0290183D01*
X0093307Y0290624D01*
X0093307Y0291112D01*
X0092890Y0292119D01*
X0092119Y0292890D01*
X0091112Y0293307D01*
X0090022Y0293307D01*
X0089015Y0292890D01*
X0088244Y0292119D01*
X0087826Y0291112D01*
X0087826Y0290022D01*
X0088244Y0289015D01*
X0089015Y0288244D01*
X0090022Y0287826D01*
X0090510Y0287826D01*
X0090951Y0287385D01*
X0092110Y0286227D01*
X0102740Y0286227D01*
X0123235Y0265732D01*
X0123235Y0260510D01*
X0122707Y0260729D01*
X0121616Y0260729D01*
X0120609Y0260312D01*
X0120067Y0259769D01*
X0108135Y0259769D01*
X0103888Y0264017D01*
X0105528Y0264017D01*
X0105528Y0268913D01*
X0106315Y0268913D01*
X0106315Y0264017D01*
X0109831Y0264017D01*
X0110235Y0264125D01*
X0110598Y0264334D01*
X0110894Y0264630D01*
X0111103Y0264993D01*
X0111212Y0265398D01*
X0111212Y0268913D01*
X0106315Y0268913D01*
X0106315Y0269701D01*
X0105528Y0269701D01*
X0105528Y0274598D01*
X0102012Y0274598D01*
X0101607Y0274489D01*
X0101245Y0274280D01*
X0100948Y0273984D01*
X0100779Y0273690D01*
X0100272Y0274198D01*
X0091886Y0274198D01*
X0091188Y0273500D01*
X0091188Y0265114D01*
X0091886Y0264417D01*
X0098450Y0264417D01*
X0106660Y0256207D01*
X0115816Y0256207D01*
X0115441Y0255832D01*
X0070734Y0255832D01*
X0042865Y0283702D01*
X0044504Y0283702D01*
X0044504Y0288598D01*
X0045291Y0288598D01*
X0045291Y0283702D01*
X0048807Y0283702D01*
X0049212Y0283810D01*
X0049574Y0284019D01*
X0049870Y0284316D01*
X0050080Y0284678D01*
X0050188Y0285083D01*
X0050188Y0288598D01*
X0045291Y0288598D01*
X0045291Y0289386D01*
X0044504Y0289386D01*
X0044504Y0294283D01*
X0040988Y0294283D01*
X0040584Y0294174D01*
X0040221Y0293965D01*
X0039925Y0293669D01*
X0039756Y0293375D01*
X0039248Y0293883D01*
X0030862Y0293883D01*
X0030165Y0293185D01*
X0030165Y0284799D01*
X0030862Y0284102D01*
X0037427Y0284102D01*
X0069258Y0252270D01*
X0086977Y0252270D01*
X0086669Y0251962D01*
X0086252Y0250955D01*
X0086252Y0249864D01*
X0086669Y0248857D01*
X0087302Y0248224D01*
X0087302Y0223551D01*
X0072150Y0208399D01*
X0059552Y0208399D01*
X0051678Y0200525D01*
X0051678Y0200525D01*
X0050687Y0199535D01*
X0050687Y0195739D01*
X0050387Y0196040D01*
X0049380Y0196457D01*
X0048290Y0196457D01*
X0047282Y0196040D01*
X0046511Y0195269D01*
X0046094Y0194262D01*
X0046094Y0193171D01*
X0046511Y0192164D01*
X0047054Y0191622D01*
X0047054Y0174376D01*
X0041404Y0168726D01*
X0040361Y0167683D01*
X0040361Y0135688D01*
X0040351Y0135679D01*
X0040351Y0134104D01*
X0028074Y0121827D01*
X0027908Y0121993D01*
X0023856Y0121993D01*
X0021165Y0119301D01*
X0018073Y0122393D01*
X0016291Y0122393D01*
X0016291Y0117512D01*
X0015472Y0117512D01*
X0015472Y0116693D01*
X0010591Y0116693D01*
X0010591Y0114911D01*
X0013683Y0111820D01*
X0010991Y0109128D01*
X0010991Y0105077D01*
X0013856Y0102212D01*
X0017908Y0102212D01*
X0020772Y0105077D01*
X0020772Y0109128D01*
X0020606Y0109294D01*
X0021742Y0110430D01*
X0022293Y0110430D01*
X0020991Y0109128D01*
X0020991Y0105077D01*
X0023856Y0102212D01*
X0027908Y0102212D01*
X0030356Y0104660D02*
X0045892Y0104660D01*
X0045892Y0105839D02*
X0035537Y0105839D01*
X0036703Y0107019D02*
X0065130Y0107019D01*
X0063950Y0105839D02*
X0055360Y0105839D01*
X0055360Y0104660D02*
X0062771Y0104660D01*
X0061591Y0103480D02*
X0055360Y0103480D01*
X0055360Y0102301D02*
X0060412Y0102301D01*
X0059232Y0101121D02*
X0055360Y0101121D01*
X0054834Y0099941D02*
X0058052Y0099941D01*
X0056873Y0098762D02*
X0046508Y0098762D01*
X0046508Y0097582D02*
X0055693Y0097582D01*
X0054514Y0096402D02*
X0046395Y0096402D01*
X0046108Y0095223D02*
X0053334Y0095223D01*
X0052154Y0094043D02*
X0046108Y0094043D01*
X0046108Y0092864D02*
X0050975Y0092864D01*
X0050803Y0090173D02*
X0042024Y0090173D01*
X0041866Y0090331D01*
X0046031Y0088145D02*
X0138095Y0088145D01*
X0138018Y0086966D02*
X0046108Y0086966D01*
X0046108Y0085786D02*
X0138018Y0085786D01*
X0132827Y0084606D02*
X0060118Y0084606D01*
X0061297Y0083427D02*
X0131648Y0083427D01*
X0130468Y0082247D02*
X0062477Y0082247D01*
X0063657Y0081067D02*
X0129288Y0081067D01*
X0128109Y0079888D02*
X0064836Y0079888D01*
X0066016Y0078708D02*
X0126929Y0078708D01*
X0125749Y0077529D02*
X0067195Y0077529D01*
X0068375Y0076349D02*
X0124570Y0076349D01*
X0123628Y0075169D02*
X0069555Y0075169D01*
X0070734Y0073990D02*
X0123628Y0073990D01*
X0123628Y0072810D02*
X0071914Y0072810D01*
X0073094Y0071631D02*
X0123395Y0071631D01*
X0122215Y0070451D02*
X0073216Y0070451D01*
X0073216Y0069271D02*
X0121035Y0069271D01*
X0119856Y0068092D02*
X0118934Y0068092D01*
X0121845Y0063373D02*
X0129140Y0063373D01*
X0129140Y0062194D02*
X0120666Y0062194D01*
X0120654Y0061014D02*
X0128132Y0061014D01*
X0126953Y0059834D02*
X0120654Y0059834D01*
X0120654Y0058655D02*
X0125773Y0058655D01*
X0124594Y0057475D02*
X0120654Y0057475D01*
X0120654Y0056296D02*
X0123414Y0056296D01*
X0122234Y0055116D02*
X0120299Y0055116D01*
X0119671Y0053936D02*
X0121055Y0053936D01*
X0119875Y0052757D02*
X0118430Y0052757D01*
X0121865Y0048038D02*
X0157474Y0048038D01*
X0157474Y0046859D02*
X0074228Y0046859D01*
X0075408Y0048038D02*
X0110450Y0048038D01*
X0109271Y0049218D02*
X0076588Y0049218D01*
X0077767Y0050398D02*
X0108091Y0050398D01*
X0106911Y0051577D02*
X0078947Y0051577D01*
X0083155Y0052757D02*
X0103097Y0052757D01*
X0101857Y0053936D02*
X0084395Y0053936D01*
X0085024Y0055116D02*
X0101228Y0055116D01*
X0100873Y0056296D02*
X0085379Y0056296D01*
X0085379Y0057475D02*
X0100873Y0057475D01*
X0100873Y0058655D02*
X0085379Y0058655D01*
X0085379Y0059834D02*
X0100873Y0059834D01*
X0100873Y0061014D02*
X0085379Y0061014D01*
X0085379Y0062194D02*
X0100873Y0062194D01*
X0100873Y0063373D02*
X0085379Y0063373D01*
X0085379Y0064553D02*
X0100873Y0064553D01*
X0101045Y0065733D02*
X0085207Y0065733D01*
X0084719Y0066912D02*
X0101533Y0066912D01*
X0102594Y0068092D02*
X0083658Y0068092D01*
X0077318Y0068092D02*
X0073658Y0068092D01*
X0074719Y0066912D02*
X0076258Y0066912D01*
X0075769Y0065733D02*
X0075207Y0065733D01*
X0075379Y0064553D02*
X0075598Y0064553D01*
X0075598Y0063373D02*
X0075379Y0063373D01*
X0075379Y0062194D02*
X0075598Y0062194D01*
X0075598Y0061014D02*
X0075379Y0061014D01*
X0075379Y0059834D02*
X0075598Y0059834D01*
X0075598Y0058655D02*
X0075379Y0058655D01*
X0075379Y0057475D02*
X0075598Y0057475D01*
X0075598Y0056296D02*
X0075379Y0056296D01*
X0075024Y0055116D02*
X0075778Y0055116D01*
X0074598Y0053936D02*
X0074395Y0053936D01*
X0073419Y0052757D02*
X0073155Y0052757D01*
X0072239Y0051577D02*
X0068344Y0051577D01*
X0067821Y0052757D02*
X0067164Y0052757D01*
X0066581Y0053936D02*
X0065985Y0053936D01*
X0065953Y0055116D02*
X0064805Y0055116D01*
X0064592Y0056296D02*
X0065598Y0056296D01*
X0065598Y0057475D02*
X0064592Y0057475D01*
X0064592Y0058655D02*
X0065598Y0058655D01*
X0065598Y0059834D02*
X0064592Y0059834D01*
X0064592Y0061014D02*
X0065598Y0061014D01*
X0065598Y0062194D02*
X0064592Y0062194D01*
X0064592Y0063373D02*
X0065598Y0063373D01*
X0065598Y0064553D02*
X0064592Y0064553D01*
X0064592Y0065733D02*
X0065769Y0065733D01*
X0066258Y0066912D02*
X0064592Y0066912D01*
X0064592Y0068092D02*
X0067318Y0068092D01*
X0068473Y0069271D02*
X0064592Y0069271D01*
X0064592Y0070451D02*
X0067565Y0070451D01*
X0066385Y0071631D02*
X0064592Y0071631D01*
X0064592Y0072810D02*
X0065206Y0072810D01*
X0059849Y0071631D02*
X0055360Y0071631D01*
X0055360Y0072810D02*
X0059300Y0072810D01*
X0058121Y0073990D02*
X0055360Y0073990D01*
X0055360Y0075169D02*
X0056941Y0075169D01*
X0055265Y0070451D02*
X0059849Y0070451D01*
X0059849Y0069271D02*
X0036725Y0069271D01*
X0037904Y0068092D02*
X0059849Y0068092D01*
X0059849Y0066912D02*
X0039084Y0066912D01*
X0039802Y0065733D02*
X0059849Y0065733D01*
X0059849Y0064553D02*
X0039802Y0064553D01*
X0039802Y0063373D02*
X0059849Y0063373D01*
X0059849Y0062194D02*
X0039802Y0062194D01*
X0039802Y0061014D02*
X0059849Y0061014D01*
X0059849Y0059834D02*
X0039802Y0059834D01*
X0039802Y0058655D02*
X0059849Y0058655D01*
X0059849Y0057475D02*
X0039802Y0057475D01*
X0039802Y0056296D02*
X0059849Y0056296D01*
X0059849Y0055116D02*
X0039802Y0055116D01*
X0039802Y0053936D02*
X0059849Y0053936D01*
X0060456Y0052757D02*
X0039802Y0052757D01*
X0039802Y0051577D02*
X0061636Y0051577D01*
X0062815Y0050398D02*
X0039802Y0050398D01*
X0039802Y0049218D02*
X0063995Y0049218D01*
X0065175Y0048038D02*
X0039802Y0048038D01*
X0039802Y0046859D02*
X0066354Y0046859D01*
X0045987Y0070451D02*
X0035545Y0070451D01*
X0034366Y0071631D02*
X0045892Y0071631D01*
X0045892Y0072810D02*
X0033186Y0072810D01*
X0032702Y0073990D02*
X0045892Y0073990D01*
X0045892Y0075169D02*
X0032702Y0075169D01*
X0032702Y0076349D02*
X0038121Y0076349D01*
X0037624Y0077529D02*
X0032702Y0077529D01*
X0032702Y0078708D02*
X0037624Y0078708D01*
X0037624Y0079888D02*
X0032702Y0079888D01*
X0032702Y0081067D02*
X0037624Y0081067D01*
X0037624Y0082247D02*
X0032702Y0082247D01*
X0032702Y0083427D02*
X0037624Y0083427D01*
X0046415Y0099941D02*
X0046418Y0099941D01*
X0050803Y0090173D02*
X0069701Y0109071D01*
X0068656Y0110558D02*
X0040242Y0110558D01*
X0041422Y0111737D02*
X0069091Y0111737D01*
X0069091Y0112917D02*
X0042601Y0112917D01*
X0043781Y0114097D02*
X0069091Y0114097D01*
X0069091Y0115276D02*
X0044960Y0115276D01*
X0046140Y0116456D02*
X0069091Y0116456D01*
X0069091Y0117636D02*
X0047320Y0117636D01*
X0048499Y0118815D02*
X0069091Y0118815D01*
X0069091Y0119995D02*
X0049679Y0119995D01*
X0050859Y0121174D02*
X0069091Y0121174D01*
X0069091Y0122354D02*
X0052038Y0122354D01*
X0053218Y0123534D02*
X0069091Y0123534D01*
X0068449Y0124713D02*
X0054397Y0124713D01*
X0055340Y0125893D02*
X0068141Y0125893D01*
X0068360Y0127072D02*
X0055340Y0127072D01*
X0055340Y0128252D02*
X0069258Y0128252D01*
X0069482Y0130611D02*
X0055340Y0130611D01*
X0055340Y0129432D02*
X0072018Y0129432D01*
X0072506Y0128252D02*
X0073198Y0128252D01*
X0073404Y0127072D02*
X0074377Y0127072D01*
X0073622Y0125893D02*
X0075557Y0125893D01*
X0075991Y0124713D02*
X0073315Y0124713D01*
X0072672Y0123534D02*
X0075991Y0123534D01*
X0075991Y0122354D02*
X0072672Y0122354D01*
X0072672Y0121174D02*
X0075991Y0121174D01*
X0075991Y0119995D02*
X0072672Y0119995D01*
X0072672Y0118815D02*
X0075991Y0118815D01*
X0075991Y0117636D02*
X0072672Y0117636D01*
X0072672Y0116456D02*
X0075991Y0116456D01*
X0075991Y0115276D02*
X0072672Y0115276D01*
X0072672Y0114097D02*
X0075991Y0114097D01*
X0075991Y0112917D02*
X0072672Y0112917D01*
X0072672Y0111737D02*
X0075991Y0111737D01*
X0075991Y0110558D02*
X0072672Y0110558D01*
X0072540Y0109378D02*
X0075991Y0109378D01*
X0076519Y0108199D02*
X0071361Y0108199D01*
X0070168Y0107019D02*
X0077698Y0107019D01*
X0078878Y0105839D02*
X0068988Y0105839D01*
X0067809Y0104660D02*
X0080058Y0104660D01*
X0081237Y0103480D02*
X0066629Y0103480D01*
X0065449Y0102301D02*
X0082417Y0102301D01*
X0083596Y0101121D02*
X0064270Y0101121D01*
X0063090Y0099941D02*
X0084776Y0099941D01*
X0085956Y0098762D02*
X0061910Y0098762D01*
X0060731Y0097582D02*
X0087135Y0097582D01*
X0087177Y0097540D02*
X0087177Y0097540D01*
X0088641Y0096402D02*
X0059551Y0096402D01*
X0058372Y0095223D02*
X0114495Y0095223D01*
X0115674Y0094043D02*
X0057192Y0094043D01*
X0056012Y0092864D02*
X0116854Y0092864D01*
X0118033Y0091684D02*
X0054833Y0091684D01*
X0053653Y0090504D02*
X0119213Y0090504D01*
X0120393Y0089325D02*
X0052474Y0089325D01*
X0066310Y0108199D02*
X0037883Y0108199D01*
X0039062Y0109378D02*
X0067489Y0109378D01*
X0077772Y0109465D02*
X0077772Y0125871D01*
X0077541Y0126427D02*
X0071276Y0132693D01*
X0072071Y0135330D02*
X0072243Y0135330D01*
X0071685Y0136509D02*
X0055340Y0136509D01*
X0055340Y0135330D02*
X0070480Y0135330D01*
X0068913Y0134150D02*
X0055340Y0134150D01*
X0055340Y0132970D02*
X0068535Y0132970D01*
X0068683Y0131791D02*
X0055340Y0131791D01*
X0053559Y0126394D02*
X0034268Y0107102D01*
X0031906Y0114976D02*
X0046079Y0129150D01*
X0046079Y0165764D01*
X0058283Y0177969D01*
X0056772Y0178975D02*
X0050616Y0178975D01*
X0050616Y0177796D02*
X0055592Y0177796D01*
X0054412Y0176616D02*
X0050616Y0176616D01*
X0050616Y0175437D02*
X0053233Y0175437D01*
X0052053Y0174257D02*
X0050616Y0174257D01*
X0050616Y0173077D02*
X0050873Y0173077D01*
X0050616Y0172900D02*
X0050616Y0189635D01*
X0050826Y0189425D01*
X0051833Y0189007D01*
X0052923Y0189007D01*
X0053930Y0189425D01*
X0054701Y0190196D01*
X0055118Y0191203D01*
X0055118Y0192293D01*
X0054701Y0193300D01*
X0054068Y0193933D01*
X0054068Y0198134D01*
X0055543Y0199609D01*
X0055543Y0199077D01*
X0055960Y0198070D01*
X0056731Y0197299D01*
X0057380Y0197030D01*
X0057380Y0179584D01*
X0044298Y0166502D01*
X0044298Y0129887D01*
X0032127Y0117717D01*
X0031360Y0117717D01*
X0030772Y0117473D01*
X0030772Y0119128D01*
X0030606Y0119294D01*
X0043932Y0132621D01*
X0043932Y0134104D01*
X0043932Y0135679D01*
X0043923Y0135688D01*
X0043923Y0166207D01*
X0050616Y0172900D01*
X0049694Y0171898D02*
X0049613Y0171898D01*
X0048514Y0170718D02*
X0048434Y0170718D01*
X0047335Y0169539D02*
X0047254Y0169539D01*
X0046155Y0168359D02*
X0046075Y0168359D01*
X0044975Y0167179D02*
X0044895Y0167179D01*
X0044298Y0166000D02*
X0043923Y0166000D01*
X0043923Y0164820D02*
X0044298Y0164820D01*
X0044298Y0163640D02*
X0043923Y0163640D01*
X0043923Y0162461D02*
X0044298Y0162461D01*
X0044298Y0161281D02*
X0043923Y0161281D01*
X0043923Y0160102D02*
X0044298Y0160102D01*
X0044298Y0158922D02*
X0043923Y0158922D01*
X0043923Y0157742D02*
X0044298Y0157742D01*
X0044298Y0156563D02*
X0043923Y0156563D01*
X0043923Y0155383D02*
X0044298Y0155383D01*
X0044298Y0154204D02*
X0043923Y0154204D01*
X0043923Y0153024D02*
X0044298Y0153024D01*
X0044298Y0151844D02*
X0043923Y0151844D01*
X0043923Y0150665D02*
X0044298Y0150665D01*
X0044298Y0149485D02*
X0043923Y0149485D01*
X0043923Y0148305D02*
X0044298Y0148305D01*
X0044298Y0147126D02*
X0043923Y0147126D01*
X0043923Y0145946D02*
X0044298Y0145946D01*
X0044298Y0144767D02*
X0043923Y0144767D01*
X0043923Y0143587D02*
X0044298Y0143587D01*
X0044298Y0142407D02*
X0043923Y0142407D01*
X0043923Y0141228D02*
X0044298Y0141228D01*
X0044298Y0140048D02*
X0043923Y0140048D01*
X0043923Y0138869D02*
X0044298Y0138869D01*
X0044298Y0137689D02*
X0043923Y0137689D01*
X0043923Y0136509D02*
X0044298Y0136509D01*
X0044298Y0135330D02*
X0043932Y0135330D01*
X0043932Y0134150D02*
X0044298Y0134150D01*
X0044298Y0132970D02*
X0043932Y0132970D01*
X0044298Y0131791D02*
X0043103Y0131791D01*
X0041923Y0130611D02*
X0044298Y0130611D01*
X0043842Y0129432D02*
X0040743Y0129432D01*
X0039564Y0128252D02*
X0042662Y0128252D01*
X0041483Y0127072D02*
X0038384Y0127072D01*
X0037205Y0125893D02*
X0040303Y0125893D01*
X0039123Y0124713D02*
X0036025Y0124713D01*
X0034845Y0123534D02*
X0037944Y0123534D01*
X0036764Y0122354D02*
X0033666Y0122354D01*
X0032486Y0121174D02*
X0035585Y0121174D01*
X0034405Y0119995D02*
X0031306Y0119995D01*
X0030772Y0118815D02*
X0033225Y0118815D01*
X0031164Y0117636D02*
X0030772Y0117636D01*
X0028601Y0122354D02*
X0018112Y0122354D01*
X0019292Y0121174D02*
X0023038Y0121174D01*
X0021858Y0119995D02*
X0020471Y0119995D01*
X0016291Y0119995D02*
X0015472Y0119995D01*
X0015472Y0121174D02*
X0016291Y0121174D01*
X0016291Y0122354D02*
X0015472Y0122354D01*
X0015472Y0122393D02*
X0013690Y0122393D01*
X0010591Y0119294D01*
X0010591Y0117512D01*
X0015472Y0117512D01*
X0015472Y0122393D01*
X0013652Y0122354D02*
X0003681Y0122354D01*
X0003681Y0123534D02*
X0029781Y0123534D01*
X0030961Y0124713D02*
X0003681Y0124713D01*
X0003681Y0125893D02*
X0032140Y0125893D01*
X0033320Y0127072D02*
X0003681Y0127072D01*
X0003681Y0128252D02*
X0034499Y0128252D01*
X0035679Y0129432D02*
X0003681Y0129432D01*
X0003681Y0130611D02*
X0036859Y0130611D01*
X0038038Y0131791D02*
X0003681Y0131791D01*
X0003681Y0132970D02*
X0039218Y0132970D01*
X0040351Y0134150D02*
X0003681Y0134150D01*
X0003681Y0135330D02*
X0040351Y0135330D01*
X0040361Y0136509D02*
X0003681Y0136509D01*
X0003681Y0137689D02*
X0040361Y0137689D01*
X0040361Y0138869D02*
X0003681Y0138869D01*
X0003681Y0140048D02*
X0040361Y0140048D01*
X0040361Y0141228D02*
X0003681Y0141228D01*
X0003681Y0142407D02*
X0040361Y0142407D01*
X0040361Y0143587D02*
X0003681Y0143587D01*
X0003681Y0144767D02*
X0040361Y0144767D01*
X0040361Y0145946D02*
X0003681Y0145946D01*
X0003681Y0147126D02*
X0040361Y0147126D01*
X0040361Y0148305D02*
X0003681Y0148305D01*
X0003681Y0149485D02*
X0040361Y0149485D01*
X0040361Y0150665D02*
X0003681Y0150665D01*
X0003681Y0151844D02*
X0040361Y0151844D01*
X0040361Y0153024D02*
X0003681Y0153024D01*
X0003681Y0154204D02*
X0040361Y0154204D01*
X0040361Y0155383D02*
X0003681Y0155383D01*
X0003681Y0156563D02*
X0040361Y0156563D01*
X0040361Y0157742D02*
X0003681Y0157742D01*
X0003681Y0158922D02*
X0040361Y0158922D01*
X0040361Y0160102D02*
X0003681Y0160102D01*
X0003681Y0161281D02*
X0040361Y0161281D01*
X0040361Y0162461D02*
X0003681Y0162461D01*
X0003681Y0163640D02*
X0040361Y0163640D01*
X0040361Y0164820D02*
X0003681Y0164820D01*
X0003681Y0166000D02*
X0040361Y0166000D01*
X0040361Y0167179D02*
X0003681Y0167179D01*
X0003681Y0168359D02*
X0041037Y0168359D01*
X0042217Y0169539D02*
X0003681Y0169539D01*
X0003681Y0170718D02*
X0043396Y0170718D01*
X0044576Y0171898D02*
X0003681Y0171898D01*
X0003681Y0173077D02*
X0045755Y0173077D01*
X0046935Y0174257D02*
X0003681Y0174257D01*
X0003681Y0175437D02*
X0011107Y0175437D01*
X0010631Y0175634D02*
X0009256Y0177009D01*
X0008511Y0178807D01*
X0008511Y0180752D01*
X0009256Y0182550D01*
X0010631Y0183926D01*
X0012429Y0184670D01*
X0014374Y0184670D01*
X0016172Y0183926D01*
X0017548Y0182550D01*
X0018292Y0180752D01*
X0018292Y0178807D01*
X0017548Y0177009D01*
X0016172Y0175634D01*
X0014374Y0174889D01*
X0012429Y0174889D01*
X0010631Y0175634D01*
X0009649Y0176616D02*
X0003681Y0176616D01*
X0003681Y0177796D02*
X0008930Y0177796D01*
X0008511Y0178975D02*
X0003681Y0178975D01*
X0003681Y0180155D02*
X0008511Y0180155D01*
X0008752Y0181335D02*
X0003681Y0181335D01*
X0003681Y0182514D02*
X0009241Y0182514D01*
X0010400Y0183694D02*
X0003681Y0183694D01*
X0003681Y0184873D02*
X0047054Y0184873D01*
X0047054Y0183694D02*
X0016403Y0183694D01*
X0017562Y0182514D02*
X0047054Y0182514D01*
X0047054Y0181335D02*
X0018051Y0181335D01*
X0018292Y0180155D02*
X0047054Y0180155D01*
X0047054Y0178975D02*
X0018292Y0178975D01*
X0017873Y0177796D02*
X0047054Y0177796D01*
X0047054Y0176616D02*
X0017155Y0176616D01*
X0015696Y0175437D02*
X0047054Y0175437D01*
X0048835Y0173638D02*
X0042142Y0166945D01*
X0042142Y0134937D01*
X0051591Y0130724D02*
X0051591Y0167732D01*
X0061827Y0177969D01*
X0061827Y0203559D01*
X0064382Y0202568D02*
X0072999Y0202568D01*
X0072841Y0202410D02*
X0072841Y0183803D01*
X0072496Y0183458D01*
X0072078Y0182451D01*
X0072078Y0181360D01*
X0072496Y0180353D01*
X0073266Y0179582D01*
X0074274Y0179165D01*
X0075364Y0179165D01*
X0076371Y0179582D01*
X0077142Y0180353D01*
X0077559Y0181360D01*
X0077559Y0182451D01*
X0077142Y0183458D01*
X0076797Y0183803D01*
X0076797Y0200771D01*
X0078353Y0202327D01*
X0078353Y0182622D01*
X0078007Y0182277D01*
X0077590Y0181270D01*
X0077590Y0180179D01*
X0078007Y0179172D01*
X0078778Y0178401D01*
X0079786Y0177984D01*
X0080876Y0177984D01*
X0081048Y0178055D01*
X0077053Y0174060D01*
X0076749Y0174796D01*
X0075978Y0175567D01*
X0074970Y0175985D01*
X0073880Y0175985D01*
X0072873Y0175567D01*
X0072102Y0174796D01*
X0071707Y0173844D01*
X0063371Y0173844D01*
X0067151Y0177624D01*
X0067151Y0197527D01*
X0067693Y0198070D01*
X0068111Y0199077D01*
X0068111Y0200167D01*
X0067693Y0201174D01*
X0066922Y0201945D01*
X0065915Y0202363D01*
X0064825Y0202363D01*
X0064188Y0202099D01*
X0064567Y0203014D01*
X0064567Y0204104D01*
X0064189Y0205018D01*
X0073551Y0205018D01*
X0074541Y0206008D01*
X0074541Y0206008D01*
X0089692Y0221160D01*
X0089692Y0221160D01*
X0090683Y0222150D01*
X0090683Y0248224D01*
X0091315Y0248857D01*
X0091733Y0249864D01*
X0091733Y0250955D01*
X0091315Y0251962D01*
X0091007Y0252270D01*
X0115441Y0252270D01*
X0115983Y0251728D01*
X0116990Y0251311D01*
X0118081Y0251311D01*
X0119088Y0251728D01*
X0119859Y0252499D01*
X0120276Y0253506D01*
X0120276Y0254596D01*
X0119859Y0255604D01*
X0119255Y0256207D01*
X0120067Y0256207D01*
X0120609Y0255665D01*
X0121616Y0255248D01*
X0122707Y0255248D01*
X0123235Y0255466D01*
X0123235Y0252804D01*
X0074000Y0203568D01*
X0072841Y0202410D01*
X0072841Y0201388D02*
X0067480Y0201388D01*
X0068094Y0200208D02*
X0072841Y0200208D01*
X0072841Y0199029D02*
X0068091Y0199029D01*
X0067473Y0197849D02*
X0072841Y0197849D01*
X0072841Y0196670D02*
X0067151Y0196670D01*
X0067151Y0195490D02*
X0072841Y0195490D01*
X0072841Y0194310D02*
X0067151Y0194310D01*
X0067151Y0193131D02*
X0072841Y0193131D01*
X0072841Y0191951D02*
X0067151Y0191951D01*
X0067151Y0190772D02*
X0072841Y0190772D01*
X0072841Y0189592D02*
X0067151Y0189592D01*
X0067151Y0188412D02*
X0072841Y0188412D01*
X0072841Y0187233D02*
X0067151Y0187233D01*
X0067151Y0186053D02*
X0072841Y0186053D01*
X0072841Y0184873D02*
X0067151Y0184873D01*
X0067151Y0183694D02*
X0072732Y0183694D01*
X0072105Y0182514D02*
X0067151Y0182514D01*
X0067151Y0181335D02*
X0072089Y0181335D01*
X0072694Y0180155D02*
X0067151Y0180155D01*
X0067151Y0178975D02*
X0078204Y0178975D01*
X0077600Y0180155D02*
X0076944Y0180155D01*
X0077549Y0181335D02*
X0077617Y0181335D01*
X0077533Y0182514D02*
X0078245Y0182514D01*
X0078353Y0183694D02*
X0076906Y0183694D01*
X0076797Y0184873D02*
X0078353Y0184873D01*
X0078353Y0186053D02*
X0076797Y0186053D01*
X0076797Y0187233D02*
X0078353Y0187233D01*
X0078353Y0188412D02*
X0076797Y0188412D01*
X0076797Y0189592D02*
X0078353Y0189592D01*
X0078353Y0190772D02*
X0076797Y0190772D01*
X0076797Y0191951D02*
X0078353Y0191951D01*
X0078353Y0193131D02*
X0076797Y0193131D01*
X0076797Y0194310D02*
X0078353Y0194310D01*
X0078353Y0195490D02*
X0076797Y0195490D01*
X0076797Y0196670D02*
X0078353Y0196670D01*
X0078353Y0197849D02*
X0076797Y0197849D01*
X0076797Y0199029D02*
X0078353Y0199029D01*
X0078353Y0200208D02*
X0076797Y0200208D01*
X0077414Y0201388D02*
X0078353Y0201388D01*
X0075358Y0204927D02*
X0064227Y0204927D01*
X0064567Y0203747D02*
X0074178Y0203747D01*
X0074639Y0206107D02*
X0076538Y0206107D01*
X0075819Y0207286D02*
X0077717Y0207286D01*
X0076998Y0208466D02*
X0078897Y0208466D01*
X0078178Y0209645D02*
X0080076Y0209645D01*
X0079358Y0210825D02*
X0081256Y0210825D01*
X0080537Y0212005D02*
X0082436Y0212005D01*
X0081717Y0213184D02*
X0083615Y0213184D01*
X0082896Y0214364D02*
X0084795Y0214364D01*
X0084076Y0215543D02*
X0085975Y0215543D01*
X0085256Y0216723D02*
X0087154Y0216723D01*
X0086435Y0217903D02*
X0088334Y0217903D01*
X0087615Y0219082D02*
X0089513Y0219082D01*
X0088794Y0220262D02*
X0090693Y0220262D01*
X0089974Y0221442D02*
X0091873Y0221442D01*
X0093052Y0222621D02*
X0090683Y0222621D01*
X0090683Y0223801D02*
X0094232Y0223801D01*
X0095411Y0224980D02*
X0090683Y0224980D01*
X0090683Y0226160D02*
X0096591Y0226160D01*
X0097771Y0227340D02*
X0090683Y0227340D01*
X0090683Y0228519D02*
X0098950Y0228519D01*
X0100130Y0229699D02*
X0090683Y0229699D01*
X0090683Y0230878D02*
X0101310Y0230878D01*
X0102489Y0232058D02*
X0090683Y0232058D01*
X0090683Y0233238D02*
X0103669Y0233238D01*
X0104848Y0234417D02*
X0090683Y0234417D01*
X0090683Y0235597D02*
X0106028Y0235597D01*
X0107208Y0236777D02*
X0090683Y0236777D01*
X0090683Y0237956D02*
X0108387Y0237956D01*
X0109567Y0239136D02*
X0090683Y0239136D01*
X0090683Y0240315D02*
X0110746Y0240315D01*
X0111926Y0241495D02*
X0090683Y0241495D01*
X0090683Y0242675D02*
X0113106Y0242675D01*
X0114285Y0243854D02*
X0090683Y0243854D01*
X0090683Y0245034D02*
X0115465Y0245034D01*
X0116645Y0246213D02*
X0090683Y0246213D01*
X0090683Y0247393D02*
X0117824Y0247393D01*
X0119004Y0248573D02*
X0091031Y0248573D01*
X0091686Y0249752D02*
X0120183Y0249752D01*
X0121363Y0250932D02*
X0091733Y0250932D01*
X0091166Y0252111D02*
X0115599Y0252111D01*
X0117535Y0254051D02*
X0069996Y0254051D01*
X0035055Y0288992D01*
X0037567Y0283961D02*
X0003681Y0283961D01*
X0003681Y0282781D02*
X0038747Y0282781D01*
X0039927Y0281602D02*
X0003681Y0281602D01*
X0003681Y0280422D02*
X0041106Y0280422D01*
X0042286Y0279243D02*
X0003681Y0279243D01*
X0003681Y0278063D02*
X0043465Y0278063D01*
X0044645Y0276883D02*
X0003681Y0276883D01*
X0003681Y0275704D02*
X0045825Y0275704D01*
X0047004Y0274524D02*
X0030448Y0274524D01*
X0030589Y0274384D02*
X0029423Y0275550D01*
X0013443Y0275550D01*
X0006278Y0268384D01*
X0005112Y0267218D01*
X0005112Y0201081D01*
X0009521Y0196672D01*
X0010687Y0195506D01*
X0010940Y0195506D01*
X0012429Y0194889D01*
X0014374Y0194889D01*
X0016172Y0195634D01*
X0017548Y0197009D01*
X0017831Y0197693D01*
X0018463Y0198325D01*
X0018463Y0260609D01*
X0023175Y0265321D01*
X0023066Y0265106D01*
X0022850Y0264441D01*
X0022741Y0263751D01*
X0022741Y0263500D01*
X0027083Y0263500D01*
X0027083Y0263303D01*
X0027280Y0263303D01*
X0027280Y0263500D01*
X0031622Y0263500D01*
X0031622Y0263751D01*
X0031512Y0264441D01*
X0031296Y0265106D01*
X0030979Y0265729D01*
X0030568Y0266294D01*
X0030074Y0266789D01*
X0029508Y0267199D01*
X0028886Y0267517D01*
X0028762Y0267557D01*
X0029470Y0267850D01*
X0030607Y0268987D01*
X0030930Y0269769D01*
X0031140Y0269979D01*
X0031140Y0270275D01*
X0031222Y0270472D01*
X0031222Y0272079D01*
X0031140Y0272276D01*
X0031140Y0273281D01*
X0030589Y0273832D01*
X0030589Y0274384D01*
X0031077Y0273345D02*
X0048184Y0273345D01*
X0049363Y0272165D02*
X0031186Y0272165D01*
X0031222Y0270985D02*
X0050543Y0270985D01*
X0051723Y0269806D02*
X0030967Y0269806D01*
X0030246Y0268626D02*
X0052902Y0268626D01*
X0054082Y0267446D02*
X0029024Y0267446D01*
X0030588Y0266267D02*
X0055262Y0266267D01*
X0056441Y0265087D02*
X0031302Y0265087D01*
X0031597Y0263908D02*
X0057621Y0263908D01*
X0058800Y0262728D02*
X0031570Y0262728D01*
X0031622Y0263052D02*
X0031622Y0263303D01*
X0027280Y0263303D01*
X0027280Y0258961D01*
X0027531Y0258961D01*
X0028221Y0259070D01*
X0028886Y0259286D01*
X0029508Y0259604D01*
X0030074Y0260015D01*
X0030568Y0260509D01*
X0030979Y0261074D01*
X0031296Y0261697D01*
X0031512Y0262362D01*
X0031622Y0263052D01*
X0031221Y0261548D02*
X0059980Y0261548D01*
X0061160Y0260369D02*
X0030428Y0260369D01*
X0028587Y0259189D02*
X0062339Y0259189D01*
X0063519Y0258010D02*
X0018463Y0258010D01*
X0018463Y0259189D02*
X0025776Y0259189D01*
X0025477Y0259286D02*
X0026141Y0259070D01*
X0026832Y0258961D01*
X0027083Y0258961D01*
X0027083Y0263303D01*
X0022741Y0263303D01*
X0022741Y0263052D01*
X0022850Y0262362D01*
X0023066Y0261697D01*
X0023383Y0261074D01*
X0023794Y0260509D01*
X0024288Y0260015D01*
X0024854Y0259604D01*
X0025477Y0259286D01*
X0027083Y0259189D02*
X0027280Y0259189D01*
X0027280Y0260369D02*
X0027083Y0260369D01*
X0027083Y0261548D02*
X0027280Y0261548D01*
X0027280Y0262728D02*
X0027083Y0262728D01*
X0023934Y0260369D02*
X0018463Y0260369D01*
X0019403Y0261548D02*
X0023142Y0261548D01*
X0022792Y0262728D02*
X0020582Y0262728D01*
X0021762Y0263908D02*
X0022765Y0263908D01*
X0022942Y0265087D02*
X0023060Y0265087D01*
X0018463Y0256830D02*
X0064698Y0256830D01*
X0065878Y0255650D02*
X0018463Y0255650D01*
X0018463Y0254471D02*
X0067058Y0254471D01*
X0068237Y0253291D02*
X0018463Y0253291D01*
X0018463Y0252111D02*
X0086818Y0252111D01*
X0086252Y0250932D02*
X0018463Y0250932D01*
X0018463Y0249752D02*
X0086298Y0249752D01*
X0086953Y0248573D02*
X0018463Y0248573D01*
X0018463Y0247393D02*
X0087302Y0247393D01*
X0087302Y0246213D02*
X0018463Y0246213D01*
X0018463Y0245034D02*
X0087302Y0245034D01*
X0087302Y0243854D02*
X0018463Y0243854D01*
X0018463Y0242675D02*
X0087302Y0242675D01*
X0087302Y0241495D02*
X0018463Y0241495D01*
X0018463Y0240315D02*
X0087302Y0240315D01*
X0087302Y0239136D02*
X0018463Y0239136D01*
X0018463Y0237956D02*
X0087302Y0237956D01*
X0087302Y0236777D02*
X0018463Y0236777D01*
X0018463Y0235597D02*
X0087302Y0235597D01*
X0087302Y0234417D02*
X0018463Y0234417D01*
X0018463Y0233238D02*
X0087302Y0233238D01*
X0087302Y0232058D02*
X0018463Y0232058D01*
X0018463Y0230878D02*
X0087302Y0230878D01*
X0087302Y0229699D02*
X0018463Y0229699D01*
X0018463Y0228519D02*
X0087302Y0228519D01*
X0087302Y0227340D02*
X0018463Y0227340D01*
X0018463Y0226160D02*
X0087302Y0226160D01*
X0087302Y0224980D02*
X0018463Y0224980D01*
X0018463Y0223801D02*
X0087302Y0223801D01*
X0086372Y0222621D02*
X0018463Y0222621D01*
X0018463Y0221442D02*
X0085192Y0221442D01*
X0084013Y0220262D02*
X0018463Y0220262D01*
X0018463Y0219082D02*
X0082833Y0219082D01*
X0081654Y0217903D02*
X0018463Y0217903D01*
X0018463Y0216723D02*
X0080474Y0216723D01*
X0079294Y0215543D02*
X0018463Y0215543D01*
X0018463Y0214364D02*
X0078115Y0214364D01*
X0076935Y0213184D02*
X0018463Y0213184D01*
X0018463Y0212005D02*
X0075756Y0212005D01*
X0074576Y0210825D02*
X0018463Y0210825D01*
X0018463Y0209645D02*
X0073396Y0209645D01*
X0072217Y0208466D02*
X0018463Y0208466D01*
X0018463Y0207286D02*
X0058439Y0207286D01*
X0057259Y0206107D02*
X0018463Y0206107D01*
X0018463Y0204927D02*
X0056079Y0204927D01*
X0054900Y0203747D02*
X0018463Y0203747D01*
X0018463Y0202568D02*
X0053720Y0202568D01*
X0052541Y0201388D02*
X0018463Y0201388D01*
X0018463Y0200208D02*
X0051361Y0200208D01*
X0050687Y0199029D02*
X0018463Y0199029D01*
X0017987Y0197849D02*
X0050687Y0197849D01*
X0050687Y0196670D02*
X0017208Y0196670D01*
X0015825Y0195490D02*
X0046732Y0195490D01*
X0046114Y0194310D02*
X0015243Y0194310D01*
X0014374Y0194670D02*
X0012429Y0194670D01*
X0010631Y0193926D01*
X0009256Y0192550D01*
X0008511Y0190752D01*
X0008511Y0188807D01*
X0009256Y0187009D01*
X0010631Y0185634D01*
X0012429Y0184889D01*
X0014374Y0184889D01*
X0016172Y0185634D01*
X0017548Y0187009D01*
X0018292Y0188807D01*
X0018292Y0190752D01*
X0017548Y0192550D01*
X0016172Y0193926D01*
X0014374Y0194670D01*
X0011560Y0194310D02*
X0003681Y0194310D01*
X0003681Y0193131D02*
X0009837Y0193131D01*
X0009008Y0191951D02*
X0003681Y0191951D01*
X0003681Y0190772D02*
X0008519Y0190772D01*
X0008511Y0189592D02*
X0003681Y0189592D01*
X0003681Y0188412D02*
X0008674Y0188412D01*
X0009163Y0187233D02*
X0003681Y0187233D01*
X0003681Y0186053D02*
X0010212Y0186053D01*
X0016591Y0186053D02*
X0047054Y0186053D01*
X0047054Y0187233D02*
X0017640Y0187233D01*
X0018129Y0188412D02*
X0047054Y0188412D01*
X0047054Y0189592D02*
X0018292Y0189592D01*
X0018284Y0190772D02*
X0047054Y0190772D01*
X0046724Y0191951D02*
X0017796Y0191951D01*
X0016967Y0193131D02*
X0046111Y0193131D01*
X0048835Y0193717D02*
X0048835Y0173638D01*
X0050616Y0180155D02*
X0057380Y0180155D01*
X0057380Y0181335D02*
X0050616Y0181335D01*
X0050616Y0182514D02*
X0057380Y0182514D01*
X0057380Y0183694D02*
X0050616Y0183694D01*
X0050616Y0184873D02*
X0057380Y0184873D01*
X0057380Y0186053D02*
X0050616Y0186053D01*
X0050616Y0187233D02*
X0057380Y0187233D01*
X0057380Y0188412D02*
X0050616Y0188412D01*
X0050616Y0189592D02*
X0050658Y0189592D01*
X0054098Y0189592D02*
X0057380Y0189592D01*
X0057380Y0190772D02*
X0054940Y0190772D01*
X0055118Y0191951D02*
X0057380Y0191951D01*
X0057380Y0193131D02*
X0054772Y0193131D01*
X0054068Y0194310D02*
X0057380Y0194310D01*
X0057380Y0195490D02*
X0054068Y0195490D01*
X0054068Y0196670D02*
X0057380Y0196670D01*
X0056181Y0197849D02*
X0054068Y0197849D01*
X0054963Y0199029D02*
X0055563Y0199029D01*
X0065370Y0199622D02*
X0065370Y0178362D01*
X0053559Y0166551D01*
X0053559Y0126394D01*
X0055340Y0137689D02*
X0071734Y0137689D01*
X0072394Y0138869D02*
X0055340Y0138869D01*
X0055340Y0140048D02*
X0179128Y0140048D01*
X0179128Y0138869D02*
X0076456Y0138869D01*
X0077116Y0137689D02*
X0179128Y0137689D01*
X0179128Y0136768D02*
X0178348Y0136445D01*
X0176972Y0135069D01*
X0176228Y0133272D01*
X0176228Y0131326D01*
X0176972Y0129529D01*
X0178348Y0128153D01*
X0180145Y0127409D01*
X0182091Y0127409D01*
X0183888Y0128153D01*
X0185264Y0129529D01*
X0186009Y0131326D01*
X0186009Y0133272D01*
X0185264Y0135069D01*
X0183888Y0136445D01*
X0183109Y0136768D01*
X0183109Y0161864D01*
X0170117Y0174856D01*
X0168950Y0176022D01*
X0148751Y0176022D01*
X0148419Y0176355D01*
X0147411Y0176772D01*
X0146321Y0176772D01*
X0145314Y0176355D01*
X0144543Y0175584D01*
X0144126Y0174577D01*
X0144126Y0173486D01*
X0144543Y0172479D01*
X0145314Y0171708D01*
X0146321Y0171291D01*
X0147411Y0171291D01*
X0148419Y0171708D01*
X0148751Y0172041D01*
X0167301Y0172041D01*
X0179128Y0160215D01*
X0179128Y0136768D01*
X0178503Y0136509D02*
X0099288Y0136509D01*
X0098592Y0137205D02*
X0096322Y0137205D01*
X0094716Y0135600D01*
X0094716Y0134539D01*
X0087774Y0127597D01*
X0086940Y0127597D01*
X0086190Y0128347D01*
X0083920Y0128347D01*
X0082315Y0126741D01*
X0082315Y0124471D01*
X0083920Y0122866D01*
X0086190Y0122866D01*
X0086940Y0123616D01*
X0089097Y0123616D01*
X0089289Y0123808D01*
X0089382Y0123846D01*
X0089654Y0123846D01*
X0089846Y0124039D01*
X0090237Y0124429D01*
X0090820Y0125012D01*
X0090820Y0125012D01*
X0097531Y0131724D01*
X0098592Y0131724D01*
X0100197Y0133329D01*
X0100197Y0135600D01*
X0098592Y0137205D01*
X0100197Y0135330D02*
X0177232Y0135330D01*
X0176591Y0134150D02*
X0100197Y0134150D01*
X0099838Y0132970D02*
X0176228Y0132970D01*
X0176228Y0131791D02*
X0098659Y0131791D01*
X0096418Y0130611D02*
X0176524Y0130611D01*
X0177069Y0129432D02*
X0095239Y0129432D01*
X0094059Y0128252D02*
X0178249Y0128252D01*
X0179862Y0127072D02*
X0092880Y0127072D01*
X0091700Y0125893D02*
X0177795Y0125893D01*
X0176825Y0124713D02*
X0090520Y0124713D01*
X0088429Y0128252D02*
X0086285Y0128252D01*
X0083825Y0128252D02*
X0081718Y0128252D01*
X0081718Y0127072D02*
X0082646Y0127072D01*
X0082315Y0125893D02*
X0081718Y0125893D01*
X0081718Y0124713D02*
X0082315Y0124713D01*
X0081718Y0123534D02*
X0083252Y0123534D01*
X0081718Y0122354D02*
X0176228Y0122354D01*
X0176291Y0121174D02*
X0081718Y0121174D01*
X0081718Y0119995D02*
X0176779Y0119995D01*
X0177686Y0118815D02*
X0081718Y0118815D01*
X0081718Y0117636D02*
X0179128Y0117636D01*
X0179128Y0116456D02*
X0081718Y0116456D01*
X0081718Y0115276D02*
X0179128Y0115276D01*
X0179128Y0114097D02*
X0081718Y0114097D01*
X0081718Y0112917D02*
X0179128Y0112917D01*
X0179128Y0111737D02*
X0082151Y0111737D01*
X0083331Y0110558D02*
X0178215Y0110558D01*
X0177036Y0109378D02*
X0084511Y0109378D01*
X0085690Y0108199D02*
X0175856Y0108199D01*
X0174676Y0107019D02*
X0086870Y0107019D01*
X0088050Y0105839D02*
X0146286Y0105839D01*
X0146286Y0104660D02*
X0089229Y0104660D01*
X0090409Y0103480D02*
X0146286Y0103480D01*
X0146286Y0102301D02*
X0116785Y0102301D01*
X0117965Y0101121D02*
X0146286Y0101121D01*
X0146809Y0099941D02*
X0146812Y0099941D01*
X0146902Y0098762D02*
X0166419Y0098762D01*
X0167599Y0099941D02*
X0155227Y0099941D01*
X0155754Y0101121D02*
X0168778Y0101121D01*
X0169958Y0102301D02*
X0155754Y0102301D01*
X0155754Y0103480D02*
X0171138Y0103480D01*
X0172317Y0104660D02*
X0155754Y0104660D01*
X0155754Y0105839D02*
X0173497Y0105839D01*
X0176768Y0103480D02*
X0188476Y0103480D01*
X0188476Y0102301D02*
X0175588Y0102301D01*
X0174408Y0101121D02*
X0188476Y0101121D01*
X0188476Y0099941D02*
X0173229Y0099941D01*
X0172049Y0098762D02*
X0188476Y0098762D01*
X0188476Y0097582D02*
X0170870Y0097582D01*
X0169690Y0096402D02*
X0188476Y0096402D01*
X0188476Y0095223D02*
X0168510Y0095223D01*
X0167331Y0094043D02*
X0188476Y0094043D01*
X0188476Y0092864D02*
X0166151Y0092864D01*
X0164972Y0091684D02*
X0188476Y0091684D01*
X0188476Y0090504D02*
X0163792Y0090504D01*
X0162612Y0089325D02*
X0188476Y0089325D01*
X0188476Y0088145D02*
X0161433Y0088145D01*
X0161246Y0086966D02*
X0188476Y0086966D01*
X0188476Y0085786D02*
X0161246Y0085786D01*
X0161246Y0084606D02*
X0188476Y0084606D01*
X0188476Y0083427D02*
X0161246Y0083427D01*
X0161246Y0082247D02*
X0188476Y0082247D01*
X0188476Y0081067D02*
X0161246Y0081067D01*
X0161246Y0079888D02*
X0188476Y0079888D01*
X0188476Y0078708D02*
X0161443Y0078708D01*
X0161443Y0077529D02*
X0188476Y0077529D01*
X0188476Y0076349D02*
X0161443Y0076349D01*
X0161443Y0075169D02*
X0188476Y0075169D01*
X0188476Y0073990D02*
X0161443Y0073990D01*
X0161443Y0072810D02*
X0188476Y0072810D01*
X0188476Y0071631D02*
X0161443Y0071631D01*
X0161455Y0070451D02*
X0188476Y0070451D01*
X0188476Y0069271D02*
X0161455Y0069271D01*
X0161455Y0068092D02*
X0188476Y0068092D01*
X0188476Y0066912D02*
X0161455Y0066912D01*
X0161455Y0065733D02*
X0188476Y0065733D01*
X0188476Y0064553D02*
X0161455Y0064553D01*
X0161455Y0063373D02*
X0188476Y0063373D01*
X0188476Y0062194D02*
X0161455Y0062194D01*
X0161455Y0061014D02*
X0188476Y0061014D01*
X0188476Y0059834D02*
X0161455Y0059834D01*
X0161455Y0058655D02*
X0164832Y0058655D01*
X0162818Y0057475D02*
X0161455Y0057475D01*
X0161455Y0056296D02*
X0161646Y0056296D01*
X0161668Y0049218D02*
X0161455Y0049218D01*
X0161455Y0048038D02*
X0162848Y0048038D01*
X0161455Y0046859D02*
X0164903Y0046859D01*
X0161455Y0045679D02*
X0188476Y0045679D01*
X0188476Y0044499D02*
X0161455Y0044499D01*
X0161455Y0043320D02*
X0188476Y0043320D01*
X0188476Y0042140D02*
X0161455Y0042140D01*
X0161455Y0040961D02*
X0188476Y0040961D01*
X0188476Y0039781D02*
X0161455Y0039781D01*
X0161455Y0038601D02*
X0188476Y0038601D01*
X0188476Y0037422D02*
X0161455Y0037422D01*
X0161455Y0036242D02*
X0188476Y0036242D01*
X0188476Y0035063D02*
X0161455Y0035063D01*
X0161455Y0033883D02*
X0188476Y0033883D01*
X0188476Y0032703D02*
X0161455Y0032703D01*
X0161455Y0031524D02*
X0188476Y0031524D01*
X0188476Y0030344D02*
X0161455Y0030344D01*
X0161455Y0029164D02*
X0188476Y0029164D01*
X0188476Y0027985D02*
X0161455Y0027985D01*
X0161455Y0026805D02*
X0188476Y0026805D01*
X0188476Y0025626D02*
X0161455Y0025626D01*
X0161455Y0024446D02*
X0188476Y0024446D01*
X0188476Y0023266D02*
X0161455Y0023266D01*
X0161455Y0022087D02*
X0188476Y0022087D01*
X0188476Y0020907D02*
X0161455Y0020907D01*
X0161455Y0019728D02*
X0188476Y0019728D01*
X0188476Y0018548D02*
X0161455Y0018548D01*
X0161128Y0017368D02*
X0188476Y0017368D01*
X0188476Y0016189D02*
X0159949Y0016189D01*
X0158769Y0015009D02*
X0188476Y0015009D01*
X0188476Y0013830D02*
X0157589Y0013830D01*
X0156410Y0012650D02*
X0188476Y0012650D01*
X0188476Y0011470D02*
X0155230Y0011470D01*
X0154051Y0010291D02*
X0188476Y0010291D01*
X0188476Y0009111D02*
X0152871Y0009111D01*
X0151691Y0007931D02*
X0188476Y0007931D01*
X0188476Y0006752D02*
X0150512Y0006752D01*
X0149332Y0005572D02*
X0188476Y0005572D01*
X0188476Y0004393D02*
X0148153Y0004393D01*
X0146061Y0007931D02*
X0046096Y0007931D01*
X0047276Y0006752D02*
X0144882Y0006752D01*
X0147241Y0009111D02*
X0044917Y0009111D01*
X0043737Y0010291D02*
X0148420Y0010291D01*
X0149600Y0011470D02*
X0042557Y0011470D01*
X0041378Y0012650D02*
X0150780Y0012650D01*
X0151959Y0013830D02*
X0040198Y0013830D01*
X0039802Y0015009D02*
X0153139Y0015009D01*
X0154319Y0016189D02*
X0039802Y0016189D01*
X0039802Y0017368D02*
X0155498Y0017368D01*
X0156678Y0018548D02*
X0039802Y0018548D01*
X0039802Y0019728D02*
X0157474Y0019728D01*
X0157474Y0020907D02*
X0039802Y0020907D01*
X0039802Y0022087D02*
X0157474Y0022087D01*
X0157474Y0023266D02*
X0039802Y0023266D01*
X0039802Y0024446D02*
X0157474Y0024446D01*
X0157474Y0025626D02*
X0039802Y0025626D01*
X0039802Y0026805D02*
X0157474Y0026805D01*
X0157474Y0027985D02*
X0039802Y0027985D01*
X0039802Y0029164D02*
X0157474Y0029164D01*
X0157474Y0030344D02*
X0039802Y0030344D01*
X0039802Y0031524D02*
X0157474Y0031524D01*
X0157474Y0032703D02*
X0039802Y0032703D01*
X0039802Y0033883D02*
X0157474Y0033883D01*
X0157474Y0035063D02*
X0039802Y0035063D01*
X0039802Y0036242D02*
X0157474Y0036242D01*
X0157474Y0037422D02*
X0039802Y0037422D01*
X0039802Y0038601D02*
X0157474Y0038601D01*
X0157474Y0039781D02*
X0039802Y0039781D01*
X0039802Y0040961D02*
X0157474Y0040961D01*
X0157474Y0042140D02*
X0039802Y0042140D01*
X0039802Y0043320D02*
X0157474Y0043320D01*
X0157474Y0044499D02*
X0039802Y0044499D01*
X0039802Y0045679D02*
X0157474Y0045679D01*
X0157474Y0049218D02*
X0123044Y0049218D01*
X0124224Y0050398D02*
X0157474Y0050398D01*
X0157474Y0051577D02*
X0125404Y0051577D01*
X0126583Y0052757D02*
X0157474Y0052757D01*
X0157474Y0053936D02*
X0127763Y0053936D01*
X0128942Y0055116D02*
X0157474Y0055116D01*
X0157474Y0056296D02*
X0130122Y0056296D01*
X0131302Y0057475D02*
X0157474Y0057475D01*
X0157474Y0058655D02*
X0132481Y0058655D01*
X0133661Y0059834D02*
X0157474Y0059834D01*
X0157474Y0061014D02*
X0133883Y0061014D01*
X0133883Y0062194D02*
X0157474Y0062194D01*
X0157474Y0063373D02*
X0133883Y0063373D01*
X0133883Y0064553D02*
X0157474Y0064553D01*
X0157474Y0065733D02*
X0133883Y0065733D01*
X0133883Y0066912D02*
X0157474Y0066912D01*
X0157474Y0068092D02*
X0133883Y0068092D01*
X0133883Y0069271D02*
X0157474Y0069271D01*
X0157474Y0070451D02*
X0155658Y0070451D01*
X0155754Y0070546D02*
X0155754Y0076257D01*
X0155056Y0076954D01*
X0146983Y0076954D01*
X0146286Y0076257D01*
X0146286Y0070546D01*
X0146983Y0069849D01*
X0155056Y0069849D01*
X0155754Y0070546D01*
X0155754Y0071631D02*
X0157487Y0071631D01*
X0157487Y0072810D02*
X0155754Y0072810D01*
X0155754Y0073990D02*
X0157487Y0073990D01*
X0157487Y0075169D02*
X0155754Y0075169D01*
X0155661Y0076349D02*
X0157487Y0076349D01*
X0157487Y0077529D02*
X0146502Y0077529D01*
X0146502Y0078708D02*
X0156715Y0078708D01*
X0155535Y0079888D02*
X0146502Y0079888D01*
X0146502Y0081067D02*
X0154356Y0081067D01*
X0153176Y0082247D02*
X0146502Y0082247D01*
X0146502Y0083427D02*
X0151996Y0083427D01*
X0155232Y0085786D02*
X0157290Y0085786D01*
X0157290Y0086966D02*
X0154052Y0086966D01*
X0152873Y0088145D02*
X0157277Y0088145D01*
X0157277Y0089325D02*
X0146502Y0089325D01*
X0146502Y0090504D02*
X0158162Y0090504D01*
X0159341Y0091684D02*
X0146502Y0091684D01*
X0146502Y0092864D02*
X0160521Y0092864D01*
X0161701Y0094043D02*
X0146502Y0094043D01*
X0146502Y0095223D02*
X0162880Y0095223D01*
X0164060Y0096402D02*
X0146789Y0096402D01*
X0146902Y0097582D02*
X0165239Y0097582D01*
X0157290Y0084606D02*
X0156411Y0084606D01*
X0146378Y0076349D02*
X0146005Y0076349D01*
X0146286Y0075169D02*
X0136397Y0075169D01*
X0135218Y0073990D02*
X0146286Y0073990D01*
X0146286Y0072810D02*
X0134038Y0072810D01*
X0133883Y0071631D02*
X0146286Y0071631D01*
X0146381Y0070451D02*
X0133883Y0070451D01*
X0129140Y0070451D02*
X0128372Y0070451D01*
X0128372Y0071631D02*
X0129140Y0071631D01*
X0129140Y0072810D02*
X0128372Y0072810D01*
X0128919Y0073990D02*
X0129140Y0073990D01*
X0129140Y0069271D02*
X0127743Y0069271D01*
X0126564Y0068092D02*
X0129140Y0068092D01*
X0129140Y0066912D02*
X0125384Y0066912D01*
X0124205Y0065733D02*
X0129140Y0065733D01*
X0129140Y0064553D02*
X0123025Y0064553D01*
X0112594Y0068092D02*
X0108934Y0068092D01*
X0109994Y0066912D02*
X0111533Y0066912D01*
X0111045Y0065733D02*
X0110483Y0065733D01*
X0110654Y0064553D02*
X0110873Y0064553D01*
X0110873Y0063373D02*
X0110654Y0063373D01*
X0110654Y0062194D02*
X0110873Y0062194D01*
X0110873Y0061014D02*
X0110654Y0061014D01*
X0110654Y0059834D02*
X0110873Y0059834D01*
X0110873Y0058655D02*
X0110654Y0058655D01*
X0110654Y0057475D02*
X0110873Y0057475D01*
X0110873Y0056296D02*
X0110654Y0056296D01*
X0110299Y0055116D02*
X0111228Y0055116D01*
X0111260Y0053936D02*
X0111857Y0053936D01*
X0112440Y0052757D02*
X0113097Y0052757D01*
X0121906Y0090331D02*
X0142260Y0090331D01*
X0142102Y0094110D02*
X0142260Y0094268D01*
X0142102Y0094110D02*
X0122457Y0094110D01*
X0115764Y0100803D01*
X0090893Y0100803D01*
X0090336Y0101034D02*
X0079937Y0111433D01*
X0079937Y0131186D01*
X0079706Y0131742D02*
X0074425Y0137024D01*
X0077458Y0136509D02*
X0095626Y0136509D01*
X0094716Y0135330D02*
X0078638Y0135330D01*
X0079818Y0134150D02*
X0094327Y0134150D01*
X0093148Y0132970D02*
X0080997Y0132970D01*
X0081327Y0132641D02*
X0081327Y0132641D01*
X0081718Y0131791D02*
X0091968Y0131791D01*
X0090788Y0130611D02*
X0081718Y0130611D01*
X0081718Y0129432D02*
X0089609Y0129432D01*
X0086858Y0123534D02*
X0176336Y0123534D01*
X0182374Y0127072D02*
X0188476Y0127072D01*
X0188476Y0125893D02*
X0184441Y0125893D01*
X0185412Y0124713D02*
X0188476Y0124713D01*
X0188476Y0123534D02*
X0185900Y0123534D01*
X0186009Y0122354D02*
X0188476Y0122354D01*
X0188476Y0121174D02*
X0185946Y0121174D01*
X0185457Y0119995D02*
X0188476Y0119995D01*
X0188476Y0118815D02*
X0184550Y0118815D01*
X0183109Y0117636D02*
X0188476Y0117636D01*
X0188476Y0116456D02*
X0183109Y0116456D01*
X0183109Y0115276D02*
X0188476Y0115276D01*
X0188476Y0114097D02*
X0183109Y0114097D01*
X0183109Y0112917D02*
X0188476Y0112917D01*
X0188476Y0111737D02*
X0183109Y0111737D01*
X0183109Y0110558D02*
X0188476Y0110558D01*
X0188476Y0109378D02*
X0182666Y0109378D01*
X0181486Y0108199D02*
X0188476Y0108199D01*
X0188476Y0107019D02*
X0180306Y0107019D01*
X0179127Y0105839D02*
X0188476Y0105839D01*
X0188476Y0104660D02*
X0177947Y0104660D01*
X0183987Y0128252D02*
X0188476Y0128252D01*
X0188476Y0129432D02*
X0185167Y0129432D01*
X0185712Y0130611D02*
X0188476Y0130611D01*
X0188476Y0131791D02*
X0186009Y0131791D01*
X0186009Y0132970D02*
X0188476Y0132970D01*
X0188476Y0134150D02*
X0185645Y0134150D01*
X0185004Y0135330D02*
X0188476Y0135330D01*
X0188476Y0136509D02*
X0183734Y0136509D01*
X0183109Y0137689D02*
X0188476Y0137689D01*
X0188476Y0138869D02*
X0183109Y0138869D01*
X0183109Y0140048D02*
X0188476Y0140048D01*
X0188476Y0141228D02*
X0183109Y0141228D01*
X0183109Y0142407D02*
X0188476Y0142407D01*
X0188476Y0143587D02*
X0183109Y0143587D01*
X0183109Y0144767D02*
X0188476Y0144767D01*
X0188476Y0145946D02*
X0183109Y0145946D01*
X0183109Y0147126D02*
X0188476Y0147126D01*
X0188476Y0148305D02*
X0183109Y0148305D01*
X0183109Y0149485D02*
X0188476Y0149485D01*
X0188476Y0150665D02*
X0183109Y0150665D01*
X0183109Y0151844D02*
X0188476Y0151844D01*
X0188476Y0153024D02*
X0183109Y0153024D01*
X0183109Y0154204D02*
X0188476Y0154204D01*
X0188476Y0155383D02*
X0183109Y0155383D01*
X0183109Y0156563D02*
X0188476Y0156563D01*
X0188476Y0157742D02*
X0183109Y0157742D01*
X0183109Y0158922D02*
X0188476Y0158922D01*
X0188476Y0160102D02*
X0183109Y0160102D01*
X0183109Y0161281D02*
X0188476Y0161281D01*
X0188476Y0162461D02*
X0182512Y0162461D01*
X0181332Y0163640D02*
X0188476Y0163640D01*
X0188476Y0164820D02*
X0180152Y0164820D01*
X0178973Y0166000D02*
X0188476Y0166000D01*
X0188476Y0167179D02*
X0177793Y0167179D01*
X0176614Y0168359D02*
X0188476Y0168359D01*
X0188476Y0169539D02*
X0175434Y0169539D01*
X0174254Y0170718D02*
X0188476Y0170718D01*
X0188476Y0171898D02*
X0173075Y0171898D01*
X0171895Y0173077D02*
X0188476Y0173077D01*
X0188476Y0174257D02*
X0170716Y0174257D01*
X0169536Y0175437D02*
X0188476Y0175437D01*
X0188476Y0176616D02*
X0147787Y0176616D01*
X0145945Y0176616D02*
X0090159Y0176616D01*
X0091338Y0177796D02*
X0188476Y0177796D01*
X0188476Y0178975D02*
X0092518Y0178975D01*
X0093698Y0180155D02*
X0188476Y0180155D01*
X0188476Y0181335D02*
X0094877Y0181335D01*
X0096057Y0182514D02*
X0188476Y0182514D01*
X0188476Y0183694D02*
X0097236Y0183694D01*
X0098416Y0184873D02*
X0188476Y0184873D01*
X0188476Y0186053D02*
X0099596Y0186053D01*
X0100775Y0187233D02*
X0188476Y0187233D01*
X0188476Y0188412D02*
X0101955Y0188412D01*
X0103134Y0189592D02*
X0188476Y0189592D01*
X0188476Y0190772D02*
X0104314Y0190772D01*
X0105494Y0191951D02*
X0188476Y0191951D01*
X0188476Y0193131D02*
X0106673Y0193131D01*
X0107853Y0194310D02*
X0188476Y0194310D01*
X0188476Y0195490D02*
X0110389Y0195490D01*
X0111005Y0196670D02*
X0188476Y0196670D01*
X0188476Y0197849D02*
X0111006Y0197849D01*
X0110390Y0199029D02*
X0188476Y0199029D01*
X0188476Y0200208D02*
X0105274Y0200208D01*
X0106119Y0199029D02*
X0106177Y0199029D01*
X0108283Y0197260D02*
X0075213Y0164189D01*
X0065370Y0164189D01*
X0068179Y0161281D02*
X0061246Y0161281D01*
X0061246Y0160102D02*
X0068141Y0160102D01*
X0068730Y0158922D02*
X0061246Y0158922D01*
X0061246Y0157742D02*
X0068434Y0157742D01*
X0067788Y0156563D02*
X0061246Y0156563D01*
X0062001Y0155383D02*
X0067748Y0155383D01*
X0068330Y0154204D02*
X0062205Y0154204D01*
X0061883Y0153024D02*
X0179128Y0153024D01*
X0179128Y0154204D02*
X0075111Y0154204D01*
X0076291Y0155383D02*
X0179128Y0155383D01*
X0179128Y0156563D02*
X0137706Y0156563D01*
X0138886Y0157742D02*
X0179128Y0157742D01*
X0179128Y0158922D02*
X0140066Y0158922D01*
X0141245Y0160102D02*
X0179128Y0160102D01*
X0178061Y0161281D02*
X0142425Y0161281D01*
X0144683Y0162461D02*
X0176882Y0162461D01*
X0175702Y0163640D02*
X0145505Y0163640D01*
X0145670Y0164820D02*
X0174522Y0164820D01*
X0173343Y0166000D02*
X0145309Y0166000D01*
X0145071Y0167179D02*
X0172163Y0167179D01*
X0170984Y0168359D02*
X0145666Y0168359D01*
X0145637Y0169539D02*
X0169804Y0169539D01*
X0168624Y0170718D02*
X0145000Y0170718D01*
X0145124Y0171898D02*
X0085440Y0171898D01*
X0086620Y0173077D02*
X0144295Y0173077D01*
X0144126Y0174257D02*
X0087799Y0174257D01*
X0088979Y0175437D02*
X0144482Y0175437D01*
X0142929Y0168913D02*
X0134661Y0160646D01*
X0070882Y0160646D01*
X0073638Y0168126D02*
X0103559Y0198047D01*
X0100999Y0199029D02*
X0082309Y0199029D01*
X0082309Y0200208D02*
X0101845Y0200208D01*
X0100819Y0197849D02*
X0082309Y0197849D01*
X0082309Y0196670D02*
X0099663Y0196670D01*
X0098483Y0195490D02*
X0082309Y0195490D01*
X0082309Y0194310D02*
X0097303Y0194310D01*
X0096124Y0193131D02*
X0082309Y0193131D01*
X0082309Y0191951D02*
X0094944Y0191951D01*
X0093765Y0190772D02*
X0082309Y0190772D01*
X0082309Y0189592D02*
X0092585Y0189592D01*
X0091405Y0188412D02*
X0082309Y0188412D01*
X0082309Y0187233D02*
X0090226Y0187233D01*
X0089046Y0186053D02*
X0082309Y0186053D01*
X0082309Y0184873D02*
X0087866Y0184873D01*
X0086687Y0183694D02*
X0082309Y0183694D01*
X0082417Y0182514D02*
X0085507Y0182514D01*
X0084328Y0181335D02*
X0083044Y0181335D01*
X0083061Y0180155D02*
X0083148Y0180155D01*
X0080789Y0177796D02*
X0067151Y0177796D01*
X0066143Y0176616D02*
X0079609Y0176616D01*
X0078430Y0175437D02*
X0076108Y0175437D01*
X0076972Y0174257D02*
X0077250Y0174257D01*
X0074425Y0173244D02*
X0073244Y0172063D01*
X0062614Y0172063D01*
X0059465Y0168913D01*
X0059465Y0154346D01*
X0060585Y0151844D02*
X0179128Y0151844D01*
X0179128Y0150665D02*
X0055340Y0150665D01*
X0055340Y0151844D02*
X0058344Y0151844D01*
X0057046Y0153024D02*
X0055340Y0153024D01*
X0055340Y0154204D02*
X0056724Y0154204D01*
X0056928Y0155383D02*
X0055340Y0155383D01*
X0055340Y0156563D02*
X0057683Y0156563D01*
X0057683Y0157742D02*
X0055340Y0157742D01*
X0055340Y0158922D02*
X0057683Y0158922D01*
X0057683Y0160102D02*
X0055340Y0160102D01*
X0055340Y0161281D02*
X0057683Y0161281D01*
X0057683Y0162461D02*
X0055340Y0162461D01*
X0055340Y0163640D02*
X0057683Y0163640D01*
X0057683Y0164820D02*
X0055340Y0164820D01*
X0055526Y0166000D02*
X0057683Y0166000D01*
X0057683Y0167179D02*
X0056706Y0167179D01*
X0061246Y0166000D02*
X0062046Y0166000D01*
X0062665Y0164820D02*
X0061246Y0164820D01*
X0061246Y0163640D02*
X0062631Y0163640D01*
X0063222Y0162461D02*
X0061246Y0162461D01*
X0063795Y0168126D02*
X0073638Y0168126D01*
X0076003Y0162461D02*
X0133958Y0162461D01*
X0135137Y0163640D02*
X0077183Y0163640D01*
X0078363Y0164820D02*
X0136317Y0164820D01*
X0137497Y0166000D02*
X0079542Y0166000D01*
X0080722Y0167179D02*
X0138676Y0167179D01*
X0139856Y0168359D02*
X0081901Y0168359D01*
X0083081Y0169539D02*
X0140222Y0169539D01*
X0140858Y0170718D02*
X0084261Y0170718D01*
X0072742Y0175437D02*
X0064963Y0175437D01*
X0063784Y0174257D02*
X0071878Y0174257D01*
X0082309Y0201388D02*
X0188476Y0201388D01*
X0188476Y0202568D02*
X0082309Y0202568D01*
X0083316Y0203747D02*
X0188476Y0203747D01*
X0188476Y0204927D02*
X0084496Y0204927D01*
X0085675Y0206107D02*
X0188476Y0206107D01*
X0188476Y0207286D02*
X0086855Y0207286D01*
X0088035Y0208466D02*
X0188476Y0208466D01*
X0188476Y0209645D02*
X0089214Y0209645D01*
X0090394Y0210825D02*
X0188476Y0210825D01*
X0188476Y0212005D02*
X0091574Y0212005D01*
X0092753Y0213184D02*
X0188476Y0213184D01*
X0188476Y0214364D02*
X0093933Y0214364D01*
X0095112Y0215543D02*
X0188476Y0215543D01*
X0188476Y0216723D02*
X0096292Y0216723D01*
X0097472Y0217903D02*
X0188476Y0217903D01*
X0188476Y0219082D02*
X0098651Y0219082D01*
X0099831Y0220262D02*
X0188476Y0220262D01*
X0188476Y0221442D02*
X0101010Y0221442D01*
X0102190Y0222621D02*
X0188476Y0222621D01*
X0188476Y0223801D02*
X0103370Y0223801D01*
X0104549Y0224980D02*
X0188476Y0224980D01*
X0188476Y0226160D02*
X0105729Y0226160D01*
X0106908Y0227340D02*
X0188476Y0227340D01*
X0188476Y0228519D02*
X0108088Y0228519D01*
X0109268Y0229699D02*
X0188476Y0229699D01*
X0188476Y0230878D02*
X0110447Y0230878D01*
X0111627Y0232058D02*
X0188476Y0232058D01*
X0188476Y0233238D02*
X0112807Y0233238D01*
X0113986Y0234417D02*
X0131395Y0234417D01*
X0131209Y0234603D02*
X0131847Y0233965D01*
X0132751Y0233965D01*
X0186294Y0233965D01*
X0186933Y0234603D01*
X0186933Y0260704D01*
X0186294Y0261343D01*
X0131847Y0261343D01*
X0131209Y0260704D01*
X0131209Y0234603D01*
X0131209Y0235597D02*
X0115166Y0235597D01*
X0116345Y0236777D02*
X0131209Y0236777D01*
X0131209Y0237956D02*
X0117525Y0237956D01*
X0118705Y0239136D02*
X0131209Y0239136D01*
X0131209Y0240315D02*
X0119884Y0240315D01*
X0121064Y0241495D02*
X0131209Y0241495D01*
X0131209Y0242675D02*
X0122243Y0242675D01*
X0123423Y0243854D02*
X0131209Y0243854D01*
X0131209Y0245034D02*
X0124603Y0245034D01*
X0125782Y0246213D02*
X0131209Y0246213D01*
X0131209Y0247393D02*
X0126962Y0247393D01*
X0128142Y0248573D02*
X0131209Y0248573D01*
X0131209Y0249752D02*
X0129321Y0249752D01*
X0129553Y0250932D02*
X0131209Y0250932D01*
X0131209Y0252111D02*
X0129553Y0252111D01*
X0129553Y0253291D02*
X0131209Y0253291D01*
X0131209Y0254471D02*
X0129553Y0254471D01*
X0129553Y0255650D02*
X0131209Y0255650D01*
X0131209Y0256830D02*
X0129553Y0256830D01*
X0129553Y0258010D02*
X0131209Y0258010D01*
X0131209Y0259189D02*
X0129553Y0259189D01*
X0129553Y0260369D02*
X0131209Y0260369D01*
X0129553Y0261548D02*
X0188476Y0261548D01*
X0188476Y0260369D02*
X0186933Y0260369D01*
X0186933Y0259189D02*
X0188476Y0259189D01*
X0188476Y0258010D02*
X0186933Y0258010D01*
X0186933Y0256830D02*
X0188476Y0256830D01*
X0188476Y0255650D02*
X0186933Y0255650D01*
X0186933Y0254471D02*
X0188476Y0254471D01*
X0188476Y0253291D02*
X0186933Y0253291D01*
X0186933Y0252111D02*
X0188476Y0252111D01*
X0188476Y0250932D02*
X0186933Y0250932D01*
X0186933Y0249752D02*
X0188476Y0249752D01*
X0188476Y0248573D02*
X0186933Y0248573D01*
X0186933Y0247393D02*
X0188476Y0247393D01*
X0188476Y0246213D02*
X0186933Y0246213D01*
X0186933Y0245034D02*
X0188476Y0245034D01*
X0188476Y0243854D02*
X0186933Y0243854D01*
X0186933Y0242675D02*
X0188476Y0242675D01*
X0188476Y0241495D02*
X0186933Y0241495D01*
X0186933Y0240315D02*
X0188476Y0240315D01*
X0188476Y0239136D02*
X0186933Y0239136D01*
X0186933Y0237956D02*
X0188476Y0237956D01*
X0188476Y0236777D02*
X0186933Y0236777D01*
X0186933Y0235597D02*
X0188476Y0235597D01*
X0188476Y0234417D02*
X0186747Y0234417D01*
X0188476Y0262728D02*
X0129553Y0262728D01*
X0129553Y0263908D02*
X0188476Y0263908D01*
X0188476Y0265087D02*
X0129553Y0265087D01*
X0129553Y0266267D02*
X0188476Y0266267D01*
X0188476Y0267446D02*
X0129553Y0267446D01*
X0129553Y0268626D02*
X0188476Y0268626D01*
X0188476Y0269806D02*
X0129553Y0269806D01*
X0129553Y0270985D02*
X0188476Y0270985D01*
X0188476Y0272165D02*
X0128695Y0272165D01*
X0127516Y0273345D02*
X0188476Y0273345D01*
X0188476Y0274524D02*
X0126336Y0274524D01*
X0125156Y0275704D02*
X0188476Y0275704D01*
X0188476Y0276883D02*
X0123977Y0276883D01*
X0122797Y0278063D02*
X0188476Y0278063D01*
X0188476Y0279243D02*
X0121618Y0279243D01*
X0120438Y0280422D02*
X0181672Y0280422D01*
X0181819Y0280361D02*
X0183764Y0280361D01*
X0185562Y0281106D01*
X0186937Y0282482D01*
X0187682Y0284279D01*
X0187682Y0286225D01*
X0186937Y0288022D01*
X0185562Y0289398D01*
X0183764Y0290143D01*
X0181819Y0290143D01*
X0180021Y0289398D01*
X0178645Y0288022D01*
X0177901Y0286225D01*
X0177901Y0284279D01*
X0178645Y0282482D01*
X0180021Y0281106D01*
X0181819Y0280361D01*
X0183911Y0280422D02*
X0188476Y0280422D01*
X0188476Y0281602D02*
X0186057Y0281602D01*
X0187061Y0282781D02*
X0188476Y0282781D01*
X0188476Y0283961D02*
X0187550Y0283961D01*
X0187682Y0285141D02*
X0188476Y0285141D01*
X0188476Y0286320D02*
X0187642Y0286320D01*
X0187154Y0287500D02*
X0188476Y0287500D01*
X0188476Y0288680D02*
X0186280Y0288680D01*
X0184448Y0289859D02*
X0188476Y0289859D01*
X0188476Y0291039D02*
X0170267Y0291039D01*
X0170267Y0292218D02*
X0188476Y0292218D01*
X0188476Y0293398D02*
X0170105Y0293398D01*
X0170159Y0293306D02*
X0169949Y0293669D01*
X0169653Y0293965D01*
X0169290Y0294174D01*
X0168886Y0294283D01*
X0165370Y0294283D01*
X0165370Y0289386D01*
X0164583Y0289386D01*
X0164583Y0294283D01*
X0161067Y0294283D01*
X0160662Y0294174D01*
X0160300Y0293965D01*
X0160004Y0293669D01*
X0159834Y0293375D01*
X0159327Y0293883D01*
X0150941Y0293883D01*
X0150243Y0293185D01*
X0150243Y0284799D01*
X0150941Y0284102D01*
X0159327Y0284102D01*
X0159834Y0284609D01*
X0160004Y0284316D01*
X0160300Y0284019D01*
X0160662Y0283810D01*
X0161067Y0283702D01*
X0164583Y0283702D01*
X0164583Y0288598D01*
X0165370Y0288598D01*
X0165370Y0283702D01*
X0168886Y0283702D01*
X0169290Y0283810D01*
X0169653Y0284019D01*
X0169949Y0284316D01*
X0170159Y0284678D01*
X0170267Y0285083D01*
X0170267Y0288598D01*
X0165370Y0288598D01*
X0165370Y0289386D01*
X0170267Y0289386D01*
X0170267Y0292902D01*
X0170159Y0293306D01*
X0170267Y0289859D02*
X0181134Y0289859D01*
X0179303Y0288680D02*
X0165370Y0288680D01*
X0165370Y0289859D02*
X0164583Y0289859D01*
X0164583Y0291039D02*
X0165370Y0291039D01*
X0165370Y0292218D02*
X0164583Y0292218D01*
X0164583Y0293398D02*
X0165370Y0293398D01*
X0165370Y0287500D02*
X0164583Y0287500D01*
X0164583Y0286320D02*
X0165370Y0286320D01*
X0165370Y0285141D02*
X0164583Y0285141D01*
X0164583Y0283961D02*
X0165370Y0283961D01*
X0169552Y0283961D02*
X0178033Y0283961D01*
X0177901Y0285141D02*
X0170267Y0285141D01*
X0170267Y0286320D02*
X0177940Y0286320D01*
X0178429Y0287500D02*
X0170267Y0287500D01*
X0178521Y0282781D02*
X0118079Y0282781D01*
X0119258Y0281602D02*
X0179525Y0281602D01*
X0188476Y0294578D02*
X0120498Y0294578D01*
X0120498Y0295757D02*
X0188476Y0295757D01*
X0188476Y0296937D02*
X0120498Y0296937D01*
X0120498Y0298116D02*
X0188476Y0298116D01*
X0188476Y0299296D02*
X0120498Y0299296D01*
X0119827Y0300476D02*
X0188476Y0300476D01*
X0188476Y0301655D02*
X0118648Y0301655D01*
X0117468Y0302835D02*
X0188476Y0302835D01*
X0188476Y0304014D02*
X0003681Y0304014D01*
X0003681Y0302835D02*
X0074689Y0302835D01*
X0075817Y0303962D02*
X0071660Y0299805D01*
X0071660Y0293927D01*
X0075817Y0289770D01*
X0081695Y0289770D01*
X0085852Y0293927D01*
X0085852Y0299805D01*
X0081695Y0303962D01*
X0075817Y0303962D01*
X0073510Y0301655D02*
X0003681Y0301655D01*
X0003681Y0300476D02*
X0072330Y0300476D01*
X0071660Y0299296D02*
X0003681Y0299296D01*
X0003681Y0298116D02*
X0071660Y0298116D01*
X0071660Y0296937D02*
X0003681Y0296937D01*
X0003681Y0295757D02*
X0071660Y0295757D01*
X0071660Y0294578D02*
X0003681Y0294578D01*
X0003681Y0293398D02*
X0020535Y0293398D01*
X0020322Y0293185D02*
X0020322Y0284799D01*
X0021019Y0284102D01*
X0029406Y0284102D01*
X0030103Y0284799D01*
X0030103Y0293185D01*
X0029406Y0293883D01*
X0021019Y0293883D01*
X0020322Y0293185D01*
X0020322Y0292218D02*
X0003681Y0292218D01*
X0003681Y0291039D02*
X0020322Y0291039D01*
X0020322Y0289859D02*
X0003681Y0289859D01*
X0003681Y0288680D02*
X0020322Y0288680D01*
X0020322Y0287500D02*
X0003681Y0287500D01*
X0003681Y0286320D02*
X0020322Y0286320D01*
X0020322Y0285141D02*
X0003681Y0285141D01*
X0003681Y0274524D02*
X0012418Y0274524D01*
X0011238Y0273345D02*
X0003681Y0273345D01*
X0003681Y0272165D02*
X0010059Y0272165D01*
X0008879Y0270985D02*
X0003681Y0270985D01*
X0003681Y0269806D02*
X0007699Y0269806D01*
X0006520Y0268626D02*
X0003681Y0268626D01*
X0003681Y0267446D02*
X0005340Y0267446D01*
X0005112Y0266267D02*
X0003681Y0266267D01*
X0003681Y0265087D02*
X0005112Y0265087D01*
X0005112Y0263908D02*
X0003681Y0263908D01*
X0003681Y0262728D02*
X0005112Y0262728D01*
X0005112Y0261548D02*
X0003681Y0261548D01*
X0003681Y0260369D02*
X0005112Y0260369D01*
X0005112Y0259189D02*
X0003681Y0259189D01*
X0003681Y0258010D02*
X0005112Y0258010D01*
X0005112Y0256830D02*
X0003681Y0256830D01*
X0003681Y0255650D02*
X0005112Y0255650D01*
X0005112Y0254471D02*
X0003681Y0254471D01*
X0003681Y0253291D02*
X0005112Y0253291D01*
X0005112Y0252111D02*
X0003681Y0252111D01*
X0003681Y0250932D02*
X0005112Y0250932D01*
X0005112Y0249752D02*
X0003681Y0249752D01*
X0003681Y0248573D02*
X0005112Y0248573D01*
X0005112Y0247393D02*
X0003681Y0247393D01*
X0003681Y0246213D02*
X0005112Y0246213D01*
X0005112Y0245034D02*
X0003681Y0245034D01*
X0003681Y0243854D02*
X0005112Y0243854D01*
X0005112Y0242675D02*
X0003681Y0242675D01*
X0003681Y0241495D02*
X0005112Y0241495D01*
X0005112Y0240315D02*
X0003681Y0240315D01*
X0003681Y0239136D02*
X0005112Y0239136D01*
X0005112Y0237956D02*
X0003681Y0237956D01*
X0003681Y0236777D02*
X0005112Y0236777D01*
X0005112Y0235597D02*
X0003681Y0235597D01*
X0003681Y0234417D02*
X0005112Y0234417D01*
X0005112Y0233238D02*
X0003681Y0233238D01*
X0003681Y0232058D02*
X0005112Y0232058D01*
X0005112Y0230878D02*
X0003681Y0230878D01*
X0003681Y0229699D02*
X0005112Y0229699D01*
X0005112Y0228519D02*
X0003681Y0228519D01*
X0003681Y0227340D02*
X0005112Y0227340D01*
X0005112Y0226160D02*
X0003681Y0226160D01*
X0003681Y0224980D02*
X0005112Y0224980D01*
X0005112Y0223801D02*
X0003681Y0223801D01*
X0003681Y0222621D02*
X0005112Y0222621D01*
X0005112Y0221442D02*
X0003681Y0221442D01*
X0003681Y0220262D02*
X0005112Y0220262D01*
X0005112Y0219082D02*
X0003681Y0219082D01*
X0003681Y0217903D02*
X0005112Y0217903D01*
X0005112Y0216723D02*
X0003681Y0216723D01*
X0003681Y0215543D02*
X0005112Y0215543D01*
X0005112Y0214364D02*
X0003681Y0214364D01*
X0003681Y0213184D02*
X0005112Y0213184D01*
X0005112Y0212005D02*
X0003681Y0212005D01*
X0003681Y0210825D02*
X0005112Y0210825D01*
X0005112Y0209645D02*
X0003681Y0209645D01*
X0003681Y0208466D02*
X0005112Y0208466D01*
X0005112Y0207286D02*
X0003681Y0207286D01*
X0003681Y0206107D02*
X0005112Y0206107D01*
X0005112Y0204927D02*
X0003681Y0204927D01*
X0003681Y0203747D02*
X0005112Y0203747D01*
X0005112Y0202568D02*
X0003681Y0202568D01*
X0003681Y0201388D02*
X0005112Y0201388D01*
X0005984Y0200208D02*
X0003681Y0200208D01*
X0003681Y0199029D02*
X0007164Y0199029D01*
X0008344Y0197849D02*
X0003681Y0197849D01*
X0003681Y0196670D02*
X0009523Y0196670D01*
X0010978Y0195490D02*
X0003681Y0195490D01*
X0003681Y0121174D02*
X0012472Y0121174D01*
X0011292Y0119995D02*
X0003681Y0119995D01*
X0003681Y0118815D02*
X0010591Y0118815D01*
X0010591Y0117636D02*
X0003681Y0117636D01*
X0003681Y0116456D02*
X0010591Y0116456D01*
X0010591Y0115276D02*
X0003681Y0115276D01*
X0003681Y0114097D02*
X0011406Y0114097D01*
X0012585Y0112917D02*
X0003681Y0112917D01*
X0003681Y0111737D02*
X0013601Y0111737D01*
X0012421Y0110558D02*
X0003681Y0110558D01*
X0003681Y0109378D02*
X0011241Y0109378D01*
X0010991Y0108199D02*
X0003681Y0108199D01*
X0003681Y0107019D02*
X0010991Y0107019D01*
X0010991Y0105839D02*
X0003681Y0105839D01*
X0003681Y0104660D02*
X0011408Y0104660D01*
X0012588Y0103480D02*
X0003681Y0103480D01*
X0003681Y0102301D02*
X0013767Y0102301D01*
X0013856Y0101993D02*
X0010991Y0099128D01*
X0010991Y0095077D01*
X0013856Y0092212D01*
X0017908Y0092212D01*
X0020772Y0095077D01*
X0020772Y0099128D01*
X0017908Y0101993D01*
X0013856Y0101993D01*
X0012984Y0101121D02*
X0003681Y0101121D01*
X0003681Y0099941D02*
X0011805Y0099941D01*
X0010991Y0098762D02*
X0003681Y0098762D01*
X0003681Y0097582D02*
X0010991Y0097582D01*
X0010991Y0096402D02*
X0003681Y0096402D01*
X0003681Y0095223D02*
X0010991Y0095223D01*
X0012025Y0094043D02*
X0003681Y0094043D01*
X0003681Y0092864D02*
X0013204Y0092864D01*
X0018559Y0092864D02*
X0021037Y0092864D01*
X0020991Y0094043D02*
X0019739Y0094043D01*
X0020772Y0095223D02*
X0020991Y0095223D01*
X0020991Y0096402D02*
X0020772Y0096402D01*
X0020772Y0097582D02*
X0020991Y0097582D01*
X0020991Y0098762D02*
X0020772Y0098762D01*
X0020991Y0099941D02*
X0019959Y0099941D01*
X0020991Y0101121D02*
X0018780Y0101121D01*
X0017996Y0102301D02*
X0023767Y0102301D01*
X0022588Y0103480D02*
X0019176Y0103480D01*
X0020356Y0104660D02*
X0021408Y0104660D01*
X0020991Y0105839D02*
X0020772Y0105839D01*
X0020772Y0107019D02*
X0020991Y0107019D01*
X0020991Y0108199D02*
X0020772Y0108199D01*
X0020690Y0109378D02*
X0021241Y0109378D01*
X0016291Y0117636D02*
X0015472Y0117636D01*
X0015472Y0118815D02*
X0016291Y0118815D01*
X0029339Y0057475D02*
X0035820Y0057475D01*
X0035820Y0056296D02*
X0030511Y0056296D01*
X0031000Y0055116D02*
X0035820Y0055116D01*
X0035820Y0053936D02*
X0031457Y0053936D01*
X0031457Y0052757D02*
X0035820Y0052757D01*
X0035820Y0051577D02*
X0031457Y0051577D01*
X0030988Y0050398D02*
X0035820Y0050398D01*
X0035820Y0049218D02*
X0030489Y0049218D01*
X0029310Y0048038D02*
X0035820Y0048038D01*
X0035820Y0046859D02*
X0027254Y0046859D01*
X0088958Y0098278D02*
X0077772Y0109465D01*
X0077771Y0125871D02*
X0077769Y0125922D01*
X0077764Y0125974D01*
X0077756Y0126025D01*
X0077744Y0126075D01*
X0077729Y0126124D01*
X0077711Y0126172D01*
X0077690Y0126219D01*
X0077666Y0126264D01*
X0077638Y0126308D01*
X0077608Y0126350D01*
X0077576Y0126390D01*
X0077540Y0126427D01*
X0079937Y0131186D02*
X0079935Y0131237D01*
X0079930Y0131289D01*
X0079922Y0131340D01*
X0079910Y0131390D01*
X0079895Y0131439D01*
X0079877Y0131487D01*
X0079856Y0131534D01*
X0079832Y0131579D01*
X0079804Y0131623D01*
X0079774Y0131665D01*
X0079742Y0131705D01*
X0079706Y0131742D01*
X0080444Y0133524D02*
X0080444Y0133524D01*
X0090337Y0101035D02*
X0090374Y0100999D01*
X0090414Y0100967D01*
X0090456Y0100937D01*
X0090500Y0100909D01*
X0090545Y0100885D01*
X0090592Y0100864D01*
X0090640Y0100846D01*
X0090689Y0100831D01*
X0090739Y0100819D01*
X0090790Y0100811D01*
X0090842Y0100806D01*
X0090893Y0100804D01*
X0089515Y0098048D02*
X0089464Y0098050D01*
X0089412Y0098055D01*
X0089361Y0098063D01*
X0089311Y0098075D01*
X0089262Y0098090D01*
X0089214Y0098108D01*
X0089167Y0098129D01*
X0089122Y0098153D01*
X0089078Y0098181D01*
X0089036Y0098211D01*
X0088996Y0098243D01*
X0088959Y0098279D01*
X0089515Y0098047D02*
X0114189Y0098047D01*
X0121906Y0090331D01*
X0122683Y0096402D02*
X0137731Y0096402D01*
X0137618Y0097582D02*
X0121504Y0097582D01*
X0120324Y0098762D02*
X0137618Y0098762D01*
X0137711Y0099941D02*
X0119144Y0099941D01*
X0142260Y0099941D02*
X0142260Y0099941D01*
X0142260Y0098762D02*
X0142260Y0098762D01*
X0169058Y0058655D02*
X0188476Y0058655D01*
X0188476Y0057475D02*
X0171072Y0057475D01*
X0172244Y0056296D02*
X0188476Y0056296D01*
X0188476Y0055116D02*
X0172732Y0055116D01*
X0173189Y0053936D02*
X0188476Y0053936D01*
X0188476Y0052757D02*
X0173189Y0052757D01*
X0173189Y0051577D02*
X0188476Y0051577D01*
X0188476Y0050398D02*
X0172720Y0050398D01*
X0172222Y0049218D02*
X0188476Y0049218D01*
X0188476Y0048038D02*
X0171042Y0048038D01*
X0168986Y0046859D02*
X0188476Y0046859D01*
X0179128Y0141228D02*
X0055340Y0141228D01*
X0055340Y0142407D02*
X0179128Y0142407D01*
X0179128Y0143587D02*
X0055340Y0143587D01*
X0055340Y0144767D02*
X0179128Y0144767D01*
X0179128Y0145946D02*
X0055340Y0145946D01*
X0055340Y0147126D02*
X0179128Y0147126D01*
X0179128Y0148305D02*
X0055340Y0148305D01*
X0055340Y0149485D02*
X0179128Y0149485D01*
X0167445Y0171898D02*
X0148608Y0171898D01*
X0122543Y0252111D02*
X0119471Y0252111D01*
X0120187Y0253291D02*
X0123235Y0253291D01*
X0123235Y0254471D02*
X0120276Y0254471D01*
X0120644Y0255650D02*
X0119812Y0255650D01*
X0122161Y0257988D02*
X0107398Y0257988D01*
X0096079Y0269307D01*
X0098959Y0263908D02*
X0062658Y0263908D01*
X0061479Y0265087D02*
X0081372Y0265087D01*
X0081346Y0265114D02*
X0082043Y0264417D01*
X0090429Y0264417D01*
X0091127Y0265114D01*
X0091127Y0273500D01*
X0090429Y0274198D01*
X0082043Y0274198D01*
X0081346Y0273500D01*
X0081346Y0265114D01*
X0081346Y0266267D02*
X0060299Y0266267D01*
X0059120Y0267446D02*
X0081346Y0267446D01*
X0081346Y0268626D02*
X0057940Y0268626D01*
X0056760Y0269806D02*
X0081346Y0269806D01*
X0081346Y0270985D02*
X0055581Y0270985D01*
X0054401Y0272165D02*
X0081346Y0272165D01*
X0081346Y0273345D02*
X0053222Y0273345D01*
X0052042Y0274524D02*
X0101738Y0274524D01*
X0105528Y0274524D02*
X0106315Y0274524D01*
X0106315Y0274598D02*
X0106315Y0269701D01*
X0111212Y0269701D01*
X0111212Y0273216D01*
X0111103Y0273621D01*
X0110894Y0273984D01*
X0110598Y0274280D01*
X0110235Y0274489D01*
X0109831Y0274598D01*
X0106315Y0274598D01*
X0106315Y0273345D02*
X0105528Y0273345D01*
X0105528Y0272165D02*
X0106315Y0272165D01*
X0106315Y0270985D02*
X0105528Y0270985D01*
X0105528Y0269806D02*
X0106315Y0269806D01*
X0106315Y0268626D02*
X0105528Y0268626D01*
X0105528Y0267446D02*
X0106315Y0267446D01*
X0106315Y0266267D02*
X0105528Y0266267D01*
X0105528Y0265087D02*
X0106315Y0265087D01*
X0103997Y0263908D02*
X0123235Y0263908D01*
X0123235Y0265087D02*
X0111129Y0265087D01*
X0111212Y0266267D02*
X0122700Y0266267D01*
X0121520Y0267446D02*
X0111212Y0267446D01*
X0111212Y0268626D02*
X0120340Y0268626D01*
X0119161Y0269806D02*
X0111212Y0269806D01*
X0111212Y0270985D02*
X0117981Y0270985D01*
X0116802Y0272165D02*
X0111212Y0272165D01*
X0111177Y0273345D02*
X0115622Y0273345D01*
X0114442Y0274524D02*
X0110105Y0274524D01*
X0112083Y0276883D02*
X0049683Y0276883D01*
X0050862Y0275704D02*
X0113263Y0275704D01*
X0110904Y0278063D02*
X0048503Y0278063D01*
X0047323Y0279243D02*
X0109724Y0279243D01*
X0108544Y0280422D02*
X0046144Y0280422D01*
X0044964Y0281602D02*
X0107365Y0281602D01*
X0106185Y0282781D02*
X0043785Y0282781D01*
X0044504Y0283961D02*
X0045291Y0283961D01*
X0045291Y0285141D02*
X0044504Y0285141D01*
X0044504Y0286320D02*
X0045291Y0286320D01*
X0045291Y0287500D02*
X0044504Y0287500D01*
X0045291Y0288680D02*
X0088579Y0288680D01*
X0087894Y0289859D02*
X0081784Y0289859D01*
X0082964Y0291039D02*
X0087826Y0291039D01*
X0088343Y0292218D02*
X0084143Y0292218D01*
X0085323Y0293398D02*
X0097738Y0293398D01*
X0097669Y0294578D02*
X0085852Y0294578D01*
X0085852Y0295757D02*
X0098181Y0295757D01*
X0098426Y0292218D02*
X0092791Y0292218D01*
X0093307Y0291039D02*
X0104227Y0291039D01*
X0104702Y0289859D02*
X0105407Y0289859D01*
X0105882Y0288680D02*
X0106586Y0288680D01*
X0107061Y0287500D02*
X0107766Y0287500D01*
X0108241Y0286320D02*
X0108945Y0286320D01*
X0109420Y0285141D02*
X0110125Y0285141D01*
X0110600Y0283961D02*
X0111305Y0283961D01*
X0111780Y0282781D02*
X0112484Y0282781D01*
X0112959Y0281602D02*
X0113664Y0281602D01*
X0114139Y0280422D02*
X0114844Y0280422D01*
X0115318Y0279243D02*
X0116023Y0279243D01*
X0116498Y0278063D02*
X0117203Y0278063D01*
X0117678Y0276883D02*
X0118382Y0276883D01*
X0118857Y0275704D02*
X0119562Y0275704D01*
X0120037Y0274524D02*
X0120742Y0274524D01*
X0121216Y0273345D02*
X0121921Y0273345D01*
X0122396Y0272165D02*
X0123101Y0272165D01*
X0123576Y0270985D02*
X0124280Y0270985D01*
X0124755Y0269806D02*
X0125460Y0269806D01*
X0123235Y0262728D02*
X0105177Y0262728D01*
X0106356Y0261548D02*
X0123235Y0261548D01*
X0120747Y0260369D02*
X0107536Y0260369D01*
X0104857Y0258010D02*
X0068557Y0258010D01*
X0069736Y0256830D02*
X0106037Y0256830D01*
X0103678Y0259189D02*
X0067377Y0259189D01*
X0066197Y0260369D02*
X0102498Y0260369D01*
X0101319Y0261548D02*
X0065018Y0261548D01*
X0063838Y0262728D02*
X0100139Y0262728D01*
X0091215Y0265087D02*
X0091100Y0265087D01*
X0091127Y0266267D02*
X0091188Y0266267D01*
X0091188Y0267446D02*
X0091127Y0267446D01*
X0091127Y0268626D02*
X0091188Y0268626D01*
X0091188Y0269806D02*
X0091127Y0269806D01*
X0091127Y0270985D02*
X0091188Y0270985D01*
X0091188Y0272165D02*
X0091127Y0272165D01*
X0091127Y0273345D02*
X0091188Y0273345D01*
X0092016Y0286320D02*
X0050188Y0286320D01*
X0050188Y0285141D02*
X0103826Y0285141D01*
X0105005Y0283961D02*
X0049473Y0283961D01*
X0050188Y0287500D02*
X0090837Y0287500D01*
X0085852Y0296937D02*
X0106306Y0296937D01*
X0106306Y0298116D02*
X0085852Y0298116D01*
X0085852Y0299296D02*
X0106306Y0299296D01*
X0106976Y0300476D02*
X0085182Y0300476D01*
X0084002Y0301655D02*
X0108155Y0301655D01*
X0109335Y0302835D02*
X0082823Y0302835D01*
X0075728Y0289859D02*
X0050188Y0289859D01*
X0050188Y0289386D02*
X0050188Y0292902D01*
X0050080Y0293306D01*
X0049870Y0293669D01*
X0049574Y0293965D01*
X0049212Y0294174D01*
X0048807Y0294283D01*
X0045291Y0294283D01*
X0045291Y0289386D01*
X0050188Y0289386D01*
X0050188Y0291039D02*
X0074548Y0291039D01*
X0073368Y0292218D02*
X0050188Y0292218D01*
X0050027Y0293398D02*
X0072189Y0293398D01*
X0055317Y0309455D02*
X0059474Y0313612D01*
X0059474Y0319490D01*
X0055317Y0323647D01*
X0049439Y0323647D01*
X0045282Y0319490D01*
X0045282Y0313612D01*
X0049439Y0309455D01*
X0055317Y0309455D01*
X0055775Y0309913D02*
X0134414Y0309913D01*
X0134872Y0309455D02*
X0130715Y0313612D01*
X0130715Y0319490D01*
X0134872Y0323647D01*
X0140750Y0323647D01*
X0144907Y0319490D01*
X0144907Y0313612D01*
X0140750Y0309455D01*
X0134872Y0309455D01*
X0133235Y0311092D02*
X0056954Y0311092D01*
X0058134Y0312272D02*
X0132055Y0312272D01*
X0130875Y0313451D02*
X0059313Y0313451D01*
X0059474Y0314631D02*
X0130715Y0314631D01*
X0130715Y0315811D02*
X0059474Y0315811D01*
X0059474Y0316990D02*
X0130715Y0316990D01*
X0130715Y0318170D02*
X0059474Y0318170D01*
X0059474Y0319349D02*
X0130715Y0319349D01*
X0131754Y0320529D02*
X0058435Y0320529D01*
X0057256Y0321709D02*
X0132933Y0321709D01*
X0134113Y0322888D02*
X0056076Y0322888D01*
X0048680Y0322888D02*
X0021430Y0322888D01*
X0020672Y0323647D02*
X0024828Y0319490D01*
X0024828Y0313612D01*
X0020672Y0309455D01*
X0014793Y0309455D01*
X0010636Y0313612D01*
X0010636Y0319490D01*
X0014793Y0323647D01*
X0020672Y0323647D01*
X0022610Y0321709D02*
X0047500Y0321709D01*
X0046321Y0320529D02*
X0023790Y0320529D01*
X0024828Y0319349D02*
X0045282Y0319349D01*
X0045282Y0318170D02*
X0024828Y0318170D01*
X0024828Y0316990D02*
X0045282Y0316990D01*
X0045282Y0315811D02*
X0024828Y0315811D01*
X0024828Y0314631D02*
X0045282Y0314631D01*
X0045442Y0313451D02*
X0024668Y0313451D01*
X0023488Y0312272D02*
X0041988Y0312272D01*
X0041770Y0312182D02*
X0041425Y0311836D01*
X0025968Y0311836D01*
X0023975Y0309843D01*
X0023486Y0309843D01*
X0022479Y0309426D01*
X0021708Y0308655D01*
X0021291Y0307647D01*
X0021291Y0306557D01*
X0021708Y0305550D01*
X0022479Y0304779D01*
X0023486Y0304362D01*
X0024577Y0304362D01*
X0025584Y0304779D01*
X0026355Y0305550D01*
X0026772Y0306557D01*
X0026772Y0307046D01*
X0027607Y0307880D01*
X0041425Y0307880D01*
X0041770Y0307535D01*
X0042778Y0307118D01*
X0043868Y0307118D01*
X0044875Y0307535D01*
X0045646Y0308306D01*
X0046063Y0309313D01*
X0046063Y0310403D01*
X0045646Y0311411D01*
X0044875Y0312182D01*
X0043868Y0312599D01*
X0042778Y0312599D01*
X0041770Y0312182D01*
X0044657Y0312272D02*
X0046622Y0312272D01*
X0045778Y0311092D02*
X0047802Y0311092D01*
X0048981Y0309913D02*
X0046063Y0309913D01*
X0045823Y0308733D02*
X0188476Y0308733D01*
X0188476Y0309913D02*
X0175853Y0309913D01*
X0175396Y0309455D02*
X0179553Y0313612D01*
X0179553Y0319490D01*
X0175396Y0323647D01*
X0169517Y0323647D01*
X0165361Y0319490D01*
X0165361Y0313612D01*
X0169517Y0309455D01*
X0175396Y0309455D01*
X0177033Y0311092D02*
X0188476Y0311092D01*
X0188476Y0312272D02*
X0178213Y0312272D01*
X0179392Y0313451D02*
X0188476Y0313451D01*
X0188476Y0314631D02*
X0179553Y0314631D01*
X0179553Y0315811D02*
X0188476Y0315811D01*
X0188476Y0316990D02*
X0179553Y0316990D01*
X0179553Y0318170D02*
X0188476Y0318170D01*
X0188476Y0319349D02*
X0179553Y0319349D01*
X0178514Y0320529D02*
X0188476Y0320529D01*
X0188476Y0321709D02*
X0177335Y0321709D01*
X0176155Y0322888D02*
X0188476Y0322888D01*
X0188476Y0324068D02*
X0003681Y0324068D01*
X0003681Y0325248D02*
X0188476Y0325248D01*
X0188476Y0326427D02*
X0003681Y0326427D01*
X0003681Y0327607D02*
X0188476Y0327607D01*
X0188476Y0328786D02*
X0003681Y0328786D01*
X0003681Y0329966D02*
X0188476Y0329966D01*
X0188476Y0331146D02*
X0003681Y0331146D01*
X0003681Y0332325D02*
X0188476Y0332325D01*
X0188476Y0333505D02*
X0003681Y0333505D01*
X0003681Y0334684D02*
X0188476Y0334684D01*
X0188476Y0335864D02*
X0003681Y0335864D01*
X0003681Y0337044D02*
X0188476Y0337044D01*
X0188476Y0307553D02*
X0044894Y0307553D01*
X0041752Y0307553D02*
X0027280Y0307553D01*
X0026696Y0306374D02*
X0188476Y0306374D01*
X0188476Y0305194D02*
X0025999Y0305194D01*
X0024044Y0309913D02*
X0021129Y0309913D01*
X0021786Y0308733D02*
X0003681Y0308733D01*
X0003681Y0309913D02*
X0014336Y0309913D01*
X0013156Y0311092D02*
X0003681Y0311092D01*
X0003681Y0312272D02*
X0011976Y0312272D01*
X0010797Y0313451D02*
X0003681Y0313451D01*
X0003681Y0314631D02*
X0010636Y0314631D01*
X0010636Y0315811D02*
X0003681Y0315811D01*
X0003681Y0316990D02*
X0010636Y0316990D01*
X0010636Y0318170D02*
X0003681Y0318170D01*
X0003681Y0319349D02*
X0010636Y0319349D01*
X0011675Y0320529D02*
X0003681Y0320529D01*
X0003681Y0321709D02*
X0012854Y0321709D01*
X0014034Y0322888D02*
X0003681Y0322888D01*
X0003681Y0307553D02*
X0021291Y0307553D01*
X0021367Y0306374D02*
X0003681Y0306374D01*
X0003681Y0305194D02*
X0022064Y0305194D01*
X0022309Y0311092D02*
X0025224Y0311092D01*
X0029890Y0293398D02*
X0030377Y0293398D01*
X0030165Y0292218D02*
X0030103Y0292218D01*
X0030103Y0291039D02*
X0030165Y0291039D01*
X0030165Y0289859D02*
X0030103Y0289859D01*
X0030103Y0288680D02*
X0030165Y0288680D01*
X0030165Y0287500D02*
X0030103Y0287500D01*
X0030103Y0286320D02*
X0030165Y0286320D01*
X0030165Y0285141D02*
X0030103Y0285141D01*
X0039733Y0293398D02*
X0039769Y0293398D01*
X0044504Y0293398D02*
X0045291Y0293398D01*
X0045291Y0292218D02*
X0044504Y0292218D01*
X0044504Y0291039D02*
X0045291Y0291039D01*
X0045291Y0289859D02*
X0044504Y0289859D01*
X0105103Y0295757D02*
X0106306Y0295757D01*
X0106283Y0294578D02*
X0106306Y0294578D01*
X0112181Y0288680D02*
X0140401Y0288680D01*
X0140401Y0289859D02*
X0116430Y0289859D01*
X0117609Y0291039D02*
X0140401Y0291039D01*
X0140401Y0292218D02*
X0118789Y0292218D01*
X0119969Y0293398D02*
X0140613Y0293398D01*
X0140401Y0293185D02*
X0140401Y0284799D01*
X0141098Y0284102D01*
X0149484Y0284102D01*
X0150182Y0284799D01*
X0150182Y0293185D01*
X0149484Y0293883D01*
X0141098Y0293883D01*
X0140401Y0293185D01*
X0140401Y0287500D02*
X0113360Y0287500D01*
X0114540Y0286320D02*
X0140401Y0286320D01*
X0140401Y0285141D02*
X0115720Y0285141D01*
X0116899Y0283961D02*
X0160401Y0283961D01*
X0159847Y0293398D02*
X0159812Y0293398D01*
X0150456Y0293398D02*
X0149969Y0293398D01*
X0150182Y0292218D02*
X0150243Y0292218D01*
X0150243Y0291039D02*
X0150182Y0291039D01*
X0150182Y0289859D02*
X0150243Y0289859D01*
X0150243Y0288680D02*
X0150182Y0288680D01*
X0150182Y0287500D02*
X0150243Y0287500D01*
X0150243Y0286320D02*
X0150182Y0286320D01*
X0150182Y0285141D02*
X0150243Y0285141D01*
X0141208Y0309913D02*
X0169060Y0309913D01*
X0167880Y0311092D02*
X0142387Y0311092D01*
X0143567Y0312272D02*
X0166701Y0312272D01*
X0165521Y0313451D02*
X0144747Y0313451D01*
X0144907Y0314631D02*
X0165361Y0314631D01*
X0165361Y0315811D02*
X0144907Y0315811D01*
X0144907Y0316990D02*
X0165361Y0316990D01*
X0165361Y0318170D02*
X0144907Y0318170D01*
X0144907Y0319349D02*
X0165361Y0319349D01*
X0166399Y0320529D02*
X0143868Y0320529D01*
X0142689Y0321709D02*
X0167579Y0321709D01*
X0168758Y0322888D02*
X0141509Y0322888D01*
D21*
X0136630Y0285547D03*
X0140567Y0278854D03*
X0129937Y0274130D03*
X0124031Y0279248D03*
X0122161Y0257988D03*
X0117535Y0254051D03*
X0113795Y0250508D03*
X0111827Y0243815D03*
X0104740Y0250508D03*
X0109563Y0261827D03*
X0112319Y0271276D03*
X0100409Y0294110D03*
X0090567Y0290567D03*
X0090567Y0317535D03*
X0071276Y0275311D03*
X0064976Y0280035D03*
X0050409Y0298638D03*
X0044110Y0303362D03*
X0043323Y0309858D03*
X0051591Y0332398D03*
X0046079Y0337122D03*
X0025606Y0337122D03*
X0020094Y0332004D03*
X0024031Y0307102D03*
X0027575Y0302575D03*
X0038598Y0275311D03*
X0044504Y0270980D03*
X0038795Y0256020D03*
X0041748Y0253264D03*
X0053559Y0256020D03*
X0053165Y0224130D03*
X0058283Y0219406D03*
X0061039Y0209957D03*
X0061827Y0203559D03*
X0066551Y0203657D03*
X0065370Y0199622D03*
X0069701Y0209957D03*
X0074425Y0216650D03*
X0071472Y0224720D03*
X0083874Y0228461D03*
X0082693Y0235547D03*
X0083480Y0250508D03*
X0088992Y0250409D03*
X0105921Y0219012D03*
X0110252Y0228854D03*
X0113008Y0231610D03*
X0112614Y0208382D03*
X0108283Y0197260D03*
X0103559Y0198047D03*
X0107102Y0184760D03*
X0103165Y0181610D03*
X0093717Y0197358D03*
X0090961Y0207594D03*
X0083480Y0197358D03*
X0080331Y0180724D03*
X0074819Y0181906D03*
X0074425Y0173244D03*
X0065370Y0164189D03*
X0063795Y0168126D03*
X0070882Y0160646D03*
X0070488Y0155921D03*
X0074425Y0137024D03*
X0071276Y0132693D03*
X0070882Y0126000D03*
X0067535Y0122457D03*
X0073933Y0119012D03*
X0065173Y0112024D03*
X0060055Y0112024D03*
X0053559Y0111827D03*
X0067240Y0093421D03*
X0065862Y0081217D03*
X0075311Y0088106D03*
X0075705Y0099130D03*
X0057594Y0071965D03*
X0031906Y0114976D03*
X0030724Y0085843D03*
X0027181Y0082496D03*
X0057890Y0140272D03*
X0059465Y0154346D03*
X0043717Y0175311D03*
X0037319Y0163795D03*
X0052378Y0191748D03*
X0055528Y0196177D03*
X0058283Y0199622D03*
X0048835Y0193717D03*
X0035449Y0225311D03*
X0029543Y0237122D03*
X0024819Y0244602D03*
X0097260Y0149819D03*
X0103067Y0154740D03*
X0114780Y0139386D03*
X0121669Y0132398D03*
X0116748Y0104740D03*
X0112811Y0094504D03*
X0126807Y0081728D03*
X0135154Y0098736D03*
X0142240Y0102831D03*
X0136728Y0072358D03*
X0146768Y0151197D03*
X0142929Y0164583D03*
X0142929Y0168913D03*
X0146866Y0174031D03*
X0132693Y0163894D03*
X0126787Y0168618D03*
X0114976Y0192634D03*
X0130724Y0225311D03*
X0139386Y0220193D03*
X0166157Y0225409D03*
X0173638Y0225803D03*
X0178756Y0218224D03*
X0186630Y0225311D03*
X0172850Y0273835D03*
X0164976Y0282102D03*
X0172358Y0288992D03*
X0164976Y0295390D03*
X0152378Y0278559D03*
X0177969Y0301000D03*
X0182299Y0306512D03*
X0171374Y0150705D03*
D22*
X0070882Y0126000D02*
X0070882Y0110252D01*
X0069701Y0109071D01*
X0041866Y0094268D02*
X0028717Y0094268D01*
X0025882Y0097102D01*
X0025882Y0107102D02*
X0034268Y0107102D01*
X0025882Y0117102D02*
X0042142Y0133362D01*
X0042142Y0134937D01*
X0022063Y0112220D02*
X0021000Y0112220D01*
X0015882Y0107102D01*
D23*
X0031276Y0086394D02*
X0030724Y0085843D01*
X0030724Y0072457D01*
X0031276Y0086394D02*
X0041866Y0086394D01*
X0070488Y0155921D02*
X0074031Y0155921D01*
X0076394Y0158283D01*
X0136630Y0158283D01*
X0142929Y0164583D01*
X0159268Y0088795D02*
X0159268Y0078953D01*
X0159465Y0078756D01*
X0159465Y0070094D01*
X0159268Y0078953D02*
X0151827Y0086394D01*
X0142260Y0086394D01*
X0080331Y0180724D02*
X0080331Y0203559D01*
X0127575Y0250803D01*
X0127575Y0270488D01*
X0103953Y0294110D01*
X0100409Y0294110D01*
X0103559Y0288205D02*
X0125213Y0266551D01*
X0125213Y0251984D01*
X0074819Y0201591D01*
X0074819Y0181906D01*
X0092929Y0288205D02*
X0103559Y0288205D01*
X0092929Y0288205D02*
X0090567Y0290567D01*
X0043323Y0309858D02*
X0026787Y0309858D01*
X0024031Y0307102D01*
D24*
X0088992Y0222850D02*
X0072850Y0206709D01*
X0060252Y0206709D01*
X0052378Y0198835D01*
X0052378Y0191748D01*
X0059071Y0198441D02*
X0059071Y0178756D01*
X0058283Y0177969D01*
X0059071Y0198441D02*
X0058283Y0199228D01*
X0058283Y0199622D01*
X0088992Y0222850D02*
X0088992Y0250409D01*
D25*
X0058913Y0082457D02*
X0041866Y0082457D01*
X0041866Y0078520D02*
X0056945Y0078520D01*
X0062220Y0073244D01*
X0062220Y0054346D01*
X0068126Y0048441D01*
X0072457Y0048441D01*
X0080488Y0056472D01*
X0080488Y0060646D01*
X0070844Y0061002D02*
X0070488Y0060646D01*
X0070844Y0061002D02*
X0070844Y0070526D01*
X0058913Y0082457D01*
X0105764Y0060646D02*
X0105764Y0056079D01*
X0112220Y0049622D01*
X0120094Y0049622D01*
X0131512Y0061039D01*
X0131512Y0073638D01*
X0136394Y0078520D01*
X0142260Y0078520D01*
X0142260Y0082457D02*
X0134031Y0082457D01*
X0126000Y0074425D01*
X0126000Y0070882D01*
X0115764Y0060646D01*
D26*
X0012614Y0200567D02*
X0012614Y0261039D01*
X0022850Y0271276D01*
X0027181Y0271276D01*
D27*
X0012614Y0200567D02*
X0013402Y0199780D01*
D28*
X0014938Y0197615D02*
X0011393Y0197615D01*
X0011512Y0197496D02*
X0007102Y0201906D01*
X0007102Y0266394D01*
X0014268Y0273559D01*
X0028598Y0273559D01*
X0028598Y0273008D01*
X0029150Y0272457D01*
X0029150Y0270803D01*
X0028598Y0270252D01*
X0025291Y0270252D01*
X0016472Y0261433D01*
X0016472Y0199150D01*
X0014819Y0197496D01*
X0011512Y0197496D01*
X0009795Y0199213D02*
X0016472Y0199213D01*
X0016472Y0200812D02*
X0008196Y0200812D01*
X0007102Y0202410D02*
X0016472Y0202410D01*
X0016472Y0204009D02*
X0007102Y0204009D01*
X0007102Y0205607D02*
X0016472Y0205607D01*
X0016472Y0207206D02*
X0007102Y0207206D01*
X0007102Y0208804D02*
X0016472Y0208804D01*
X0016472Y0210403D02*
X0007102Y0210403D01*
X0007102Y0212001D02*
X0016472Y0212001D01*
X0016472Y0213600D02*
X0007102Y0213600D01*
X0007102Y0215198D02*
X0016472Y0215198D01*
X0016472Y0216797D02*
X0007102Y0216797D01*
X0007102Y0218395D02*
X0016472Y0218395D01*
X0016472Y0219994D02*
X0007102Y0219994D01*
X0007102Y0221592D02*
X0016472Y0221592D01*
X0016472Y0223191D02*
X0007102Y0223191D01*
X0007102Y0224789D02*
X0016472Y0224789D01*
X0016472Y0226388D02*
X0007102Y0226388D01*
X0007102Y0227986D02*
X0016472Y0227986D01*
X0016472Y0229585D02*
X0007102Y0229585D01*
X0007102Y0231183D02*
X0016472Y0231183D01*
X0016472Y0232782D02*
X0007102Y0232782D01*
X0007102Y0234380D02*
X0016472Y0234380D01*
X0016472Y0235979D02*
X0007102Y0235979D01*
X0007102Y0237578D02*
X0016472Y0237578D01*
X0016472Y0239176D02*
X0007102Y0239176D01*
X0007102Y0240775D02*
X0016472Y0240775D01*
X0016472Y0242373D02*
X0007102Y0242373D01*
X0007102Y0243972D02*
X0016472Y0243972D01*
X0016472Y0245570D02*
X0007102Y0245570D01*
X0007102Y0247169D02*
X0016472Y0247169D01*
X0016472Y0248767D02*
X0007102Y0248767D01*
X0007102Y0250366D02*
X0016472Y0250366D01*
X0016472Y0251964D02*
X0007102Y0251964D01*
X0007102Y0253563D02*
X0016472Y0253563D01*
X0016472Y0255161D02*
X0007102Y0255161D01*
X0007102Y0256760D02*
X0016472Y0256760D01*
X0016472Y0258358D02*
X0007102Y0258358D01*
X0007102Y0259957D02*
X0016472Y0259957D01*
X0016595Y0261555D02*
X0007102Y0261555D01*
X0007102Y0263154D02*
X0018193Y0263154D01*
X0019792Y0264752D02*
X0007102Y0264752D01*
X0007102Y0266351D02*
X0021390Y0266351D01*
X0022989Y0267949D02*
X0008658Y0267949D01*
X0010256Y0269548D02*
X0024587Y0269548D01*
X0029150Y0271146D02*
X0011855Y0271146D01*
X0013453Y0272745D02*
X0028862Y0272745D01*
X0097457Y0134465D02*
X0088829Y0125837D01*
X0088272Y0125606D02*
X0085055Y0125606D01*
X0088272Y0125607D02*
X0088323Y0125609D01*
X0088375Y0125614D01*
X0088426Y0125622D01*
X0088476Y0125634D01*
X0088525Y0125649D01*
X0088573Y0125667D01*
X0088620Y0125688D01*
X0088665Y0125712D01*
X0088709Y0125740D01*
X0088751Y0125770D01*
X0088791Y0125802D01*
X0088828Y0125838D01*
X0030724Y0072457D02*
X0037811Y0065370D01*
X0037811Y0013402D01*
X0047260Y0003953D01*
X0144898Y0003953D01*
X0159465Y0018520D01*
X0159465Y0070094D01*
X0159268Y0088795D02*
X0181118Y0110646D01*
X0181118Y0122299D01*
X0181118Y0132299D02*
X0181118Y0161039D01*
X0168126Y0174031D01*
X0146866Y0174031D01*
D29*
X0097457Y0134465D03*
X0085055Y0125606D03*
D30*
X0051591Y0130724D02*
X0033087Y0112220D01*
X0022063Y0112220D01*
M02*
