G75*
%MOIN*%
%OFA0B0*%
%FSLAX25Y25*%
%IPPOS*%
%LPD*%
%AMOC8*
5,1,8,0,0,1.08239X$1,22.5*
%
%ADD10C,0.08907*%
%ADD11R,0.04931X0.04537*%
%ADD12R,0.04537X0.04931*%
%ADD13C,0.01600*%
%ADD14R,0.10900X0.10900*%
%ADD15R,0.03750X0.03750*%
%ADD16R,0.06899X0.03750*%
%ADD17R,0.03750X0.06899*%
%ADD18C,0.08000*%
%ADD19C,0.06300*%
%ADD20R,0.08000X0.08000*%
%ADD21OC8,0.12411*%
%ADD22C,0.08000*%
%ADD23R,0.02765X0.05324*%
%ADD24R,0.06899X0.06112*%
%ADD25R,0.05324X0.02765*%
%ADD26R,0.02175X0.06112*%
%ADD27R,0.08474X0.08080*%
%ADD28R,0.09261X0.05600*%
%ADD29R,0.07687X0.04537*%
%ADD30R,0.03868X0.03080*%
%ADD31R,0.01575X0.06299*%
%ADD32R,0.06600X0.03600*%
%ADD33R,0.02569X0.06506*%
%ADD34R,0.06506X0.02569*%
%ADD35OC8,0.08000*%
%ADD36R,0.01702X0.02569*%
%ADD37R,0.03100X0.01800*%
%ADD38R,0.06899X0.03356*%
%ADD39R,0.10443X0.05324*%
%ADD40R,0.05600X0.03100*%
%ADD41C,0.03700*%
%ADD42OC8,0.03700*%
D10*
X0025213Y0052772D03*
X0166945Y0052772D03*
D11*
X0114583Y0047260D03*
X0107890Y0047260D03*
X0079150Y0047850D03*
X0072457Y0047850D03*
X0078559Y0118913D03*
X0085252Y0118913D03*
X0087220Y0201984D03*
X0093913Y0201984D03*
X0096079Y0211925D03*
X0098933Y0220094D03*
X0102772Y0211925D03*
X0109465Y0224524D03*
X0116157Y0224524D03*
X0106315Y0257693D03*
X0099622Y0257693D03*
X0090567Y0257594D03*
X0083874Y0257594D03*
X0092240Y0220094D03*
X0081315Y0207102D03*
X0074622Y0207102D03*
X0058087Y0237811D03*
X0055724Y0250409D03*
X0051394Y0237811D03*
X0062417Y0250409D03*
X0049031Y0211827D03*
X0042339Y0211827D03*
X0025803Y0149622D03*
X0019110Y0149622D03*
X0038106Y0298343D03*
X0044799Y0298343D03*
X0039878Y0335252D03*
X0033185Y0335252D03*
X0146709Y0273736D03*
X0153402Y0273736D03*
X0160646Y0273776D03*
X0167339Y0273776D03*
D12*
X0182693Y0294996D03*
X0182693Y0301689D03*
X0112614Y0187220D03*
X0112614Y0180528D03*
X0077673Y0235449D03*
X0077673Y0242142D03*
X0047654Y0246276D03*
X0047654Y0252969D03*
X0045882Y0325508D03*
X0045882Y0332201D03*
X0025705Y0332201D03*
X0025705Y0325508D03*
X0090567Y0308087D03*
X0090567Y0301394D03*
X0100016Y0301394D03*
X0100016Y0308087D03*
X0027575Y0143126D03*
X0027575Y0136433D03*
X0043717Y0123441D03*
X0043717Y0116748D03*
X0051787Y0116748D03*
X0051787Y0123441D03*
X0060055Y0123441D03*
X0060055Y0116748D03*
D13*
X0091013Y0227624D02*
X0091013Y0230624D01*
X0093009Y0230624D02*
X0093009Y0227624D01*
X0094986Y0227624D02*
X0094986Y0230624D01*
X0097093Y0230624D02*
X0097093Y0227624D01*
X0099079Y0227624D02*
X0099079Y0230624D01*
X0101066Y0230624D02*
X0101066Y0227624D01*
X0102713Y0232371D02*
X0105713Y0232371D01*
X0105713Y0234368D02*
X0102713Y0234368D01*
X0102713Y0236344D02*
X0105713Y0236344D01*
X0105713Y0238451D02*
X0102713Y0238451D01*
X0102713Y0240437D02*
X0105713Y0240437D01*
X0105713Y0242424D02*
X0102713Y0242424D01*
X0101066Y0244172D02*
X0101066Y0247172D01*
X0099079Y0247172D02*
X0099079Y0244172D01*
X0097093Y0244172D02*
X0097093Y0247172D01*
X0094986Y0247172D02*
X0094986Y0244172D01*
X0093009Y0244172D02*
X0093009Y0247172D01*
X0091013Y0247172D02*
X0091013Y0244172D01*
X0089365Y0242424D02*
X0086365Y0242424D01*
X0086365Y0240437D02*
X0089365Y0240437D01*
X0089365Y0238451D02*
X0086365Y0238451D01*
X0086365Y0236344D02*
X0089365Y0236344D01*
X0089365Y0234368D02*
X0086365Y0234368D01*
X0086365Y0232371D02*
X0089365Y0232371D01*
D14*
X0096000Y0237358D03*
D15*
X0058283Y0230134D03*
X0058283Y0224228D03*
X0037024Y0139976D03*
X0037024Y0134071D03*
X0018913Y0136433D03*
X0018913Y0142339D03*
X0035055Y0322457D03*
X0035055Y0328362D03*
X0147063Y0266827D03*
X0152969Y0266827D03*
X0161630Y0266787D03*
X0167535Y0266787D03*
D16*
X0185055Y0220488D03*
X0185055Y0215764D03*
X0185055Y0211039D03*
X0185055Y0206315D03*
X0185055Y0201591D03*
X0185055Y0196866D03*
X0185055Y0192142D03*
X0185055Y0187417D03*
X0185055Y0182693D03*
X0185055Y0177969D03*
X0185055Y0173244D03*
X0185055Y0168520D03*
X0133087Y0168520D03*
X0133087Y0173244D03*
X0133087Y0177969D03*
X0133087Y0182693D03*
X0133087Y0187417D03*
X0133087Y0192142D03*
X0133087Y0196866D03*
X0133087Y0201591D03*
X0133087Y0206315D03*
X0133087Y0211039D03*
X0133087Y0215764D03*
X0133087Y0220488D03*
D17*
X0165370Y0231512D03*
X0171669Y0231512D03*
X0177969Y0231512D03*
X0175300Y0157496D03*
X0171276Y0157496D03*
X0166551Y0157496D03*
X0161827Y0157496D03*
X0156315Y0157496D03*
X0151591Y0157496D03*
X0146866Y0157496D03*
X0142842Y0157496D03*
D18*
X0181118Y0132299D03*
X0181118Y0122299D03*
X0182791Y0285252D03*
X0013402Y0199780D03*
X0013402Y0189780D03*
X0013402Y0179780D03*
D19*
X0027181Y0263402D03*
X0027181Y0271276D03*
D20*
X0025213Y0288992D03*
X0035055Y0288992D03*
X0044898Y0288992D03*
X0086236Y0269307D03*
X0096079Y0269307D03*
X0105921Y0269307D03*
X0145291Y0288992D03*
X0155134Y0288992D03*
X0164976Y0288992D03*
X0025882Y0097102D03*
D21*
X0078756Y0296866D03*
X0052378Y0316551D03*
X0017732Y0316551D03*
X0113402Y0296866D03*
X0137811Y0316551D03*
X0172457Y0316551D03*
D22*
X0115764Y0064346D02*
X0115764Y0056946D01*
X0105764Y0056946D02*
X0105764Y0064346D01*
X0080488Y0064346D02*
X0080488Y0056946D01*
X0070488Y0056946D02*
X0070488Y0064346D01*
D23*
X0038795Y0305035D03*
X0035055Y0305035D03*
X0031315Y0305035D03*
X0031315Y0315272D03*
X0038795Y0315272D03*
D24*
X0041354Y0231118D03*
X0041354Y0220094D03*
X0029150Y0219701D03*
X0029150Y0230724D03*
D25*
X0030330Y0240764D03*
X0030330Y0244504D03*
X0030330Y0248244D03*
X0040567Y0248244D03*
X0040567Y0240764D03*
D26*
X0090961Y0323539D03*
X0093520Y0323539D03*
X0096079Y0323539D03*
X0098638Y0323539D03*
X0101197Y0323539D03*
D27*
X0101000Y0334760D03*
X0091157Y0334760D03*
D28*
X0080331Y0334760D03*
X0111827Y0334760D03*
D29*
X0013795Y0250409D03*
X0013795Y0239386D03*
D30*
X0018126Y0230921D03*
X0018126Y0221866D03*
D31*
X0032693Y0155528D03*
X0037417Y0155528D03*
X0042142Y0155921D03*
D32*
X0045232Y0260331D03*
X0045232Y0275331D03*
X0065232Y0275331D03*
X0065232Y0260331D03*
D33*
X0064976Y0191748D03*
X0061827Y0191748D03*
X0058677Y0191748D03*
X0068126Y0191748D03*
X0071276Y0191748D03*
X0074425Y0191748D03*
X0077575Y0191748D03*
X0080724Y0191748D03*
X0083874Y0191748D03*
X0087024Y0191748D03*
X0090173Y0191748D03*
X0090173Y0146079D03*
X0087024Y0146079D03*
X0083874Y0146079D03*
X0080724Y0146079D03*
X0077575Y0146079D03*
X0074425Y0146079D03*
X0071276Y0146079D03*
X0068126Y0146079D03*
X0064976Y0146079D03*
X0061827Y0146079D03*
X0058677Y0146079D03*
D34*
X0051591Y0153165D03*
X0051591Y0156315D03*
X0051591Y0159465D03*
X0051591Y0162614D03*
X0051591Y0165764D03*
X0051591Y0168913D03*
X0051591Y0172063D03*
X0051591Y0175213D03*
X0051591Y0178362D03*
X0051591Y0181512D03*
X0051591Y0184661D03*
X0097260Y0184661D03*
X0097260Y0181512D03*
X0097260Y0178362D03*
X0097260Y0175213D03*
X0097260Y0172063D03*
X0097260Y0168913D03*
X0097260Y0165764D03*
X0097260Y0162614D03*
X0097260Y0159465D03*
X0097260Y0156315D03*
X0097260Y0153165D03*
D35*
X0025882Y0117102D03*
X0025882Y0107102D03*
X0015882Y0107102D03*
X0015882Y0097102D03*
X0015882Y0117102D03*
D36*
X0092339Y0113992D03*
X0094307Y0113992D03*
X0096276Y0113992D03*
X0098244Y0113992D03*
X0100213Y0113992D03*
X0102181Y0113992D03*
X0102181Y0106512D03*
X0100213Y0106512D03*
X0098244Y0106512D03*
X0096276Y0106512D03*
X0094307Y0106512D03*
X0092339Y0106512D03*
D37*
X0091748Y0109268D03*
X0091748Y0111236D03*
X0102772Y0111236D03*
X0102772Y0109268D03*
D38*
X0097260Y0110252D03*
D39*
X0075606Y0106512D03*
X0075606Y0093520D03*
D40*
X0016157Y0287370D03*
X0016157Y0290614D03*
D41*
X0024031Y0307102D03*
X0027575Y0302575D03*
X0044110Y0303362D03*
X0043323Y0309858D03*
X0050409Y0298638D03*
X0064976Y0280035D03*
X0071276Y0275311D03*
X0083480Y0250508D03*
X0088992Y0250409D03*
X0082693Y0235547D03*
X0083874Y0228461D03*
X0074425Y0216650D03*
X0069701Y0209957D03*
X0066551Y0203657D03*
X0065370Y0199622D03*
X0061827Y0203559D03*
X0058283Y0199622D03*
X0055528Y0196177D03*
X0052378Y0191748D03*
X0048835Y0193717D03*
X0043717Y0175311D03*
X0037319Y0163795D03*
X0059465Y0154346D03*
X0063795Y0168126D03*
X0065370Y0164189D03*
X0070882Y0160646D03*
X0070488Y0155921D03*
X0074425Y0173244D03*
X0074819Y0181906D03*
X0080331Y0180724D03*
X0083480Y0197358D03*
X0090961Y0207594D03*
X0093717Y0197358D03*
X0103559Y0198047D03*
X0108283Y0197260D03*
X0114976Y0192634D03*
X0107102Y0184760D03*
X0103165Y0181610D03*
X0103067Y0154740D03*
X0097260Y0149819D03*
X0114780Y0139386D03*
X0121669Y0132398D03*
X0116748Y0104740D03*
X0112811Y0094504D03*
X0126807Y0081728D03*
X0135154Y0098736D03*
X0142240Y0102831D03*
X0136728Y0072358D03*
X0146768Y0151197D03*
X0142929Y0164583D03*
X0142929Y0168913D03*
X0146866Y0174031D03*
X0132693Y0163894D03*
X0126787Y0168618D03*
X0112614Y0208382D03*
X0105921Y0219012D03*
X0110252Y0228854D03*
X0113008Y0231610D03*
X0111827Y0243815D03*
X0113795Y0250508D03*
X0117535Y0254051D03*
X0122161Y0257988D03*
X0129937Y0274130D03*
X0124031Y0279248D03*
X0112319Y0271276D03*
X0109563Y0261827D03*
X0104740Y0250508D03*
X0090567Y0290567D03*
X0100409Y0294110D03*
X0090567Y0317535D03*
X0053559Y0256020D03*
X0044504Y0270980D03*
X0038598Y0275311D03*
X0038795Y0256020D03*
X0041748Y0253264D03*
X0029543Y0237122D03*
X0024819Y0244602D03*
X0035449Y0225311D03*
X0053165Y0224130D03*
X0058283Y0219406D03*
X0061039Y0209957D03*
X0071472Y0224720D03*
X0057890Y0140272D03*
X0067535Y0122457D03*
X0070882Y0126000D03*
X0071276Y0132693D03*
X0074425Y0137024D03*
X0073933Y0119012D03*
X0065173Y0112024D03*
X0060055Y0112024D03*
X0053559Y0111827D03*
X0067240Y0093421D03*
X0065862Y0081217D03*
X0075311Y0088106D03*
X0075705Y0099130D03*
X0057594Y0071965D03*
X0031906Y0114976D03*
X0030724Y0085843D03*
X0027181Y0082496D03*
X0130724Y0225311D03*
X0139386Y0220193D03*
X0166157Y0225409D03*
X0173638Y0225803D03*
X0178756Y0218224D03*
X0186630Y0225311D03*
X0172850Y0273835D03*
X0164976Y0282102D03*
X0172358Y0288992D03*
X0164976Y0295390D03*
X0152378Y0278559D03*
X0140567Y0278854D03*
X0136630Y0285547D03*
X0177969Y0301000D03*
X0182299Y0306512D03*
X0171374Y0150705D03*
X0051591Y0332398D03*
X0046079Y0337122D03*
X0025606Y0337122D03*
X0020094Y0332004D03*
D42*
X0097457Y0134465D03*
X0085055Y0125606D03*
M02*
