%
M48
M72
T01C0.0118
T02C0.0170
T03C0.0276
T04C0.0394
T05C0.0400
T06C0.0440
T07C0.0787
T08C0.0831
%
T01
X9450Y11025
X9726Y11025
X10002Y11025
T02
X11281Y9450
X11675Y10474
X12681Y8173
X13515Y9874
X14224Y10283
X13673Y7236
X12167Y13240
X11478Y13939
X10307Y15474
X9726Y14982
X9746Y13446
X8506Y12561
X7393Y11901
X7088Y12600
X6754Y12246
X6517Y11202
X6006Y11202
X5356Y11183
X6724Y9342
X6586Y8122
X7531Y8811
X7570Y9913
X5759Y7196
X3191Y11498
X3072Y8584
X2718Y8250
X5789Y14027
X5946Y15435
X6380Y16813
X6537Y16419
X7088Y16065
X7049Y15592
X7443Y17324
X7482Y18191
X8033Y18072
X8348Y19736
X9096Y20759
X9372Y19736
X10356Y19805
X10828Y19726
X11498Y19263
X10710Y18476
X10317Y18161
X11261Y20838
X10592Y21901
X11025Y22885
X11301Y23161
X11183Y24381
X11380Y25051
X11754Y25405
X12216Y25799
X12994Y27413
X12403Y27925
X11232Y27128
X10956Y26183
X10474Y25051
X8899Y25041
X8348Y25051
X8269Y23555
X8387Y22846
X7443Y21665
X6970Y20996
X6655Y20366
X6537Y19962
X6183Y20356
X5828Y19962
X5553Y19618
X5238Y19175
X4883Y19372
X4372Y17531
X3732Y16380
X6104Y20996
X5828Y21941
X5317Y22413
X4175Y25326
X3880Y25602
X4450Y27098
X3860Y27531
X5356Y25602
X6498Y28004
X7128Y27531
X9057Y29057
X10041Y29411
X9057Y31754
X5159Y33240
X4608Y33712
X4332Y30986
X4411Y30336
X5041Y29864
X2757Y30257
X2403Y30710
X2009Y33200
X2561Y33712
X2482Y24460
X2954Y23712
X3545Y22531
X7147Y22472
X7443Y13702
X7128Y13269
X12679Y16862
X13269Y16389
X14293Y16458
X14293Y16891
X14687Y17403
X14677Y15120
X17137Y15070
X17876Y21822
X17364Y22580
X16616Y22541
X18663Y22531
X17285Y27383
X16498Y28210
X17236Y28899
X16498Y29539
X15238Y27856
X14057Y27885
X13663Y28555
X13072Y22531
X13939Y22019
X17797Y30100
X18230Y30651
T03
X2718Y27128
X2718Y26340
T04
X2521Y28899
X3506Y28899
X4490Y28899
X8624Y26931
X9608Y26931
X10592Y26931
X14529Y28899
X15513Y28899
X16498Y28899
T05
X18279Y28525
X18112Y13230
X18112Y12230
X2588Y11710
X2588Y10710
X2588Y9710
X1588Y9710
X1588Y10710
X1588Y11710
X1340Y17978
X1340Y18978
X1340Y19978
T06
X7049Y6065
X8049Y6065
X10576Y6065
X11576Y6065
T07
X11340Y29687
X13781Y31655
X17246Y31655
X7876Y29687
X5238Y31655
X1773Y31655
T08
X2521Y5277
X16694Y5277
M30
