G75*
%MOIN*%
%OFA0B0*%
%FSLAX25Y25*%
%IPPOS*%
%LPD*%
%AMOC8*
5,1,8,0,0,1.08239X$1,22.5*
%
%ADD10C,0.01600*%
%ADD11C,0.00600*%
%ADD12C,0.01000*%
%ADD13C,0.00300*%
D10*
X0092290Y0241367D02*
X0098428Y0241367D01*
X0095359Y0241367D02*
X0095359Y0259783D01*
X0098428Y0259783D02*
X0092290Y0259783D01*
X0042129Y0261052D02*
X0032921Y0261052D01*
X0029852Y0264121D01*
X0029852Y0276398D01*
X0032921Y0279468D01*
X0042129Y0279468D01*
X0042129Y0261052D01*
X0148750Y0268685D02*
X0151819Y0265616D01*
X0161027Y0265616D01*
X0161027Y0259477D02*
X0161027Y0277893D01*
X0151819Y0277893D01*
X0148750Y0274824D01*
X0148750Y0268685D01*
D11*
X0145731Y0225268D02*
X0145731Y0218863D01*
X0147907Y0220998D02*
X0152177Y0220998D01*
X0152177Y0219931D02*
X0152177Y0222066D01*
X0151109Y0223133D01*
X0148974Y0223133D01*
X0147907Y0222066D01*
X0147907Y0220998D01*
X0148974Y0218863D02*
X0151109Y0218863D01*
X0152177Y0219931D01*
X0154339Y0218863D02*
X0156474Y0218863D01*
X0155406Y0218863D02*
X0155406Y0225268D01*
X0156474Y0225268D01*
X0158649Y0225268D02*
X0158649Y0218863D01*
X0161852Y0218863D01*
X0162919Y0219931D01*
X0162919Y0222066D01*
X0161852Y0223133D01*
X0158649Y0223133D01*
X0165081Y0225268D02*
X0167216Y0225268D01*
X0166149Y0225268D02*
X0166149Y0218863D01*
X0167216Y0218863D02*
X0165081Y0218863D01*
X0162919Y0195741D02*
X0159717Y0195741D01*
X0158649Y0194673D01*
X0158649Y0193606D01*
X0159717Y0192538D01*
X0162919Y0192538D01*
X0159717Y0192538D02*
X0158649Y0191471D01*
X0158649Y0190403D01*
X0159717Y0189335D01*
X0162919Y0189335D01*
X0162919Y0195741D01*
X0156474Y0190403D02*
X0156474Y0189335D01*
X0155406Y0189335D01*
X0155406Y0190403D01*
X0156474Y0190403D01*
X0153251Y0195741D02*
X0148981Y0195741D01*
X0151116Y0195741D02*
X0151116Y0189335D01*
X0146806Y0189335D02*
X0146806Y0195741D01*
X0142535Y0195741D01*
X0140360Y0194673D02*
X0140360Y0190403D01*
X0139293Y0189335D01*
X0137157Y0189335D01*
X0136090Y0190403D01*
X0133915Y0189335D02*
X0133915Y0195741D01*
X0136090Y0194673D02*
X0137157Y0195741D01*
X0139293Y0195741D01*
X0140360Y0194673D01*
X0144671Y0192538D02*
X0146806Y0192538D01*
X0146806Y0189335D02*
X0142535Y0189335D01*
X0133915Y0192538D02*
X0129644Y0192538D01*
X0129644Y0195741D02*
X0129644Y0189335D01*
X0121024Y0189335D02*
X0121024Y0195741D01*
X0118889Y0193606D01*
X0116753Y0195741D01*
X0116753Y0189335D01*
X0114578Y0190403D02*
X0113511Y0189335D01*
X0110308Y0189335D01*
X0108133Y0189335D02*
X0108133Y0195741D01*
X0105998Y0193606D01*
X0103862Y0195741D01*
X0103862Y0189335D01*
X0101687Y0190403D02*
X0100620Y0189335D01*
X0097417Y0189335D01*
X0097417Y0192538D01*
X0098484Y0193606D01*
X0100620Y0193606D01*
X0100620Y0191471D02*
X0097417Y0191471D01*
X0095242Y0192538D02*
X0094174Y0193606D01*
X0090971Y0193606D01*
X0088796Y0193606D02*
X0086661Y0193606D01*
X0087729Y0194673D02*
X0087729Y0190403D01*
X0086661Y0189335D01*
X0084499Y0190403D02*
X0083432Y0189335D01*
X0081297Y0189335D01*
X0080229Y0191471D02*
X0084499Y0191471D01*
X0084499Y0192538D02*
X0083432Y0193606D01*
X0081297Y0193606D01*
X0080229Y0192538D01*
X0080229Y0191471D01*
X0078054Y0191471D02*
X0075919Y0193606D01*
X0074851Y0193606D01*
X0078054Y0193606D02*
X0078054Y0189335D01*
X0072682Y0189335D02*
X0068412Y0195741D01*
X0066237Y0195741D02*
X0064102Y0193606D01*
X0061967Y0195741D01*
X0061967Y0189335D01*
X0059791Y0190403D02*
X0058724Y0189335D01*
X0056589Y0189335D01*
X0055521Y0190403D01*
X0055521Y0192538D01*
X0056589Y0193606D01*
X0058724Y0193606D01*
X0059791Y0192538D01*
X0059791Y0190403D01*
X0066237Y0189335D02*
X0066237Y0195741D01*
X0064646Y0207839D02*
X0064646Y0214245D01*
X0067848Y0211042D01*
X0063578Y0211042D01*
X0070023Y0209975D02*
X0070023Y0214245D01*
X0070023Y0209975D02*
X0072159Y0207839D01*
X0074294Y0209975D01*
X0074294Y0214245D01*
X0076980Y0216728D02*
X0076980Y0223133D01*
X0073777Y0223133D01*
X0072709Y0222066D01*
X0072709Y0219931D01*
X0073777Y0218863D01*
X0076980Y0218863D01*
X0079155Y0219931D02*
X0079155Y0222066D01*
X0080222Y0223133D01*
X0082357Y0223133D01*
X0083425Y0222066D01*
X0083425Y0219931D01*
X0082357Y0218863D01*
X0080222Y0218863D01*
X0079155Y0219931D01*
X0082914Y0214245D02*
X0087185Y0214245D01*
X0085050Y0214245D02*
X0085050Y0207839D01*
X0089360Y0208907D02*
X0089360Y0213177D01*
X0090428Y0214245D01*
X0092563Y0214245D01*
X0093630Y0213177D01*
X0093630Y0208907D01*
X0092563Y0207839D01*
X0090428Y0207839D01*
X0089360Y0208907D01*
X0095805Y0208907D02*
X0096873Y0207839D01*
X0100076Y0207839D01*
X0100076Y0214245D01*
X0096873Y0214245D01*
X0095805Y0213177D01*
X0095805Y0212110D01*
X0096873Y0211042D01*
X0100076Y0211042D01*
X0102251Y0213177D02*
X0102251Y0214245D01*
X0102251Y0213177D02*
X0104386Y0211042D01*
X0104386Y0207839D01*
X0104386Y0211042D02*
X0106521Y0213177D01*
X0106521Y0214245D01*
X0108696Y0213177D02*
X0108696Y0208907D01*
X0109764Y0207839D01*
X0112967Y0207839D01*
X0112967Y0214245D01*
X0109764Y0214245D01*
X0108696Y0213177D01*
X0109234Y0218863D02*
X0112436Y0218863D01*
X0113504Y0219931D01*
X0113504Y0222066D01*
X0112436Y0223133D01*
X0109234Y0223133D01*
X0109234Y0225268D02*
X0109234Y0218863D01*
X0107058Y0219931D02*
X0107058Y0222066D01*
X0105991Y0223133D01*
X0103856Y0223133D01*
X0102788Y0222066D01*
X0102788Y0220998D01*
X0107058Y0220998D01*
X0107058Y0219931D02*
X0105991Y0218863D01*
X0103856Y0218863D01*
X0100613Y0223133D02*
X0098478Y0218863D01*
X0096343Y0223133D01*
X0094167Y0222066D02*
X0093100Y0223133D01*
X0090965Y0223133D01*
X0089897Y0222066D01*
X0089897Y0220998D01*
X0094167Y0220998D01*
X0094167Y0219931D02*
X0094167Y0222066D01*
X0094167Y0219931D02*
X0093100Y0218863D01*
X0090965Y0218863D01*
X0087722Y0218863D02*
X0085587Y0218863D01*
X0086654Y0218863D02*
X0086654Y0225268D01*
X0087722Y0225268D01*
X0096873Y0211042D02*
X0095805Y0209975D01*
X0095805Y0208907D01*
X0095242Y0192538D02*
X0094174Y0191471D01*
X0092039Y0191471D01*
X0090971Y0190403D01*
X0092039Y0189335D01*
X0095242Y0189335D01*
X0100620Y0191471D02*
X0101687Y0190403D01*
X0110308Y0193606D02*
X0113511Y0193606D01*
X0114578Y0192538D01*
X0114578Y0190403D01*
X0116210Y0207839D02*
X0115142Y0208907D01*
X0115142Y0213177D01*
X0116210Y0214245D01*
X0119412Y0214245D01*
X0119412Y0207839D01*
X0116210Y0207839D01*
X0121574Y0207839D02*
X0123709Y0207839D01*
X0122642Y0207839D02*
X0122642Y0214245D01*
X0123709Y0214245D02*
X0121574Y0214245D01*
X0125884Y0213177D02*
X0125884Y0211042D01*
X0126952Y0209975D01*
X0130155Y0209975D01*
X0130155Y0207839D02*
X0130155Y0214245D01*
X0126952Y0214245D01*
X0125884Y0213177D01*
X0125327Y0218863D02*
X0122125Y0218863D01*
X0122125Y0225268D01*
X0122125Y0223133D02*
X0125327Y0223133D01*
X0126395Y0222066D01*
X0126395Y0219931D01*
X0125327Y0218863D01*
X0128570Y0218863D02*
X0128570Y0222066D01*
X0129638Y0223133D01*
X0132840Y0223133D01*
X0132840Y0218863D01*
X0135016Y0218863D02*
X0138218Y0218863D01*
X0139286Y0219931D01*
X0138218Y0220998D01*
X0135016Y0220998D01*
X0135016Y0222066D02*
X0135016Y0218863D01*
X0135016Y0222066D02*
X0136083Y0223133D01*
X0138218Y0223133D01*
X0141461Y0222066D02*
X0141461Y0218863D01*
X0141461Y0222066D02*
X0142529Y0223133D01*
X0144664Y0223133D01*
X0145731Y0222066D01*
X0119949Y0222066D02*
X0118882Y0223133D01*
X0115679Y0223133D01*
X0116747Y0220998D02*
X0118882Y0220998D01*
X0119949Y0222066D01*
X0119949Y0218863D02*
X0116747Y0218863D01*
X0115679Y0219931D01*
X0116747Y0220998D01*
X0084499Y0192538D02*
X0084499Y0190403D01*
X0080739Y0206772D02*
X0076469Y0206772D01*
X0070534Y0218863D02*
X0070534Y0223133D01*
X0069466Y0223133D01*
X0068399Y0222066D01*
X0067331Y0223133D01*
X0066264Y0222066D01*
X0066264Y0218863D01*
X0068399Y0218863D02*
X0068399Y0222066D01*
X0064089Y0222066D02*
X0063021Y0223133D01*
X0060886Y0223133D01*
X0059818Y0222066D01*
X0059818Y0220998D01*
X0064089Y0220998D01*
X0064089Y0219931D02*
X0064089Y0222066D01*
X0064089Y0219931D02*
X0063021Y0218863D01*
X0060886Y0218863D01*
X0057643Y0218863D02*
X0057643Y0223133D01*
X0054440Y0223133D01*
X0053373Y0222066D01*
X0053373Y0218863D01*
X0050130Y0219931D02*
X0050130Y0224201D01*
X0051198Y0223133D02*
X0049062Y0223133D01*
X0050130Y0219931D02*
X0049062Y0218863D01*
X0046901Y0218863D02*
X0045833Y0218863D01*
X0045833Y0219931D01*
X0046901Y0219931D01*
X0046901Y0218863D01*
X0043678Y0219931D02*
X0042610Y0218863D01*
X0039407Y0218863D01*
X0037232Y0219931D02*
X0036165Y0218863D01*
X0034030Y0218863D01*
X0032962Y0219931D01*
X0032962Y0222066D01*
X0034030Y0223133D01*
X0036165Y0223133D01*
X0037232Y0222066D01*
X0037232Y0219931D01*
X0039407Y0223133D02*
X0042610Y0223133D01*
X0043678Y0222066D01*
X0043678Y0219931D01*
X0030787Y0218863D02*
X0030787Y0223133D01*
X0029719Y0223133D01*
X0028652Y0222066D01*
X0027584Y0223133D01*
X0026516Y0222066D01*
X0026516Y0218863D01*
X0028652Y0218863D02*
X0028652Y0222066D01*
X0034010Y0195741D02*
X0034010Y0189335D01*
X0034010Y0191471D02*
X0030807Y0193606D01*
X0034010Y0191471D02*
X0030807Y0189335D01*
X0036185Y0190403D02*
X0036185Y0193606D01*
X0036185Y0190403D02*
X0037252Y0189335D01*
X0038320Y0190403D01*
X0039387Y0189335D01*
X0040455Y0190403D01*
X0040455Y0193606D01*
X0042630Y0192538D02*
X0042630Y0189335D01*
X0045833Y0189335D01*
X0046901Y0190403D01*
X0045833Y0191471D01*
X0042630Y0191471D01*
X0042630Y0192538D02*
X0043698Y0193606D01*
X0045833Y0193606D01*
X0049076Y0192538D02*
X0049076Y0189335D01*
X0049076Y0192538D02*
X0050143Y0193606D01*
X0052278Y0193606D01*
X0053346Y0192538D01*
X0053346Y0195741D02*
X0053346Y0189335D01*
D12*
X0039366Y0075205D02*
X0039366Y0071205D01*
X0044866Y0071205D01*
X0053366Y0078205D02*
X0053366Y0098205D01*
X0044866Y0105205D02*
X0039366Y0105205D01*
X0039366Y0101205D01*
X0139760Y0101205D02*
X0139760Y0105205D01*
X0145260Y0105205D01*
X0153760Y0098205D02*
X0153760Y0078205D01*
X0145260Y0071205D02*
X0139760Y0071205D01*
X0139760Y0075205D01*
D13*
X0134694Y0084515D02*
X0134210Y0084999D01*
X0134210Y0085483D01*
X0134694Y0085966D01*
X0137112Y0085966D01*
X0137112Y0085483D02*
X0137112Y0086450D01*
X0137112Y0087462D02*
X0137112Y0088913D01*
X0136629Y0089397D01*
X0135661Y0089397D01*
X0135177Y0088913D01*
X0135177Y0087462D01*
X0134210Y0087462D02*
X0137112Y0087462D01*
X0135661Y0090408D02*
X0135661Y0092343D01*
X0134210Y0091859D02*
X0137112Y0091859D01*
X0135661Y0090408D01*
X0036719Y0090892D02*
X0036719Y0091859D01*
X0036235Y0092343D01*
X0035751Y0092343D01*
X0035267Y0091859D01*
X0034784Y0092343D01*
X0034300Y0092343D01*
X0033816Y0091859D01*
X0033816Y0090892D01*
X0034300Y0090408D01*
X0035267Y0091376D02*
X0035267Y0091859D01*
X0036235Y0090408D02*
X0036719Y0090892D01*
X0036235Y0089397D02*
X0035267Y0089397D01*
X0034784Y0088913D01*
X0034784Y0087462D01*
X0033816Y0087462D02*
X0036719Y0087462D01*
X0036719Y0088913D01*
X0036235Y0089397D01*
X0036719Y0086450D02*
X0036719Y0085483D01*
X0036719Y0085966D02*
X0034300Y0085966D01*
X0033816Y0085483D01*
X0033816Y0084999D01*
X0034300Y0084515D01*
M02*
